<svg width="400" height="400" viewBox="0 0 400 400" fill="none" xmlns="http://www.w3.org/2000/svg">
<path d="M312.557 179.092L251.557 174.532C245.649 174.084 239.719 175.062 234.267 177.382L218.041 184.298C215.859 188.26 213.177 191.925 210.061 195.204C202.233 203.564 172.213 219.106 156.367 222.374C152.633 223.038 148.785 222.366 145.499 220.474C138.32 226.234 130.797 231.552 122.973 236.4C122.973 236.4 137.793 278.618 192.973 254.754L236.863 235.716L227.249 258.782C227.515 271.968 227.591 289.258 226.717 300.782C237.021 303.92 248.011 304.026 258.373 301.084C262.513 272.964 265.667 228.58 254.951 211.822L307.393 211.328C314.001 199.426 313.419 192.658 312.557 179.092Z" fill="#80CAEE"/>
<path d="M215.122 162.752L221.506 134.67C221.648 134.055 221.538 133.41 221.204 132.875C220.868 132.341 220.334 131.961 219.72 131.82C219.106 131.679 218.46 131.788 217.926 132.123C217.39 132.458 217.012 132.991 216.87 133.606L209.346 166.704" fill="#80CAEE"/>
<path d="M215.122 162.752L221.506 134.67C221.648 134.055 221.538 133.41 221.204 132.875C220.868 132.341 220.334 131.961 219.72 131.82C219.106 131.679 218.46 131.788 217.926 132.123C217.39 132.458 217.012 132.991 216.87 133.606L209.346 166.704C210.292 170.194 212.834 174.875 215.122 162.752Z" fill="#80CAEE"/>
<path d="M210.183 56.3499C210.183 61.0623 208.785 65.6687 206.167 69.5869C203.549 73.5051 199.829 76.5589 195.475 78.3623C191.121 80.1657 186.331 80.6375 181.709 79.7181C177.087 78.7989 172.842 76.5297 169.51 73.1975C166.178 69.8653 163.908 65.6199 162.989 60.9981C162.07 56.3763 162.542 51.5857 164.345 47.2321C166.148 42.8785 169.202 39.1573 173.12 36.5393C177.038 33.9213 181.645 32.5239 186.357 32.5239C192.675 32.5277 198.733 35.0391 203.201 39.5065C207.667 43.9739 210.179 50.0321 210.183 56.3499Z" fill="#80CAEE"/>
<path d="M334.601 182.094C330.229 192.459 324.053 201.968 316.361 210.176C320.579 210.822 324.797 211.776 328.407 212.342C332.167 210.702 335.693 208.57 338.891 206C348.891 197.944 369.491 187.95 374.003 182.25C365.833 181.068 345.845 181.866 334.601 182.094Z" fill="#3C50E0"/>
<path d="M257.302 324.216C246.772 320.24 237.03 314.424 228.536 307.038C228.042 311.258 227.282 315.514 226.826 319.162C228.608 322.862 230.87 326.312 233.552 329.422C241.952 339.074 252.706 359.29 258.552 363.622C259.468 355.414 257.95 335.464 257.302 324.216Z" fill="#3C50E0"/>
<path d="M126.848 203.754C126.088 204.134 125.29 204.476 124.492 204.818C120.765 200.438 117.263 195.873 114 191.138C114.342 191.938 124.83 214.622 142.234 223.172C143.374 222.26 144.476 221.386 145.502 220.512C139 216.978 132.244 210.138 126.848 203.754Z" fill="#3C50E0"/>
<path d="M226.789 240.044C226.789 240.044 227.131 248.062 227.321 258.74L236.859 235.712L226.789 240.044Z" fill="#3C50E0"/>
<path d="M124.455 104.042C124.455 104.042 117.801 91.576 102.149 99.178C86.4969 106.78 89.5329 137.33 89.5329 137.33C89.5329 137.33 75.6229 143.98 68.2129 155.19C56.7369 172.556 62.5149 198.776 98.2009 198.776C96.4997 191.291 95.9107 183.595 96.4529 175.938C97.4029 162.448 102.305 150.098 106.637 137.444C112.161 121.086 110.975 122.394 112.907 116.392C108.307 112.022 113.781 106.778 116.251 111.032C117.297 112.752 117.547 112.82 118.383 113.082C122.911 114.5 131.127 116.082 135.583 114.606C135.589 114.49 135.969 104.042 124.455 104.042Z" fill="#3C50E0"/>
<path d="M116.019 142.726L111.953 132.542C113.309 134.359 114.908 135.983 116.703 137.368C116.369 139.139 116.141 140.928 116.019 142.726Z" fill="#3C50E0"/>
<path d="M169.79 315.286C170.053 316.572 169.928 317.906 169.433 319.12C168.938 320.334 168.094 321.374 167.007 322.11C165.92 322.844 164.64 323.24 163.329 323.248C162.017 323.254 160.733 322.872 159.638 322.15C158.544 321.428 157.688 320.396 157.179 319.188C156.671 317.978 156.532 316.646 156.781 315.358C157.029 314.07 157.654 312.884 158.576 311.952C159.499 311.02 160.677 310.382 161.962 310.118C162.815 309.938 163.696 309.93 164.553 310.094C165.41 310.258 166.226 310.588 166.954 311.07C167.681 311.55 168.307 312.17 168.794 312.894C169.281 313.618 169.619 314.43 169.79 315.286Z" fill="#3C50E0"/>
<path d="M210.183 56.3499H211.183V56.3493L210.183 56.3499ZM181.709 79.7181L181.904 78.7373L181.904 78.7373L181.709 79.7181ZM169.51 73.1975L170.217 72.4904L170.217 72.4904L169.51 73.1975ZM162.989 60.9981L162.008 61.1932V61.1932L162.989 60.9981ZM164.345 47.2321L163.421 46.8494L163.421 46.8495L164.345 47.2321ZM186.357 32.5239L186.358 31.5239H186.357V32.5239ZM203.201 39.5065L203.908 38.7995L203.908 38.7994L203.201 39.5065ZM262.732 253.021C262.239 252.772 261.637 252.97 261.389 253.463C261.14 253.956 261.338 254.558 261.831 254.807L262.732 253.021ZM281.927 263.832L281.477 264.725L281.478 264.725L281.927 263.832ZM294.921 264.8L294.609 263.85L294.609 263.85L294.921 264.8ZM304.805 256.308L305.697 256.76L305.698 256.759L304.805 256.308ZM328.194 212.223C328.443 211.73 328.245 211.128 327.752 210.879C327.259 210.63 326.658 210.828 326.409 211.321L328.194 212.223ZM340.659 183.125C340.41 183.618 340.607 184.219 341.1 184.468C341.593 184.718 342.194 184.52 342.444 184.027L340.659 183.125ZM355.421 156.14L356.314 156.591L356.314 156.59L355.421 156.14ZM356.389 143.146L355.439 143.459V143.459L356.389 143.146ZM347.897 133.264L348.349 132.372L348.348 132.371L347.897 133.264ZM209.526 62.2364C209.033 61.9873 208.432 62.185 208.183 62.678C207.934 63.1709 208.131 63.7724 208.624 64.0215L209.526 62.2364ZM129.491 153.949C129.242 154.442 129.44 155.044 129.933 155.293C130.426 155.542 131.027 155.344 131.276 154.851L129.491 153.949ZM171.552 75.0684C171.801 74.5754 171.603 73.9739 171.11 73.725C170.617 73.4761 170.015 73.674 169.766 74.1671L171.552 75.0684ZM356.226 143.067C356.772 142.979 357.142 142.466 357.054 141.921C356.967 141.375 356.453 141.005 355.908 141.093L356.226 143.067ZM240.127 160.776L239.238 161.234C239.436 161.618 239.859 161.832 240.286 161.763L240.127 160.776ZM198.16 77.0887C197.908 76.5977 197.305 76.4046 196.814 76.6575C196.323 76.9103 196.13 77.5133 196.382 78.0043L198.16 77.0887ZM177.341 260.933C177.713 260.524 177.683 259.892 177.274 259.52C176.865 259.149 176.233 259.179 175.861 259.587L177.341 260.933ZM145.798 282.812L145.38 281.903L145.38 281.904L145.798 282.812ZM71.0094 285.036L70.6461 285.968L70.6461 285.968L71.0094 285.036ZM38.9202 264.354L38.2217 265.07L38.2218 265.07L38.9202 264.354ZM17.4656 232.776L16.543 233.162L16.543 233.162L17.4656 232.776ZM10.0581 195.324L11.0581 195.329L10.0581 195.324ZM40.3658 127.337C40.7653 126.956 40.7799 126.323 40.3985 125.923C40.017 125.524 39.384 125.509 38.9846 125.891L40.3658 127.337ZM115.02 145.917C115.04 146.469 115.504 146.9 116.056 146.879C116.608 146.859 117.039 146.395 117.019 145.843L115.02 145.917ZM128.017 134.46L128.836 135.034C128.847 135.018 128.858 135.002 128.868 134.986L128.017 134.46ZM134.347 115.006C134.337 114.454 133.881 114.014 133.329 114.024C132.777 114.034 132.337 114.49 132.347 115.042L134.347 115.006ZM114.001 191.138L114.825 190.571C114.533 190.147 113.967 190.014 113.517 190.263C113.066 190.513 112.879 191.063 113.084 191.536L114.001 191.138ZM124.489 204.818L123.728 205.466C124.01 205.798 124.474 205.909 124.876 205.74L124.489 204.818ZM140.801 194.43L140.129 193.689L140.129 193.69L140.801 194.43ZM150.329 183.652L151.147 184.228C151.399 183.871 151.389 183.392 151.124 183.044L150.329 183.652ZM132.129 156.9L131.272 157.415L131.273 157.416L132.129 156.9ZM120.503 146.8L120.894 145.879C120.884 145.875 120.875 145.871 120.866 145.868L120.503 146.8ZM113.967 145.964L113.852 144.971C113.805 144.976 113.759 144.985 113.714 144.997L113.967 145.964ZM108.938 146.076L108.728 147.053H108.728L108.938 146.076ZM105.031 143.127C104.602 142.779 103.972 142.845 103.624 143.275C103.277 143.704 103.343 144.333 103.772 144.681L105.031 143.127ZM312.898 181.057C312.346 181.036 311.882 181.467 311.862 182.019C311.842 182.571 312.273 183.035 312.824 183.055L312.898 181.057ZM334.559 182.094L335.481 182.482C335.612 182.17 335.577 181.813 335.387 181.533C335.198 181.253 334.879 181.088 334.541 181.094L334.559 182.094ZM316.359 210.176L316.204 211.164C316.532 211.215 316.863 211.101 317.09 210.859L316.359 210.176ZM308.516 208.342C307.965 208.308 307.491 208.728 307.457 209.279C307.423 209.83 307.843 210.304 308.394 210.338L308.516 208.342ZM377.725 183.728L376.754 183.964L376.754 183.965L377.725 183.728ZM346.033 206.718L345.405 205.939L345.401 205.943L346.033 206.718ZM336.233 212.494L336.414 213.478C336.479 213.466 336.543 213.447 336.604 213.422L336.233 212.494ZM328.433 212.342L328.035 211.425C327.638 211.597 327.397 212.005 327.438 212.436C327.478 212.867 327.792 213.223 328.214 213.318L328.433 212.342ZM338.929 206L339.556 206.779L339.557 206.778L338.929 206ZM334.601 182.094L334.581 181.094C334.186 181.102 333.833 181.341 333.68 181.705L334.601 182.094ZM338.889 205.996L338.262 205.217L338.262 205.217L338.889 205.996ZM328.401 212.342L328.245 213.33C328.433 213.359 328.626 213.335 328.8 213.259L328.401 212.342ZM316.355 210.176L315.626 209.492C315.372 209.763 315.289 210.152 315.41 210.503C315.531 210.853 315.837 211.108 316.204 211.164L316.355 210.176ZM257.845 301.59C257.879 301.039 257.458 300.565 256.907 300.532C256.356 300.499 255.882 300.919 255.849 301.47L257.845 301.59ZM257.303 324.254L256.949 325.189C257.265 325.309 257.62 325.261 257.893 325.062C258.166 324.862 258.32 324.539 258.302 324.201L257.303 324.254ZM228.575 307.078L227.582 306.961C227.543 307.289 227.67 307.616 227.919 307.833L228.575 307.078ZM229.993 301.399C230.005 300.847 229.566 300.39 229.014 300.378C228.462 300.367 228.005 300.805 227.993 301.357L229.993 301.399ZM258.557 363.622L259.552 363.725C259.588 363.373 259.436 363.029 259.152 362.818L258.557 363.622ZM257.227 367.422L257.531 368.375L257.532 368.374L257.227 367.422ZM233.097 336.566L233.853 335.911L233.847 335.904L233.097 336.566ZM226.941 326.952L225.964 327.164C225.978 327.23 225.999 327.294 226.027 327.356L226.941 326.952ZM226.827 319.152L227.729 318.72C227.542 318.329 227.125 318.104 226.696 318.161C226.267 318.217 225.924 318.543 225.844 318.968L226.827 319.152ZM233.553 329.412L232.797 330.066L232.797 330.067L233.553 329.412ZM257.303 324.216L258.302 324.159C258.279 323.764 258.026 323.42 257.657 323.28L257.303 324.216ZM258.557 363.616L257.962 364.42C258.25 364.633 258.629 364.676 258.957 364.533C259.285 364.389 259.512 364.082 259.551 363.726L258.557 363.616ZM233.557 329.416L232.801 330.07L232.801 330.07L233.557 329.416ZM226.831 319.156L225.839 319.032C225.815 319.222 225.847 319.416 225.93 319.589L226.831 319.156ZM228.541 307.032L229.198 306.277C228.918 306.034 228.526 305.966 228.18 306.099C227.835 306.233 227.591 306.547 227.548 306.916L228.541 307.032ZM141.798 224.069C142.294 224.313 142.893 224.109 143.137 223.613C143.38 223.117 143.176 222.518 142.68 222.274L141.798 224.069ZM127.613 203.108C127.256 202.686 126.625 202.634 126.204 202.99C125.782 203.347 125.729 203.978 126.086 204.4L127.613 203.108ZM145.507 220.554L146.001 219.684C145.996 219.681 145.991 219.679 145.986 219.676L145.507 220.554ZM156.375 222.416L156.551 223.4C156.558 223.399 156.566 223.398 156.573 223.396L156.375 222.416ZM210.069 195.246L210.799 195.929L210.799 195.929L210.069 195.246ZM221.849 149.304L220.851 149.368L220.851 149.368L221.849 149.304ZM219.189 145.304L218.238 144.996L218.237 144.997L219.189 145.304ZM213.413 169.092L212.469 168.761C212.467 168.768 212.465 168.775 212.462 168.782L213.413 169.092ZM212.425 170.346L212.921 171.214C212.93 171.209 212.939 171.204 212.948 171.198L212.425 170.346ZM209.425 166.926L208.465 167.205L208.465 167.205L209.425 166.926ZM207.411 158.726L206.464 159.046L206.464 159.047L207.411 158.726ZM203.231 162.488L202.232 162.451L202.232 162.451L203.231 162.488ZM196.087 183.768L196.583 184.637L196.59 184.633L196.087 183.768ZM179.367 191.672L179.01 190.738L179.003 190.741L179.367 191.672ZM160.785 196.232L160.839 197.23C160.857 197.23 160.875 197.228 160.893 197.226L160.785 196.232ZM149.095 185.767C148.772 185.319 148.147 185.218 147.699 185.541C147.251 185.863 147.149 186.488 147.472 186.936L149.095 185.767ZM214.148 162.53C214.026 163.069 214.363 163.605 214.902 163.727C215.44 163.849 215.976 163.512 216.098 162.974L214.148 162.53ZM221.507 134.67L220.533 134.445L220.532 134.448L221.507 134.67ZM221.205 132.875L222.053 132.345L222.052 132.343L221.205 132.875ZM219.721 131.82L219.945 130.845L219.945 130.845L219.721 131.82ZM217.927 132.123L218.457 132.971L218.459 132.97L217.927 132.123ZM216.871 133.606L215.897 133.381L215.896 133.384L216.871 133.606ZM208.372 166.482C208.25 167.021 208.587 167.557 209.126 167.679C209.664 167.801 210.2 167.464 210.322 166.926L208.372 166.482ZM226.801 240.08L226.407 239.161L226.403 239.163L226.801 240.08ZM236.869 235.712L237.793 236.095C237.949 235.718 237.861 235.283 237.569 234.997C237.277 234.712 236.84 234.632 236.466 234.797L236.869 235.712ZM226.397 258.357C226.186 258.867 226.428 259.452 226.938 259.664C227.448 259.875 228.033 259.633 228.245 259.123L226.397 258.357ZM146.132 221.331C146.563 220.986 146.633 220.357 146.288 219.925C145.943 219.494 145.314 219.424 144.883 219.769L146.132 221.331ZM98.2012 198.776L99.1807 198.574C99.1793 198.568 99.1779 198.561 99.1764 198.554L98.2012 198.776ZM217.621 183.377C217.112 183.593 216.875 184.18 217.091 184.689C217.306 185.197 217.893 185.434 218.402 185.218L217.621 183.377ZM235.833 176.736L235.444 175.815L235.443 175.815L235.833 176.736ZM249.817 174.418L249.892 173.421L249.888 173.42L249.817 174.418ZM312.557 179.092L313.551 178.985C313.5 178.505 313.113 178.131 312.632 178.095L312.557 179.092ZM307.389 211.316L307.399 212.316C307.758 212.312 308.089 212.116 308.263 211.802L307.389 211.316ZM255.014 210.81C254.462 210.815 254.018 211.267 254.023 211.819C254.028 212.372 254.48 212.815 255.033 212.81L255.014 210.81ZM124.455 104.042L123.573 104.513C123.747 104.839 124.086 105.042 124.455 105.042V104.042ZM89.5332 137.33L89.9645 138.232C90.3445 138.05 90.57 137.65 90.5283 137.231L89.5332 137.33ZM68.2132 155.19L67.379 154.638L67.3789 154.639L68.2132 155.19ZM96.4532 175.938L97.4507 176.009L97.4508 176.008L96.4532 175.938ZM106.637 137.444L107.583 137.768L107.585 137.764L106.637 137.444ZM110.779 124.408L111.745 124.668L111.747 124.66L110.779 124.408ZM112.907 116.392L113.859 116.698C113.977 116.333 113.875 115.932 113.596 115.667L112.907 116.392ZM116.251 111.032L115.386 111.534C115.39 111.539 115.393 111.545 115.396 111.55L116.251 111.032ZM118.747 113.122L118.434 114.072L118.435 114.072L118.747 113.122ZM135.593 114.522L136.425 115.077C136.659 114.726 136.648 114.266 136.397 113.927C136.146 113.588 135.71 113.443 135.306 113.564L135.593 114.522ZM49.4414 110.576L49.8759 111.477C49.9151 111.458 49.9531 111.436 49.9895 111.412L49.4414 110.576ZM11.6694 134.518L12.1977 135.367C12.2327 135.345 12.2664 135.321 12.2985 135.295L11.6694 134.518ZM10.5482 136.425L11.547 136.474L11.547 136.474L10.5482 136.425ZM10.7667 137.543L11.6738 137.122L11.6737 137.122L10.7667 137.543ZM11.4794 138.432L12.1011 137.649C12.0965 137.645 12.0919 137.641 12.0872 137.638L11.4794 138.432ZM20.1434 145.31L19.5217 146.093C19.732 146.26 20.0008 146.335 20.2673 146.302C20.5338 146.269 20.7758 146.13 20.9387 145.916L20.1434 145.31ZM39.6634 126.592L40.4546 127.204C40.7671 126.799 40.7246 126.224 40.3559 125.87C39.9873 125.517 39.4111 125.498 39.02 125.826L39.6634 126.592ZM25.2634 149.364L24.3717 148.911C24.1564 149.335 24.2697 149.852 24.6425 150.148L25.2634 149.364ZM34.5854 156.748L35.2072 155.965L35.2063 155.964L34.5854 156.748ZM38.3474 155.646L37.4027 155.318L37.4015 155.322L38.3474 155.646ZM53.0134 113.4L52.0729 113.06L52.0687 113.072L53.0134 113.4ZM53.0648 111.926L54.0267 111.653L54.0266 111.652L53.0648 111.926ZM52.245 110.701L51.6249 111.485L51.6249 111.485L52.245 110.701ZM50.8632 110.186L50.8187 111.185H50.8187L50.8632 110.186ZM307.085 38.1499L306.64 39.0452C306.653 39.0519 306.667 39.0583 306.681 39.0644L307.085 38.1499ZM292.265 47.6499L292.944 48.3843C293.188 48.1587 293.304 47.8264 293.254 47.4978L292.265 47.6499ZM288.731 50.9159L288.053 50.1815C287.761 50.4513 287.656 50.8683 287.786 51.2438C287.917 51.6193 288.257 51.8819 288.653 51.9129L288.731 50.9159ZM293.595 51.2959L294.456 50.7867C294.29 50.5063 293.998 50.3243 293.673 50.299L293.595 51.2959ZM312.367 51.7139L313.262 52.161C313.269 52.1456 313.277 52.13 313.284 52.1142L312.367 51.7139ZM348.389 256.648L348.474 255.652H348.474L348.389 256.648ZM344.571 257.074L344.268 256.121L344.268 256.121L344.571 257.074ZM341.211 258.93L341.856 259.694L341.857 259.693L341.211 258.93ZM338.815 261.932L337.927 261.472L337.925 261.476L338.815 261.932ZM326.997 274.092L327.068 273.094C326.595 273.061 326.163 273.365 326.035 273.821C325.906 274.278 326.116 274.762 326.538 274.98L326.997 274.092ZM353.825 287.962L353.366 288.85C353.788 289.068 354.306 288.959 354.604 288.589C354.902 288.219 354.899 287.691 354.596 287.324L353.825 287.962ZM356.295 270.978L355.407 270.518C355.4 270.531 355.394 270.545 355.388 270.558L356.295 270.978ZM357.361 267.288L356.365 267.203L356.365 267.204L357.361 267.288ZM345.708 283.785C345.961 283.294 345.769 282.691 345.278 282.437C344.787 282.184 344.184 282.376 343.931 282.867L345.708 283.785ZM341.915 285.776L342.218 286.729L342.219 286.729L341.915 285.776ZM335.681 282.55L334.728 282.852L334.729 282.854L335.681 282.55ZM336.892 279.225C337.145 278.734 336.953 278.131 336.462 277.877C335.971 277.624 335.368 277.816 335.115 278.307L336.892 279.225ZM382.298 112.833C382.452 112.302 382.146 111.748 381.616 111.594C381.086 111.44 380.531 111.745 380.377 112.275L382.298 112.833ZM373.271 136.747C373.117 137.277 373.422 137.832 373.952 137.986C374.483 138.14 375.038 137.835 375.192 137.305L373.271 136.747ZM389.722 129.284C390.253 129.438 390.808 129.133 390.962 128.603C391.116 128.072 390.81 127.518 390.28 127.364L389.722 129.284ZM365.808 120.258C365.278 120.104 364.723 120.409 364.569 120.939C364.415 121.469 364.72 122.024 365.25 122.178L365.808 120.258ZM227.522 287.241C226.977 287.152 226.462 287.521 226.372 288.066C226.283 288.611 226.652 289.125 227.197 289.215L227.522 287.241ZM260.127 289.82C260.675 289.75 261.063 289.25 260.993 288.702C260.924 288.154 260.423 287.766 259.875 287.836L260.127 289.82ZM299.03 177.955C298.948 177.409 298.439 177.033 297.893 177.115C297.347 177.197 296.97 177.706 297.052 178.252L299.03 177.955ZM291.865 211.021C291.618 211.515 291.818 212.116 292.312 212.363C292.807 212.609 293.407 212.409 293.654 211.915L291.865 211.021ZM169.789 315.286L168.809 315.482L168.81 315.486L169.789 315.286ZM169.433 319.12L168.507 318.742L168.507 318.742L169.433 319.12ZM167.007 322.11L167.566 322.939L167.567 322.938L167.007 322.11ZM163.328 323.248L163.333 324.248L163.335 324.248L163.328 323.248ZM157.179 319.188L156.257 319.576L156.257 319.576L157.179 319.188ZM158.576 311.952L157.865 311.249L157.865 311.249L158.576 311.952ZM161.961 310.118L162.163 311.098L162.168 311.096L161.961 310.118ZM164.552 310.094L164.364 311.076H164.364L164.552 310.094ZM166.953 311.07L166.401 311.904L166.403 311.905L166.953 311.07ZM166.787 294.5L166.104 293.77L166.104 293.77L166.787 294.5ZM175.974 289.98L176.136 290.967L176.136 290.967L175.974 289.98ZM193.816 298.082L192.967 298.609L192.967 298.61L193.816 298.082ZM196.458 307.974L195.459 307.94V307.94L196.458 307.974ZM193.16 317.666L192.347 317.083L192.347 317.083L193.16 317.666ZM174.814 324.554L174.587 325.528L174.814 324.554ZM165.951 319.428L165.221 320.111L165.221 320.111L165.951 319.428ZM161.21 306.79L160.21 306.756V306.756L161.21 306.79ZM192.973 254.754L193.37 255.672L193.371 255.671L192.973 254.754ZM226.761 300.77L225.764 300.694C225.729 301.161 226.022 301.59 226.47 301.727L226.761 300.77ZM258.415 301.074L258.688 302.036C259.067 301.929 259.347 301.609 259.405 301.22L258.415 301.074ZM255.033 211.81L254.191 212.349L254.191 212.349L255.033 211.81ZM198.104 203.069C197.578 203.24 197.291 203.805 197.462 204.33C197.633 204.855 198.198 205.142 198.723 204.971L198.104 203.069ZM111.983 132.582L112.791 131.993C112.495 131.586 111.941 131.463 111.5 131.706C111.059 131.95 110.868 132.483 111.054 132.952L111.983 132.582ZM115.09 143.096C115.294 143.609 115.876 143.859 116.389 143.655C116.902 143.451 117.153 142.869 116.948 142.356L115.09 143.096ZM209.183 56.3499C209.183 60.8645 207.844 65.2775 205.336 69.0314L206.999 70.1425C209.727 66.0599 211.183 61.2602 211.183 56.3499H209.183ZM205.336 69.0314C202.828 72.7851 199.263 75.7108 195.092 77.4384L195.858 79.2862C200.394 77.4071 204.271 74.2251 206.999 70.1425L205.336 69.0314ZM195.092 77.4384C190.921 79.1662 186.332 79.6182 181.904 78.7373L181.514 80.6989C186.33 81.6569 191.321 81.1653 195.858 79.2862L195.092 77.4384ZM181.904 78.7373C177.476 77.8567 173.409 75.6828 170.217 72.4904L168.803 73.9046C172.275 77.3767 176.698 79.7411 181.514 80.6989L181.904 78.7373ZM170.217 72.4904C167.025 69.2981 164.851 65.2309 163.97 60.803L162.008 61.1932C162.966 66.009 165.331 70.4326 168.803 73.9046L170.217 72.4904ZM163.97 60.8031C163.089 56.3752 163.541 51.7857 165.269 47.6148L163.421 46.8495C161.542 51.3858 161.05 56.3774 162.008 61.1932L163.97 60.8031ZM165.269 47.6148C166.996 43.4439 169.922 39.8789 173.676 37.3708L172.565 35.7079C168.482 38.4357 165.3 42.3131 163.421 46.8494L165.269 47.6148ZM173.676 37.3708C177.43 34.8627 181.843 33.5239 186.357 33.5239V31.5239C181.447 31.5239 176.647 32.98 172.565 35.7079L173.676 37.3708ZM186.357 33.5239C192.41 33.5276 198.214 35.9336 202.494 40.2137L203.908 38.7994C199.253 34.1446 192.941 31.5279 186.358 31.5239L186.357 33.5239ZM202.494 40.2135C206.773 44.4936 209.179 50.2978 209.183 56.3506L211.183 56.3493C211.179 49.7665 208.562 43.4542 203.908 38.7995L202.494 40.2135ZM261.831 254.807L281.477 264.725L282.378 262.939L262.732 253.021L261.831 254.807ZM281.478 264.725C285.746 266.874 290.694 267.243 295.234 265.75L294.609 263.85C290.572 265.177 286.172 264.85 282.377 262.939L281.478 264.725ZM295.233 265.75C299.775 264.257 303.538 261.024 305.697 256.76L303.913 255.856C301.993 259.648 298.647 262.523 294.609 263.85L295.233 265.75ZM305.698 256.759L328.194 212.223L326.409 211.321L303.913 255.857L305.698 256.759ZM342.444 184.027L356.314 156.591L354.529 155.689L340.659 183.125L342.444 184.027ZM356.314 156.59C358.464 152.321 358.832 147.374 357.339 142.834L355.439 143.459C356.767 147.496 356.439 151.895 354.528 155.69L356.314 156.59ZM357.339 142.834C355.846 138.294 352.613 134.531 348.349 132.372L347.445 134.156C351.237 136.076 354.112 139.422 355.439 143.459L357.339 142.834ZM348.348 132.371L209.526 62.2364L208.624 64.0215L347.446 134.156L348.348 132.371ZM131.276 154.851L171.552 75.0684L169.766 74.1671L129.491 153.949L131.276 154.851ZM355.908 141.093L239.968 159.789L240.286 161.763L356.226 143.067L355.908 141.093ZM241.016 160.318L198.16 77.0887L196.382 78.0043L239.238 161.234L241.016 160.318ZM175.861 259.587C167.302 268.998 156.936 276.588 145.38 281.903L146.216 283.72C158.016 278.292 168.601 270.542 177.341 260.933L175.861 259.587ZM145.38 281.904C133.823 287.221 121.315 290.156 108.6 290.534L108.66 292.534C121.643 292.147 134.415 289.151 146.216 283.72L145.38 281.904ZM108.6 290.534C95.8851 290.912 83.2244 288.725 71.3727 284.104L70.6461 285.968C82.748 290.686 95.6761 292.919 108.66 292.534L108.6 290.534ZM71.3727 284.104C59.5212 279.483 48.7218 272.522 39.6187 263.638L38.2218 265.07C47.5171 274.141 58.5444 281.249 70.6461 285.968L71.3727 284.104ZM39.6187 263.638C30.5156 254.752 23.2952 244.126 18.3882 232.39L16.543 233.162C21.5536 245.146 28.9265 255.996 38.2217 265.07L39.6187 263.638ZM18.3882 232.39C13.4813 220.654 10.9883 208.049 11.0581 195.329L9.05809 195.318C8.9869 208.307 11.5325 221.178 16.543 233.162L18.3882 232.39ZM11.0581 195.329C11.1278 182.609 13.7588 170.033 18.7941 158.351L16.9574 157.559C11.8158 169.488 9.12929 182.329 9.05809 195.318L11.0581 195.329ZM18.7941 158.351C23.8294 146.67 31.1659 136.122 40.3658 127.337L38.9846 125.891C29.5905 134.861 22.0991 145.631 16.9574 157.559L18.7941 158.351ZM117.019 145.843C116.915 143.044 117.152 140.242 117.726 137.501L115.768 137.091C115.162 139.992 114.91 142.956 115.02 145.917L117.019 145.843ZM116.191 138.127C118.71 139.812 121.137 140.199 123.366 139.496C125.545 138.809 127.365 137.133 128.836 135.034L127.198 133.886C125.86 135.795 124.361 137.086 122.765 137.589C121.219 138.076 119.416 137.878 117.303 136.465L116.191 138.127ZM128.868 134.986C132.573 128.989 134.475 122.053 134.347 115.006L132.347 115.042C132.468 121.706 130.67 128.264 127.167 133.934L128.868 134.986ZM113.178 191.705C116.459 196.468 119.98 201.06 123.728 205.466L125.251 204.17C121.547 199.816 118.067 195.278 114.825 190.571L113.178 191.705ZM124.876 205.74C130.969 203.186 136.582 199.611 141.474 195.17L140.129 193.69C135.406 197.978 129.986 201.43 124.103 203.896L124.876 205.74ZM141.474 195.17C145.089 191.889 148.333 188.219 151.147 184.228L149.512 183.076C146.783 186.947 143.636 190.506 140.129 193.689L141.474 195.17ZM151.124 183.044C144.589 174.5 138.534 165.6 132.986 156.384L131.273 157.416C136.859 166.695 142.956 175.656 149.535 184.259L151.124 183.044ZM132.986 156.385C130.166 151.694 125.933 148.016 120.894 145.879L120.113 147.721C124.763 149.693 128.67 153.086 131.272 157.415L132.986 156.385ZM120.866 145.868C118.636 145.001 116.228 144.693 113.852 144.971L114.083 146.957C116.136 146.718 118.215 146.984 120.141 147.732L120.866 145.868ZM113.714 144.997C112.221 145.388 110.658 145.423 109.149 145.098L108.728 147.053C110.543 147.444 112.425 147.402 114.221 146.931L113.714 144.997ZM109.149 145.098C107.641 144.773 106.23 144.098 105.031 143.127L103.772 144.681C105.215 145.85 106.913 146.662 108.728 147.053L109.149 145.098ZM312.824 183.055C318.021 183.246 328.304 183.208 334.577 183.094L334.541 181.094C328.275 181.208 318.037 181.246 312.898 181.057L312.824 183.055ZM333.638 181.706C329.323 191.959 323.226 201.367 315.629 209.493L317.09 210.859C324.848 202.561 331.075 192.953 335.481 182.482L333.638 181.706ZM316.514 209.188C314.54 208.878 310.404 208.457 308.516 208.342L308.394 210.338C310.231 210.451 314.303 210.866 316.204 211.164L316.514 209.188ZM373.862 183.236C374.914 183.384 375.717 183.571 376.253 183.778C376.521 183.882 376.679 183.974 376.761 184.038C376.844 184.104 376.783 184.087 376.754 183.964L378.697 183.491C378.584 183.028 378.287 182.693 377.995 182.464C377.701 182.234 377.345 182.056 376.974 181.912C376.23 181.625 375.254 181.412 374.14 181.256L373.862 183.236ZM376.754 183.965C376.775 184.05 376.774 184.364 376.282 185.019C375.819 185.637 375.058 186.371 374.017 187.211C371.944 188.885 368.951 190.826 365.557 192.919C358.832 197.066 350.549 201.792 345.405 205.939L346.661 207.496C351.674 203.454 359.762 198.843 366.607 194.621C369.998 192.53 373.09 190.529 375.273 188.767C376.361 187.889 377.272 187.033 377.882 186.219C378.464 185.443 378.939 184.485 378.697 183.491L376.754 183.965ZM345.401 205.943C342.525 208.291 339.309 210.187 335.862 211.565L336.604 213.422C340.241 211.969 343.633 209.969 346.666 207.493L345.401 205.943ZM336.053 211.51C333.601 211.96 331.085 211.913 328.652 211.366L328.214 213.318C330.91 213.923 333.698 213.976 336.414 213.478L336.053 211.51ZM328.832 213.259C332.679 211.588 336.286 209.409 339.556 206.779L338.302 205.221C335.172 207.739 331.719 209.824 328.035 211.425L328.832 213.259ZM339.557 206.778C344.476 202.812 352.037 198.352 359.028 194.115C362.505 192.007 365.836 189.958 368.583 188.072C371.303 186.205 373.553 184.431 374.787 182.865L373.216 181.627C372.19 182.93 370.172 184.555 367.451 186.423C364.756 188.273 361.471 190.296 357.991 192.404C351.069 196.6 343.354 201.148 338.302 205.221L339.557 206.778ZM334.621 183.094C340.266 182.979 348.049 182.723 355.469 182.643C362.906 182.562 369.866 182.66 373.858 183.236L374.144 181.256C369.973 180.654 362.857 180.562 355.447 180.643C348.02 180.724 340.184 180.981 334.581 181.094L334.621 183.094ZM373.218 181.624C372.191 182.919 370.172 184.539 367.449 186.405C364.752 188.253 361.464 190.276 357.982 192.386C351.053 196.585 343.329 201.141 338.262 205.217L339.516 206.775C344.451 202.805 352.022 198.336 359.018 194.096C362.499 191.988 365.831 189.938 368.579 188.055C371.3 186.191 373.551 184.423 374.785 182.867L373.218 181.624ZM338.262 205.217C335.134 207.735 331.684 209.823 328.002 211.425L328.8 213.259C332.646 211.585 336.249 209.405 339.516 206.775L338.262 205.217ZM328.557 211.354C326.772 211.072 324.834 210.696 322.794 210.305C320.762 209.916 318.636 209.514 316.507 209.187L316.204 211.164C318.292 211.484 320.384 211.88 322.418 212.27C324.445 212.658 326.42 213.042 328.245 213.33L328.557 211.354ZM317.085 210.86C324.86 202.566 331.103 192.957 335.523 182.483L333.68 181.705C329.352 191.962 323.239 201.37 315.626 209.492L317.085 210.86ZM255.849 301.47C255.503 307.236 255.849 315.692 256.305 324.307L258.302 324.201C257.845 315.564 257.507 307.223 257.845 301.59L255.849 301.47ZM257.658 323.319C247.252 319.377 237.628 313.622 229.231 306.323L227.919 307.833C236.494 315.286 246.322 321.163 256.949 325.189L257.658 323.319ZM229.568 307.195C229.799 305.233 229.954 303.262 229.993 301.399L227.993 301.357C227.956 303.142 227.807 305.047 227.582 306.961L229.568 307.195ZM257.563 363.519C257.451 364.593 257.3 365.402 257.117 365.945C257.026 366.217 256.941 366.378 256.88 366.463C256.819 366.548 256.825 366.501 256.923 366.469L257.532 368.374C257.974 368.233 258.289 367.931 258.507 367.626C258.724 367.322 258.886 366.96 259.012 366.584C259.266 365.832 259.435 364.851 259.552 363.725L257.563 363.519ZM256.924 366.469C256.852 366.492 256.556 366.519 255.889 366.062C255.26 365.632 254.501 364.905 253.625 363.898C251.878 361.892 249.827 358.965 247.609 355.638C243.214 349.045 238.18 340.897 233.852 335.911L232.342 337.221C236.559 342.081 241.471 350.036 245.945 356.747C248.161 360.072 250.276 363.097 252.116 365.211C253.033 366.264 253.923 367.14 254.759 367.713C255.557 368.259 256.543 368.69 257.531 368.375L256.924 366.469ZM233.847 335.904C231.383 333.111 229.362 329.956 227.856 326.548L226.027 327.356C227.616 330.952 229.748 334.281 232.347 337.228L233.847 335.904ZM227.919 326.74C227.391 324.304 227.353 321.786 227.81 319.335L225.844 318.968C225.338 321.682 225.38 324.468 225.964 327.164L227.919 326.74ZM225.926 319.584C227.74 323.368 230.051 326.893 232.797 330.066L234.309 328.758C231.68 325.719 229.466 322.343 227.729 318.72L225.926 319.584ZM232.797 330.067C236.942 334.85 241.684 342.245 246.175 349.077C248.409 352.475 250.578 355.729 252.559 358.407C254.52 361.059 256.367 363.245 257.962 364.426L259.152 362.818C257.822 361.833 256.13 359.871 254.167 357.218C252.223 354.59 250.082 351.379 247.846 347.978C243.398 341.212 238.564 333.668 234.309 328.757L232.797 330.067ZM256.305 324.273C256.629 329.916 257.169 337.692 257.516 345.106C257.863 352.538 258.009 359.497 257.563 363.505L259.551 363.726C260.017 359.535 259.859 352.417 259.513 345.012C259.166 337.588 258.623 329.764 258.302 324.159L256.305 324.273ZM259.152 362.812C257.822 361.827 256.128 359.865 254.163 357.21C252.217 354.582 250.073 351.37 247.836 347.97C243.385 341.203 238.552 333.662 234.314 328.762L232.801 330.07C236.93 334.844 241.671 342.237 246.165 349.069C248.401 352.467 250.572 355.721 252.555 358.4C254.519 361.053 256.367 363.239 257.962 364.42L259.152 362.812ZM234.314 328.762C231.686 325.721 229.472 322.345 227.733 318.723L225.93 319.589C227.746 323.371 230.057 326.895 232.801 330.07L234.314 328.762ZM227.824 319.28C228.05 317.472 228.351 315.511 228.661 313.457C228.97 311.409 229.285 309.275 229.534 307.148L227.548 306.916C227.303 309.007 226.992 311.111 226.683 313.159C226.375 315.2 226.069 317.192 225.839 319.032L227.824 319.28ZM227.885 307.786C236.466 315.252 246.309 321.132 256.95 325.151L257.657 323.28C247.237 319.344 237.6 313.588 229.198 306.277L227.885 307.786ZM142.68 222.274C134.199 218.108 127.343 210.457 122.54 203.67C117.746 196.897 115.07 191.089 114.919 190.74L113.084 191.536C113.279 191.985 116.019 197.919 120.907 204.826C125.786 211.719 132.876 219.686 141.798 224.069L142.68 222.274ZM126.086 204.4C131.498 210.798 138.362 217.793 145.028 221.432L145.986 219.676C139.665 216.226 133.001 209.478 127.613 203.108L126.086 204.4ZM145.014 221.424C148.512 223.407 152.593 224.105 156.551 223.4L156.2 221.431C152.7 222.055 149.093 221.437 146.001 219.684L145.014 221.424ZM156.573 223.396C164.639 221.769 176.202 217.017 186.689 211.656C191.945 208.97 196.955 206.119 201.15 203.408C205.329 200.708 208.756 198.111 210.799 195.929L209.339 194.562C207.468 196.56 204.21 199.05 200.065 201.728C195.937 204.396 190.987 207.214 185.779 209.875C175.342 215.21 163.972 219.863 156.178 221.436L156.573 223.396ZM210.799 195.929C217.998 188.241 221.354 181.404 222.721 174.005C224.075 166.67 223.46 158.826 222.847 149.24L220.851 149.368C221.47 159.049 222.053 166.606 220.754 173.641C219.467 180.61 216.317 187.11 209.339 194.562L210.799 195.929ZM222.847 149.24C222.721 147.269 222.563 145.771 222.373 144.691C222.278 144.152 222.171 143.693 222.046 143.321C221.931 142.976 221.766 142.595 221.496 142.312C221.35 142.16 221.139 142 220.856 141.925C220.56 141.846 220.274 141.883 220.034 141.982C219.618 142.154 219.35 142.505 219.193 142.746C218.849 143.275 218.533 144.081 218.238 144.996L220.141 145.611C220.433 144.707 220.682 144.125 220.868 143.839C220.977 143.672 220.966 143.761 220.798 143.83C220.682 143.878 220.518 143.904 220.34 143.857C220.176 143.813 220.082 143.728 220.05 143.694C220.008 143.65 220.06 143.687 220.15 143.956C220.231 144.198 220.317 144.551 220.403 145.038C220.575 146.011 220.727 147.425 220.851 149.368L222.847 149.24ZM218.237 144.997C217.343 147.773 216.341 152.488 215.349 157.078C214.345 161.727 213.353 166.241 212.469 168.761L214.357 169.423C215.292 166.755 216.312 162.091 217.304 157.501C218.308 152.852 219.285 148.267 220.141 145.611L218.237 144.997ZM212.462 168.782C212.366 169.079 212.167 169.331 211.902 169.494L212.948 171.198C213.619 170.786 214.121 170.149 214.364 169.401L212.462 168.782ZM211.929 169.478C211.841 169.528 211.792 169.539 211.776 169.541C211.764 169.543 211.764 169.542 211.763 169.541C211.751 169.538 211.645 169.496 211.469 169.262C211.104 168.775 210.744 167.879 210.385 166.647L208.465 167.205C208.825 168.443 209.265 169.657 209.87 170.463C210.179 170.874 210.601 171.275 211.171 171.452C211.778 171.64 212.383 171.522 212.921 171.214L211.929 169.478ZM210.385 166.647C210.016 165.376 209.698 163.886 209.375 162.411C209.058 160.964 208.734 159.511 208.358 158.405L206.464 159.047C206.797 160.027 207.098 161.363 207.421 162.839C207.738 164.286 208.072 165.854 208.465 167.205L210.385 166.647ZM208.359 158.406C208.034 157.445 207.613 156.465 207.136 155.711C206.9 155.336 206.623 154.973 206.302 154.697C205.991 154.429 205.526 154.147 204.946 154.183C204.332 154.22 203.885 154.591 203.59 155.004C203.302 155.407 203.087 155.941 202.916 156.566C202.571 157.824 202.334 159.729 202.232 162.451L204.231 162.525C204.331 159.85 204.562 158.128 204.845 157.094C204.987 156.573 205.126 156.295 205.217 156.167C205.303 156.047 205.262 156.167 205.068 156.179C204.908 156.189 204.875 156.107 204.997 156.212C205.108 156.308 205.263 156.49 205.445 156.778C205.806 157.35 206.167 158.168 206.464 159.046L208.359 158.406ZM202.232 162.451C202.113 165.661 202.05 169.873 201.179 173.789C200.307 177.715 198.671 181.111 195.585 182.903L196.59 184.633C200.396 182.421 202.214 178.35 203.131 174.223C204.051 170.087 204.114 165.66 204.231 162.525L202.232 162.451ZM195.592 182.899C190.273 185.93 184.729 188.551 179.01 190.738L179.725 192.606C185.539 190.383 191.174 187.719 196.583 184.637L195.592 182.899ZM179.003 190.741C173.12 193.044 166.958 194.557 160.678 195.238L160.893 197.226C167.35 196.526 173.685 194.971 179.732 192.603L179.003 190.741ZM160.732 195.233C159.379 195.305 157.601 194.557 155.519 192.877C153.468 191.223 151.267 188.782 149.095 185.767L147.472 186.936C149.708 190.04 152.028 192.631 154.263 194.433C156.464 196.21 158.734 197.342 160.839 197.23L160.732 195.233ZM216.098 162.974L222.482 134.892L220.532 134.448L214.148 162.53L216.098 162.974ZM222.482 134.895C222.684 134.02 222.527 133.103 222.053 132.345L220.357 133.405C220.552 133.716 220.615 134.091 220.533 134.445L222.482 134.895ZM222.052 132.343C221.575 131.585 220.817 131.046 219.945 130.845L219.497 132.795C219.853 132.876 220.163 133.097 220.359 133.407L222.052 132.343ZM219.945 130.845C219.073 130.645 218.155 130.799 217.396 131.276L218.459 132.97C218.768 132.776 219.142 132.713 219.497 132.795L219.945 130.845ZM217.397 131.275C216.635 131.751 216.098 132.51 215.897 133.381L217.846 133.831C217.928 133.472 218.148 133.164 218.457 132.971L217.397 131.275ZM215.896 133.384L208.372 166.482L210.322 166.926L217.846 133.828L215.896 133.384ZM227.196 240.999C230.162 239.725 232.68 238.632 234.458 237.858C235.346 237.471 236.05 237.163 236.531 236.952C236.772 236.847 236.957 236.766 237.082 236.711C237.144 236.683 237.192 236.662 237.224 236.648C237.24 236.641 237.252 236.636 237.26 236.633C237.264 236.631 237.267 236.629 237.269 236.629C237.27 236.628 237.271 236.628 237.271 236.628C237.271 236.627 237.272 236.627 237.272 236.627C237.272 236.627 237.272 236.627 237.272 236.627C237.272 236.627 237.272 236.627 236.869 235.712C236.466 234.797 236.466 234.797 236.466 234.797C236.466 234.797 236.466 234.797 236.466 234.797C236.466 234.797 236.466 234.797 236.466 234.797C236.465 234.797 236.464 234.798 236.463 234.798C236.461 234.799 236.459 234.8 236.455 234.802C236.447 234.805 236.435 234.811 236.419 234.818C236.387 234.831 236.34 234.852 236.278 234.88C236.153 234.934 235.969 235.015 235.728 235.12C235.248 235.331 234.546 235.638 233.659 236.024C231.884 236.798 229.369 237.889 226.407 239.161L227.196 240.999ZM235.945 235.329L226.397 258.357L228.245 259.123L237.793 236.095L235.945 235.329ZM144.883 219.769C137.736 225.485 130.245 230.756 122.449 235.548L123.497 237.252C131.362 232.416 138.922 227.099 146.132 221.331L144.883 219.769ZM123.546 235.58C110.989 226.816 102.269 213.572 99.1807 198.574L97.2218 198.978C100.413 214.476 109.424 228.163 122.401 237.22L123.546 235.58ZM218.402 185.218L236.224 177.656L235.443 175.815L217.621 183.377L218.402 185.218ZM236.222 177.657C240.491 175.853 245.125 175.085 249.746 175.415L249.888 173.42C244.953 173.068 240.003 173.888 235.444 175.815L236.222 177.657ZM249.743 175.415L312.483 180.089L312.632 178.095L249.892 173.421L249.743 175.415ZM311.563 179.199C312.268 185.752 312.566 190.821 311.916 195.666C311.269 200.49 309.674 205.145 306.515 210.83L308.263 211.802C311.517 205.945 313.211 201.053 313.898 195.932C314.582 190.834 314.259 185.562 313.551 178.985L311.563 179.199ZM307.38 210.316L255.014 210.81L255.033 212.81L307.399 212.316L307.38 210.316ZM124.455 104.042C125.337 103.571 125.337 103.57 125.337 103.57C125.337 103.57 125.336 103.569 125.336 103.568C125.335 103.567 125.335 103.566 125.334 103.564C125.332 103.562 125.33 103.558 125.328 103.553C125.323 103.545 125.317 103.533 125.308 103.518C125.292 103.489 125.269 103.448 125.239 103.397C125.179 103.295 125.092 103.152 124.976 102.975C124.746 102.622 124.403 102.133 123.942 101.576C123.021 100.462 121.617 99.0569 119.685 97.9011C115.765 95.5552 109.83 94.3355 101.712 98.2784L102.586 100.077C110.12 96.4183 115.338 97.6307 118.658 99.6173C120.347 100.628 121.584 101.864 122.4 102.85C122.807 103.342 123.106 103.768 123.301 104.067C123.398 104.216 123.469 104.333 123.514 104.41C123.537 104.449 123.553 104.477 123.563 104.495C123.568 104.503 123.571 104.509 123.573 104.512C123.574 104.514 123.574 104.515 123.574 104.515C123.574 104.515 123.574 104.515 123.574 104.514C123.574 104.514 123.574 104.514 123.574 104.514C123.573 104.513 123.573 104.513 124.455 104.042ZM101.712 98.2784C97.5389 100.305 94.657 103.842 92.6758 107.908C90.6968 111.97 89.5882 116.614 88.9813 120.967C88.3735 125.325 88.263 129.435 88.3035 132.451C88.3238 133.961 88.3819 135.2 88.4352 136.064C88.4619 136.496 88.4873 136.835 88.5063 137.066C88.5157 137.182 88.5235 137.271 88.5291 137.332C88.5318 137.363 88.534 137.386 88.5356 137.402C88.5363 137.411 88.5369 137.417 88.5374 137.421C88.5376 137.423 88.5378 137.425 88.5379 137.426C88.5379 137.427 88.538 137.428 88.538 137.428C88.5381 137.428 88.5381 137.429 89.5332 137.33C90.5283 137.231 90.5283 137.231 90.5283 137.231C90.5283 137.231 90.5283 137.231 90.5283 137.231C90.5282 137.23 90.5281 137.229 90.528 137.228C90.5277 137.225 90.5272 137.22 90.5266 137.213C90.5253 137.2 90.5234 137.179 90.5209 137.152C90.5159 137.097 90.5086 137.013 90.4996 136.904C90.4817 136.684 90.4572 136.359 90.4314 135.941C90.3798 135.104 90.3231 133.898 90.3033 132.424C90.2637 129.475 90.3724 125.472 90.9621 121.243C91.5527 117.008 92.6199 112.589 94.4737 108.784C96.3255 104.984 98.9336 101.851 102.586 100.077L101.712 98.2784ZM89.5332 137.33C89.1019 136.428 89.1016 136.428 89.1013 136.428C89.1012 136.428 89.1008 136.428 89.1005 136.428C89.0998 136.429 89.0989 136.429 89.0978 136.43C89.0956 136.431 89.0925 136.432 89.0886 136.434C89.0808 136.438 89.0697 136.443 89.0553 136.45C89.0266 136.464 88.9849 136.485 88.9308 136.512C88.8225 136.565 88.6648 136.645 88.4625 136.749C88.058 136.958 87.475 137.267 86.7538 137.673C85.3118 138.484 83.3137 139.682 81.0809 141.235C76.6278 144.333 71.183 148.884 67.379 154.638L69.0474 155.741C72.6534 150.286 77.8686 145.907 82.2231 142.877C84.394 141.367 86.3365 140.202 87.7342 139.416C88.4328 139.023 88.9945 138.725 89.3796 138.526C89.5721 138.427 89.7205 138.352 89.8196 138.303C89.8692 138.279 89.9065 138.26 89.9308 138.248C89.943 138.243 89.952 138.238 89.9576 138.235C89.9604 138.234 89.9624 138.233 89.9636 138.233C89.9642 138.232 89.9645 138.232 89.9647 138.232C89.9648 138.232 89.9647 138.232 89.9648 138.232C89.9647 138.232 89.9645 138.232 89.5332 137.33ZM67.3789 154.639C61.4857 163.556 59.9629 174.839 64.6315 183.951C69.3261 193.114 80.1147 199.776 98.2012 199.776V197.776C80.6018 197.776 70.6584 191.328 66.4114 183.039C62.1386 174.7 63.4647 164.189 69.0475 155.741L67.3789 154.639ZM99.1764 198.554C97.4969 191.165 96.9155 183.568 97.4507 176.009L95.4557 175.867C94.9066 183.622 95.5031 191.416 97.2261 198.998L99.1764 198.554ZM97.4508 176.008C98.3892 162.683 103.228 150.49 107.583 137.768L105.691 137.12C101.383 149.706 96.4173 162.213 95.4557 175.868L97.4508 176.008ZM107.585 137.764C108.57 134.846 110.937 127.67 111.745 124.668L109.814 124.148C109.025 127.078 106.68 134.19 105.69 137.124L107.585 137.764ZM111.747 124.66C112.487 121.818 112.806 119.969 113.859 116.698L111.955 116.085C110.881 119.422 110.515 121.454 109.812 124.156L111.747 124.66ZM113.596 115.667C111.634 113.803 111.969 111.993 112.697 111.117C113.087 110.648 113.575 110.439 113.991 110.459C114.371 110.478 114.901 110.698 115.386 111.534L117.116 110.53C116.367 109.239 115.286 108.52 114.088 108.461C112.928 108.405 111.871 108.983 111.159 109.839C109.683 111.614 109.58 114.611 112.218 117.117L113.596 115.667ZM115.396 111.55C115.936 112.441 116.35 113.03 116.869 113.411C117.375 113.782 117.972 113.919 118.434 114.072L119.061 112.172C118.329 111.931 118.222 111.923 118.052 111.798C117.893 111.681 117.657 111.423 117.107 110.514L115.396 111.55ZM118.435 114.072C119.946 114.569 122.736 115.381 125.913 115.843C129.072 116.302 132.714 116.43 135.881 115.48L135.306 113.564C132.547 114.392 129.243 114.306 126.2 113.864C123.175 113.424 120.504 112.647 119.06 112.172L118.435 114.072ZM134.761 113.967C135.776 113.539 136.582 114.376 136.591 114.449C136.592 114.469 136.593 114.497 136.593 114.506C136.593 114.518 136.593 114.528 136.593 114.528C136.593 114.532 136.593 114.534 136.593 114.53C136.593 114.526 136.593 114.517 136.594 114.505C136.594 114.481 136.594 114.446 136.594 114.402C136.594 114.313 136.592 114.188 136.585 114.03C136.571 113.715 136.538 113.271 136.46 112.741C136.304 111.686 135.967 110.263 135.23 108.828C134.49 107.386 133.344 105.926 131.58 104.831C129.814 103.735 127.49 103.042 124.455 103.042V105.042C127.177 105.042 129.124 105.66 130.525 106.53C131.928 107.401 132.846 108.562 133.451 109.741C134.059 110.926 134.347 112.124 134.481 113.033C134.548 113.485 134.575 113.86 134.587 114.117C134.592 114.245 134.594 114.344 134.594 114.408C134.594 114.441 134.594 114.464 134.594 114.48C134.594 114.488 134.593 114.493 134.593 114.499C134.593 114.5 134.593 114.506 134.593 114.512C134.593 114.513 134.593 114.524 134.593 114.537C134.593 114.546 134.595 114.575 134.596 114.595C134.604 114.668 135.411 115.505 136.425 115.077L134.761 113.967ZM49.007 109.675C35.4661 116.207 22.7258 124.282 11.0402 133.741L12.2985 135.295C23.8642 125.934 36.4739 117.941 49.8759 111.477L49.007 109.675ZM11.141 133.669C10.6767 133.958 10.2892 134.355 10.0119 134.827L11.736 135.84C11.8493 135.648 12.0077 135.485 12.1977 135.367L11.141 133.669ZM10.0119 134.827C9.7346 135.298 9.57592 135.83 9.5494 136.377L11.547 136.474C11.5579 136.25 11.6227 136.033 11.736 135.84L10.0119 134.827ZM9.5494 136.377C9.52285 136.923 9.62929 137.468 9.85963 137.964L11.6737 137.122C11.5797 136.92 11.5362 136.697 11.547 136.474L9.5494 136.377ZM9.85954 137.964C10.0898 138.46 10.437 138.893 10.8715 139.226L12.0872 137.638C11.9098 137.502 11.7679 137.325 11.6738 137.122L9.85954 137.964ZM10.8576 139.215L19.5217 146.093L20.7652 144.527L12.1011 137.649L10.8576 139.215ZM20.9387 145.916C26.1068 139.138 33.1252 133.394 40.3069 127.357L39.02 125.826C31.8977 131.813 24.68 137.71 19.3482 144.704L20.9387 145.916ZM38.8722 125.98C33.3288 133.151 28.4739 140.829 24.3717 148.911L26.1551 149.817C30.2005 141.846 34.988 134.275 40.4546 127.204L38.8722 125.98ZM24.6425 150.148L33.9645 157.532L35.2063 155.964L25.8843 148.58L24.6425 150.148ZM33.9637 157.531C34.39 157.87 34.8913 158.101 35.4254 158.205L35.8086 156.242C35.5887 156.199 35.3825 156.104 35.2072 155.965L33.9637 157.531ZM35.4254 158.205C35.9596 158.309 36.5107 158.284 37.0328 158.131L36.4704 156.211C36.2553 156.274 36.0285 156.285 35.8086 156.242L35.4254 158.205ZM37.0328 158.131C37.5548 157.978 38.0328 157.702 38.4263 157.326L37.0442 155.88C36.8825 156.035 36.6857 156.148 36.4704 156.211L37.0328 158.131ZM38.4263 157.326C38.8193 156.95 39.1168 156.485 39.2934 155.97L37.4015 155.322C37.3288 155.533 37.2063 155.725 37.0442 155.88L38.4263 157.326ZM39.2921 155.974L53.9581 113.728L52.0687 113.072L37.4027 155.318L39.2921 155.974ZM53.9539 113.74C54.1963 113.069 54.2218 112.339 54.0267 111.653L52.103 112.2C52.1834 112.483 52.1729 112.784 52.073 113.06L53.9539 113.74ZM54.0266 111.652C53.8311 110.966 53.4249 110.359 52.8651 109.916L51.6249 111.485C51.8551 111.667 52.0225 111.918 52.1031 112.2L54.0266 111.652ZM52.8652 109.916C52.3054 109.474 51.6206 109.219 50.9077 109.187L50.8187 111.185C51.1122 111.198 51.3942 111.303 51.6249 111.485L52.8652 109.916ZM50.9077 109.187C50.1952 109.155 49.4902 109.348 48.8933 109.74L49.9895 111.412C50.235 111.251 50.5253 111.172 50.8187 111.185L50.9077 109.187ZM307.531 37.2547C303.436 35.2165 299.054 35.6358 295.846 37.6829C292.627 39.7368 290.604 43.4295 291.277 47.8021L293.254 47.4978C292.711 43.9704 294.317 41.0311 296.921 39.3689C299.537 37.7001 303.172 37.3194 306.64 39.0452L307.531 37.2547ZM291.587 46.9155L288.053 50.1815L289.41 51.6503L292.944 48.3843L291.587 46.9155ZM288.653 51.9129L293.517 52.2929L293.673 50.299L288.809 49.919L288.653 51.9129ZM292.735 51.8051C295.074 55.759 299.207 57.8081 303.228 57.9061C307.252 58.0043 311.272 56.1417 313.262 52.161L311.473 51.2668C309.891 54.4321 306.672 55.9896 303.276 55.9067C299.877 55.8238 296.411 54.0908 294.456 50.7867L292.735 51.8051ZM313.284 52.1142C314.482 49.3716 314.543 46.2667 313.457 43.4788L311.593 44.2047C312.488 46.5003 312.437 49.0563 311.451 51.3136L313.284 52.1142ZM313.457 43.4788C312.371 40.6907 310.226 38.446 307.49 37.2355L306.681 39.0644C308.933 40.061 310.699 41.9091 311.593 44.2047L313.457 43.4788ZM352.537 256.826C351.272 256.171 349.891 255.773 348.474 255.652L348.304 257.644C349.46 257.743 350.586 258.068 351.618 258.602L352.537 256.826ZM348.474 255.652C347.056 255.53 345.626 255.689 344.268 256.121L344.874 258.027C345.98 257.675 347.147 257.545 348.304 257.644L348.474 255.652ZM344.268 256.121C342.913 256.553 341.653 257.247 340.565 258.166L341.857 259.693C342.742 258.945 343.769 258.379 344.875 258.027L344.268 256.121ZM340.566 258.166C339.478 259.084 338.581 260.208 337.927 261.472L339.703 262.391C340.237 261.36 340.969 260.443 341.856 259.694L340.566 258.166ZM338.815 261.932C337.925 261.476 337.925 261.476 337.925 261.476C337.925 261.476 337.925 261.476 337.925 261.476C337.925 261.476 337.925 261.477 337.925 261.477C337.924 261.478 337.923 261.48 337.922 261.483C337.919 261.488 337.915 261.496 337.909 261.507C337.898 261.529 337.88 261.562 337.857 261.607C337.811 261.695 337.741 261.825 337.65 261.992C337.469 262.326 337.202 262.805 336.865 263.38C336.19 264.53 335.238 266.054 334.125 267.561C333.007 269.075 331.755 270.534 330.484 271.582C329.186 272.652 328.028 273.162 327.068 273.094L326.927 275.089C328.664 275.212 330.332 274.299 331.756 273.125C333.207 271.928 334.572 270.323 335.734 268.749C336.902 267.168 337.892 265.581 338.59 264.392C338.939 263.796 339.217 263.298 339.407 262.948C339.503 262.773 339.576 262.634 339.626 262.539C339.652 262.491 339.671 262.454 339.684 262.429C339.691 262.416 339.696 262.406 339.699 262.399C339.701 262.396 339.703 262.393 339.704 262.391C339.704 262.39 339.704 262.389 339.705 262.389C339.705 262.389 339.705 262.388 339.705 262.388C339.705 262.388 339.705 262.388 338.815 261.932ZM326.538 274.98L353.366 288.85L354.284 287.074L327.456 273.204L326.538 274.98ZM354.596 287.324C353.97 286.568 353.685 285.295 353.752 283.584C353.817 281.907 354.211 280 354.726 278.174C355.239 276.355 355.859 274.658 356.353 273.412C356.599 272.791 356.813 272.284 356.965 271.934C357.041 271.759 357.101 271.624 357.142 271.532C357.162 271.487 357.178 271.452 357.188 271.43C357.193 271.419 357.197 271.41 357.2 271.405C357.201 271.402 357.202 271.4 357.202 271.399C357.202 271.399 357.203 271.398 357.203 271.398C357.203 271.398 357.203 271.398 357.203 271.398C357.203 271.398 357.203 271.398 356.295 270.978C355.388 270.558 355.388 270.558 355.388 270.558C355.387 270.558 355.387 270.559 355.387 270.559C355.387 270.56 355.387 270.56 355.386 270.561C355.385 270.563 355.384 270.566 355.382 270.57C355.379 270.577 355.374 270.587 355.369 270.6C355.357 270.626 355.339 270.664 355.317 270.713C355.273 270.812 355.209 270.955 355.13 271.138C354.971 271.505 354.749 272.031 354.493 272.675C353.984 273.961 353.338 275.726 352.801 277.631C352.266 279.528 351.827 281.606 351.753 283.506C351.681 285.37 351.951 287.266 353.055 288.599L354.596 287.324ZM357.183 271.437C357.837 270.174 358.239 268.792 358.358 267.371L356.365 267.204C356.268 268.36 355.941 269.486 355.407 270.518L357.183 271.437ZM358.358 267.373C358.479 265.955 358.32 264.527 357.888 263.169L355.982 263.775C356.334 264.881 356.464 266.045 356.365 267.203L358.358 267.373ZM357.888 263.169C357.456 261.812 356.762 260.554 355.843 259.465L354.315 260.755C355.064 261.642 355.63 262.668 355.982 263.775L357.888 263.169ZM355.843 259.465C354.925 258.377 353.801 257.48 352.537 256.826L351.618 258.602C352.649 259.136 353.566 259.867 354.315 260.755L355.843 259.465ZM343.931 282.867C343.449 283.8 342.614 284.503 341.611 284.823L342.219 286.729C343.724 286.248 344.981 285.192 345.708 283.785L343.931 282.867ZM341.613 284.823C340.611 285.141 339.525 285.048 338.59 284.565L337.673 286.343C339.077 287.068 340.711 287.207 342.218 286.729L341.613 284.823ZM338.59 284.565C337.657 284.084 336.954 283.249 336.634 282.246L334.729 282.854C335.209 284.359 336.265 285.616 337.673 286.343L338.59 284.565ZM336.634 282.247C336.317 281.246 336.409 280.16 336.892 279.225L335.115 278.307C334.389 279.712 334.25 281.346 334.728 282.852L336.634 282.247ZM380.377 112.275L373.271 136.747L375.192 137.305L382.298 112.833L380.377 112.275ZM390.28 127.364L365.808 120.258L365.25 122.178L389.722 129.284L390.28 127.364ZM227.197 289.215C238.086 291.006 249.179 291.21 260.127 289.82L259.875 287.836C249.119 289.202 238.22 289.001 227.522 287.241L227.197 289.215ZM297.052 178.252C298.734 189.449 296.923 200.891 291.865 211.021L293.654 211.915C298.896 201.417 300.773 189.559 299.03 177.955L297.052 178.252ZM168.81 315.486C169.033 316.579 168.928 317.711 168.507 318.742L170.359 319.498C170.929 318.1 171.072 316.565 170.769 315.086L168.81 315.486ZM168.507 318.742C168.086 319.773 167.369 320.656 166.446 321.282L167.567 322.938C168.817 322.091 169.789 320.895 170.359 319.498L168.507 318.742ZM166.447 321.281C165.524 321.905 164.437 322.241 163.322 322.248L163.335 324.248C164.843 324.239 166.316 323.783 167.566 322.939L166.447 321.281ZM163.324 322.248C162.209 322.253 161.118 321.928 160.189 321.315L159.087 322.985C160.347 323.815 161.824 324.255 163.333 324.248L163.324 322.248ZM160.189 321.315C159.26 320.702 158.533 319.826 158.101 318.8L156.257 319.576C156.843 320.966 157.827 322.153 159.087 322.985L160.189 321.315ZM158.101 318.8C157.669 317.772 157.551 316.641 157.762 315.547L155.798 315.168C155.512 316.651 155.672 318.183 156.257 319.576L158.101 318.8ZM157.762 315.547C157.973 314.453 158.504 313.446 159.287 312.655L157.865 311.249C156.804 312.322 156.084 313.686 155.798 315.168L157.762 315.547ZM159.287 312.655C160.07 311.864 161.071 311.322 162.163 311.098L161.76 309.138C160.282 309.442 158.927 310.176 157.865 311.249L159.287 312.655ZM162.168 311.096C162.891 310.944 163.638 310.937 164.364 311.076L164.74 309.112C163.753 308.923 162.739 308.932 161.755 309.139L162.168 311.096ZM164.364 311.076C165.093 311.216 165.785 311.496 166.401 311.904L167.505 310.236C166.665 309.68 165.726 309.3 164.74 309.112L164.364 311.076ZM166.403 311.905C167.02 312.312 167.551 312.838 167.964 313.452L169.623 312.336C169.063 311.502 168.342 310.788 167.504 310.235L166.403 311.905ZM167.964 313.452C168.377 314.066 168.664 314.755 168.809 315.482L170.77 315.09C170.573 314.104 170.184 313.169 169.623 312.336L167.964 313.452ZM167.47 295.23C169.874 292.983 172.889 291.499 176.136 290.967L175.812 288.993C172.175 289.589 168.796 291.253 166.104 293.77L167.47 295.23ZM176.136 290.967C179.383 290.433 182.715 290.874 185.711 292.234L186.537 290.413C183.181 288.89 179.449 288.395 175.812 288.993L176.136 290.967ZM185.711 292.234C188.706 293.595 191.232 295.813 192.967 298.609L194.666 297.555C192.722 294.423 189.894 291.937 186.537 290.413L185.711 292.234ZM192.967 298.61C194.702 301.403 195.569 304.652 195.459 307.94L197.458 308.007C197.581 304.324 196.61 300.685 194.666 297.554L192.967 298.61ZM195.459 307.94C195.349 311.229 194.266 314.409 192.347 317.083L193.972 318.249C196.121 315.254 197.334 311.691 197.458 308.007L195.459 307.94ZM192.347 317.083C190.429 319.756 187.761 321.799 184.68 322.956L185.383 324.828C188.834 323.533 191.823 321.244 193.972 318.249L192.347 317.083ZM184.68 322.956C181.6 324.112 178.246 324.329 175.042 323.58L174.587 325.528C178.176 326.367 181.933 326.124 185.383 324.828L184.68 322.956ZM175.042 323.58C171.839 322.831 168.929 321.148 166.682 318.745L165.221 320.111C167.738 322.803 170.998 324.689 174.587 325.528L175.042 323.58ZM166.682 318.745C163.67 315.521 162.061 311.234 162.209 306.823L160.21 306.756C160.044 311.697 161.847 316.499 165.221 320.111L166.682 318.745ZM162.209 306.823C162.357 302.414 164.249 298.245 167.471 295.23L166.104 293.77C162.496 297.147 160.376 301.817 160.21 306.756L162.209 306.823ZM122.973 236.4C122.03 236.731 122.03 236.732 122.03 236.733C122.03 236.733 122.031 236.734 122.031 236.736C122.032 236.738 122.033 236.74 122.034 236.744C122.037 236.751 122.04 236.76 122.044 236.772C122.053 236.795 122.065 236.829 122.081 236.872C122.114 236.958 122.161 237.082 122.225 237.241C122.353 237.559 122.546 238.017 122.81 238.588C123.339 239.728 124.153 241.322 125.304 243.155C127.605 246.819 131.266 251.459 136.7 255.34C147.636 263.149 165.517 267.718 193.37 255.672L192.576 253.836C165.249 265.654 148.131 261.045 137.862 253.712C132.693 250.021 129.2 245.598 126.998 242.092C125.898 240.34 125.123 238.822 124.625 237.747C124.376 237.21 124.197 236.784 124.081 236.495C124.023 236.351 123.981 236.241 123.954 236.169C123.94 236.133 123.93 236.106 123.924 236.089C123.921 236.081 123.919 236.075 123.918 236.071C123.917 236.07 123.917 236.069 123.917 236.068C123.916 236.068 123.917 236.068 123.917 236.068C123.917 236.068 123.917 236.069 122.973 236.4ZM193.371 255.671L227.199 240.997L226.403 239.163L192.575 253.837L193.371 255.671ZM225.802 240.106C226.222 256.097 227.103 283.05 225.764 300.694L227.758 300.846C229.107 283.073 228.22 255.99 227.801 240.054L225.802 240.106ZM226.47 301.727C236.958 304.92 248.141 305.028 258.688 302.036L258.142 300.112C247.965 302.999 237.173 302.895 227.053 299.813L226.47 301.727ZM259.405 301.22C261.48 287.128 263.322 268.948 263.3 252.177C263.288 243.791 262.811 235.736 261.656 228.708C260.504 221.697 258.664 215.626 255.875 211.271L254.191 212.349C256.765 216.37 258.548 222.13 259.682 229.032C260.814 235.918 261.289 243.858 261.3 252.18C261.322 268.822 259.492 286.898 257.426 300.928L259.405 301.22ZM255.875 211.271C248.603 199.911 233.903 198.009 221.451 198.777C215.171 199.164 209.34 200.237 205.083 201.21C202.953 201.697 201.213 202.16 200.004 202.502C199.399 202.673 198.927 202.814 198.604 202.913C198.443 202.962 198.319 203.001 198.235 203.027C198.193 203.04 198.161 203.051 198.139 203.058C198.128 203.061 198.119 203.064 198.113 203.066C198.11 203.067 198.108 203.068 198.107 203.068C198.106 203.068 198.105 203.069 198.105 203.069C198.104 203.069 198.104 203.069 198.413 204.02C198.723 204.971 198.723 204.971 198.723 204.971C198.723 204.971 198.723 204.971 198.724 204.97C198.725 204.97 198.726 204.97 198.729 204.969C198.733 204.967 198.74 204.965 198.75 204.962C198.769 204.956 198.798 204.947 198.837 204.934C198.916 204.909 199.034 204.873 199.189 204.825C199.499 204.731 199.958 204.594 200.548 204.427C201.73 204.092 203.436 203.638 205.529 203.16C209.717 202.202 215.436 201.152 221.574 200.773C233.958 200.01 247.568 202.003 254.191 212.349L255.875 211.271ZM117.328 136.482C115.584 135.239 114.052 133.723 112.791 131.993L111.175 133.171C112.563 135.075 114.248 136.743 116.167 138.11L117.328 136.482ZM111.054 132.952L115.09 143.096L116.948 142.356L112.912 132.212L111.054 132.952Z" fill="#596A8C"/>
</svg>
