<svg width="562" height="562" viewBox="0 0 562 562" fill="none" xmlns="http://www.w3.org/2000/svg">
<path d="M129.784 380.251L108.079 381.734C109.065 381.7 110.03 382.04 110.779 382.687C120.099 390.683 80.5459 457.713 67.3633 455.384C66.6787 455.127 66.0362 454.77 65.457 454.324C72.536 461.403 90.0162 445.866 97.0618 437.073C106.17 425.741 119.408 420.66 132.429 418.807C136.281 408.297 134.962 389.239 129.784 380.251Z" fill="#3C50E0"/>
<path d="M451.821 541.159C442.29 533.166 428.313 523.323 415.816 519.663L409.771 507.696C400.036 512.746 389.177 515.24 378.214 514.942L381.073 519.655C378.851 525.962 377.446 532.528 376.893 539.192C376.799 540.391 377.081 541.59 377.699 542.621C378.317 543.653 379.241 544.467 380.343 544.95C381.073 545.273 381.865 545.438 382.662 545.44C404.32 545.493 423.221 545.705 450.107 545.758C450.507 545.76 450.902 545.67 451.261 545.495C451.621 545.32 451.935 545.065 452.18 544.749C452.426 544.434 452.595 544.066 452.676 543.675C452.757 543.283 452.747 542.879 452.646 542.492C452.515 541.973 452.227 541.508 451.821 541.159Z" fill="#3C50E0"/>
<path d="M187.082 218.867C187.641 217.68 188.568 216.706 189.725 216.089C190.883 215.471 192.208 215.244 193.505 215.44C194.802 215.637 196 216.246 196.923 217.178C197.846 218.11 198.443 219.315 198.626 220.614C194.646 220.085 190.78 219.502 187.082 218.867Z" stroke="#120071" stroke-width="2.80102" stroke-linecap="round" stroke-linejoin="round"/>
<path fill-rule="evenodd" clip-rule="evenodd" d="M231.123 209.864C231.126 207.903 230.741 205.96 229.992 204.147C229.242 202.334 228.142 200.687 226.755 199.301C225.368 197.914 223.721 196.814 221.908 196.065C220.095 195.316 218.152 194.931 216.191 194.934H109.512C107.551 194.932 105.608 195.316 103.796 196.066C101.983 196.815 100.336 197.915 98.9492 199.302C97.5623 200.688 96.4627 202.335 95.7133 204.148C94.9639 205.96 94.5795 207.903 94.582 209.864V270.596C94.5795 272.558 94.9639 274.5 95.7133 276.313C96.4627 278.125 97.5623 279.772 98.9492 281.159C100.336 282.546 101.983 283.646 103.796 284.395C105.608 285.144 107.551 285.529 109.512 285.526H216.199C220.159 285.527 223.957 283.955 226.759 281.156C228.144 279.769 229.243 278.122 229.992 276.31C230.741 274.498 231.125 272.557 231.123 270.596V260.541C218.944 260.75 206.765 260.078 194.689 258.537L198.465 265.089H127.04L149.436 226.277C145.222 224.975 140.965 223.812 136.674 222.791C130.169 221.227 131.226 219.786 132.279 219.56C136.123 219.014 140.023 218.978 143.876 219.454L143.675 219.279C142.948 218.649 142.223 218.022 141.546 217.389C134.578 210.873 135.052 208.192 145.576 213.788C148.364 215.36 151.219 216.807 154.135 218.125L155.735 215.372L158.26 219.797C163.82 221.915 170.199 223.833 176.08 224.875C177.392 222.311 178.992 219.904 180.848 217.701C183.031 218.114 184.714 218.429 186.902 218.8C187.46 217.611 188.386 216.635 189.544 216.017C190.701 215.398 192.028 215.17 193.326 215.366C194.623 215.563 195.823 216.173 196.746 217.107C197.668 218.04 198.265 219.247 198.446 220.547C209.287 221.999 220.19 222.916 231.123 223.284V209.864Z" fill="#3C50E0"/>
<path fill-rule="evenodd" clip-rule="evenodd" d="M508.205 138.489C508.21 135.534 507.336 132.645 505.695 130.188C504.054 127.731 501.72 125.818 498.989 124.691C497.176 123.941 495.234 123.556 493.273 123.559H386.594C384.632 123.555 382.689 123.939 380.876 124.688C379.063 125.437 377.416 126.537 376.029 127.924C374.642 129.311 373.542 130.958 372.793 132.771C372.044 134.584 371.66 136.527 371.664 138.489V207.721C380.346 209.547 386.589 210.335 387.43 210.023C404.846 203.569 420.629 192.763 436.618 178.89C438.39 179.307 440.093 179.974 441.677 180.871C446.707 177.111 454.31 169.411 456.005 165.76C457.261 162.379 459.23 159.309 461.779 156.758H462.615C464.313 157.817 462.351 166.607 461.451 170.261C466.763 166.634 471.359 162.056 475.007 156.758C477.125 153.898 479.508 150.88 480.673 151.568C482.314 152.536 481.116 157.003 480.511 158.837C479.435 162.05 477.847 165.067 475.806 167.772C478.097 170.57 476.963 175.567 474.803 178.162C477.498 179.277 476.492 183.823 473.875 186.911C476.283 186.827 476.935 191.367 474.218 193.981L474.193 193.998C472.936 194.918 470.584 196.646 458.022 205.525C458.385 207.615 458.491 209.497 458.435 211.57C450.308 218.432 441.721 224.482 432.8 230.003H493.284C495.245 230.005 497.187 229.62 498.998 228.869C500.81 228.119 502.456 227.019 503.842 225.632C505.228 224.245 506.327 222.598 507.076 220.786C507.825 218.974 508.208 217.031 508.205 215.071V138.489Z" fill="#3C50E0"/>
<path d="M440.961 224.702C438.869 226.118 436.75 227.495 434.607 228.833C434.376 229.881 434.463 230.975 434.855 231.975C435.247 232.974 435.927 233.835 436.809 234.447C437.692 235.059 438.736 235.396 439.81 235.413C440.883 235.431 441.938 235.129 442.84 234.546C443.741 233.96 444.448 233.119 444.869 232.13C445.291 231.141 445.408 230.049 445.207 228.993C445.005 227.937 444.494 226.965 443.738 226.201C442.982 225.437 442.015 224.915 440.961 224.702Z" fill="#9D8EFB"/>
<path d="M168.234 285.526C168.236 286.596 167.92 287.641 167.326 288.53C166.732 289.42 165.887 290.112 164.898 290.521C164.16 290.828 163.363 290.968 162.564 290.929C161.765 290.89 160.985 290.674 160.28 290.297C159.575 289.919 158.962 289.39 158.487 288.746C158.012 288.103 157.686 287.362 157.532 286.577C157.377 285.793 157.398 284.984 157.593 284.209C157.789 283.434 158.154 282.712 158.662 282.095C159.17 281.478 159.809 280.982 160.532 280.641C161.255 280.301 162.045 280.126 162.844 280.128C164.272 280.137 165.639 280.709 166.648 281.72C167.657 282.731 168.227 284.098 168.234 285.526Z" fill="#9D8EFB"/>
<path d="M194.701 258.576C187.929 257.726 181.199 256.578 174.529 255.134C173.46 251.763 172.75 248.289 172.411 244.769C167.421 243.555 162.3 242.968 157.166 243.021C145.778 243.339 149.641 240.374 153.562 239.05C157.901 237.62 168.439 235.396 164.468 232.431C161.926 231.213 160.008 230.201 158.537 229.365C155.56 228.179 152.52 227.155 149.432 226.299L127.035 265.089H198.461L194.701 258.576Z" fill="#9D8EFB"/>
<path d="M389.816 141.56V156.758H474.904C477.022 153.899 479.388 150.905 480.57 151.569C481.459 152.067 481.685 154.004 481.046 156.758H489.993V141.56H389.816Z" fill="#9D8EFB"/>
<path d="M309.436 172.323L309.277 172.482L312.455 178.892C317.962 177.516 322.036 175.397 322.357 171.367C321.632 175.024 313.059 173.257 309.436 172.323Z" fill="#9D8EFB"/>
<path d="M333.268 240.31L332.95 244.599L323.195 236.603C326.501 237.975 329.861 239.211 333.268 240.31Z" fill="#9D8EFB"/>
<path d="M268.039 249.047C269.572 248.041 271.216 246.929 272.961 245.658L274.02 229.984L268.039 249.047Z" fill="#9D8EFB"/>
<path d="M284.823 330.534C282.326 326.261 280.537 321.611 279.527 316.766L286.358 353.936C288.053 350.759 289.703 347.526 291.283 344.182L284.823 330.534Z" fill="#9D8EFB"/>
<path d="M277.886 254.604C271.37 252.277 270.682 249.1 276.93 246.611L277.886 254.604Z" fill="#9D8EFB"/>
<path d="M328.347 246.664L327.023 254.71C330.465 253.492 332.531 252.01 332.531 250.424C332.531 249.047 331.048 247.776 328.347 246.664Z" fill="#9D8EFB"/>
<path d="M129.787 380.251L119.781 380.887C122.376 374.797 126.453 374.426 129.787 380.251Z" fill="#9D8EFB"/>
<path d="M132.434 418.798C130.051 425.15 126.082 426.474 122.484 420.914C125.75 419.987 129.074 419.28 132.434 418.798Z" fill="#9D8EFB"/>
<path d="M67.419 455.384C62.0457 453.171 64.0468 444.116 67.2017 435.875C72.8314 421.148 85.2448 400.499 96.1169 389.421C104.213 381.168 112.878 378.225 112.162 388.089C110.86 406.062 78.9879 457.418 67.419 455.384Z" fill="#9D8EFB"/>
<path d="M311.137 144.949C310.853 143.5 310.124 142.175 309.052 141.159C307.979 140.143 306.616 139.488 305.153 139.283C305.491 138.09 305.51 136.83 305.207 135.627C304.904 134.425 304.291 133.323 303.428 132.433C302.564 131.543 301.481 130.896 300.288 130.557C299.095 130.218 297.834 130.199 296.631 130.501C296.487 129.24 296.007 128.041 295.242 127.028C294.477 126.015 293.454 125.226 292.28 124.743C291.106 124.26 289.823 124.103 288.567 124.287C287.31 124.47 286.127 124.989 285.14 125.789C284.706 124.922 284.099 124.155 283.356 123.533C282.613 122.912 281.75 122.45 280.82 122.176C279.891 121.902 278.915 121.823 277.954 121.942C276.993 122.062 276.066 122.378 275.232 122.871C274.117 123.531 273.206 124.487 272.598 125.63C271.637 124.8 270.469 124.245 269.218 124.025C267.967 123.804 266.68 123.925 265.493 124.375C264.305 124.825 263.261 125.588 262.471 126.582C261.681 127.577 261.174 128.766 261.004 130.025C259.811 129.684 258.548 129.663 257.344 129.966C256.139 130.268 255.036 130.882 254.145 131.747C253.253 132.611 252.606 133.695 252.267 134.889C251.928 136.084 251.91 137.347 252.214 138.55C250.956 138.699 249.761 139.181 248.752 139.947C247.743 140.713 246.958 141.735 246.477 142.907C245.996 144.079 245.838 145.359 246.018 146.612C246.198 147.866 246.71 149.049 247.501 150.038C246.341 150.616 245.363 151.503 244.673 152.6C243.984 153.698 243.611 154.965 243.594 156.261C243.578 157.557 243.919 158.832 244.58 159.947C245.242 161.062 246.197 161.973 247.342 162.58C246.501 163.538 245.935 164.706 245.705 165.96C245.474 167.214 245.588 168.506 246.033 169.701C246.478 170.895 247.239 171.947 248.234 172.744C249.229 173.541 250.422 174.053 251.685 174.227C251.344 175.421 251.323 176.683 251.625 177.888C251.928 179.092 252.542 180.195 253.406 181.086C254.271 181.978 255.355 182.625 256.549 182.964C257.744 183.303 259.006 183.322 260.21 183.017C260.352 184.279 260.83 185.479 261.595 186.492C262.36 187.506 263.383 188.295 264.558 188.776C265.733 189.258 267.015 189.415 268.271 189.231C269.528 189.047 270.711 188.529 271.698 187.73C272.277 188.889 273.164 189.865 274.262 190.553C275.36 191.241 276.625 191.614 277.921 191.63C279.216 191.647 280.491 191.306 281.605 190.646C282.72 189.986 283.631 189.032 284.24 187.889C285.198 188.728 286.366 189.292 287.619 189.522C288.873 189.751 290.165 189.637 291.359 189.192C292.552 188.747 293.604 187.988 294.401 186.994C295.198 186 295.711 184.809 295.887 183.547C296.896 183.831 297.957 183.889 298.991 183.715C300.026 183.541 301.009 183.14 301.87 182.541C303.545 175.28 304.8 167.928 305.63 160.523C296.99 155.228 301.288 147.982 305.789 152.421C308.384 155.016 307.907 149.668 306.318 145.802C307.848 145.186 309.489 144.895 311.137 144.949Z" fill="#9D8EFB"/>
<path d="M479.727 466.663L468.343 442.304C468.153 441.928 467.857 441.615 467.492 441.405C467.127 441.194 466.709 441.095 466.288 441.118C465.867 441.142 465.463 441.288 465.124 441.538C464.785 441.788 464.526 442.132 464.379 442.527C464.182 443.056 464.198 443.64 464.424 444.157L475.809 468.516C475.926 468.781 476.095 469.021 476.305 469.22C476.516 469.42 476.764 469.575 477.035 469.678C477.307 469.78 477.597 469.826 477.887 469.814C478.177 469.801 478.462 469.731 478.724 469.606C478.987 469.483 479.223 469.308 479.416 469.092C479.609 468.875 479.756 468.621 479.847 468.346C479.942 468.072 479.979 467.781 479.959 467.492C479.938 467.203 479.86 466.921 479.727 466.663Z" fill="#9D8EFB"/>
<path d="M35.8047 545.766H526.207" stroke="#120071" stroke-width="2.80102" stroke-linecap="round" stroke-linejoin="round"/>
<path d="M342.898 308.455C346.438 308.454 349.833 307.048 352.336 304.546C354.84 302.044 356.248 298.65 356.251 295.111V246.082" stroke="#120071" stroke-width="2.80102" stroke-linecap="round" stroke-linejoin="round"/>
<path d="M246 259.317V295.058C246.004 298.169 247.088 301.182 249.066 303.583" stroke="#120071" stroke-width="2.80102" stroke-linecap="round" stroke-linejoin="round"/>
<path d="M219.906 355.048V285.049" stroke="#120071" stroke-width="2.80102" stroke-linecap="round" stroke-linejoin="round"/>
<path d="M334.219 434.417H241.412C237.142 434.425 232.968 433.16 229.421 430.782C225.875 428.405 223.118 425.025 221.504 421.072" stroke="#120071" stroke-width="2.80102" stroke-linecap="round" stroke-linejoin="round"/>
<path d="M382.349 249.629V412.868C382.36 413.86 382.287 414.852 382.137 415.833" stroke="#120071" stroke-width="2.80102" stroke-linecap="round" stroke-linejoin="round"/>
<path d="M382.191 124.194C381.487 119.068 378.914 114.383 374.966 111.039C371.018 107.695 365.973 105.929 360.801 106.079H241.455C238.671 105.982 235.895 106.444 233.292 107.44C230.689 108.435 228.313 109.943 226.304 111.873C224.294 113.803 222.692 116.118 221.594 118.678C220.495 121.239 219.921 123.994 219.906 126.78V195.411" stroke="#120071" stroke-width="2.80102" stroke-linecap="round" stroke-linejoin="round"/>
<path d="M231.123 223.337V209.864C231.126 207.903 230.741 205.96 229.992 204.147C229.242 202.334 228.142 200.687 226.755 199.301C225.368 197.914 223.721 196.814 221.908 196.065C220.095 195.316 218.152 194.931 216.191 194.934H109.512C107.551 194.932 105.608 195.316 103.796 196.066C101.983 196.815 100.336 197.915 98.9492 199.302C97.5623 200.688 96.4627 202.335 95.7133 204.148C94.9639 205.96 94.5795 207.903 94.582 209.864V270.596C94.5795 272.558 94.9639 274.5 95.7133 276.313C96.4627 278.125 97.5623 279.772 98.9492 281.159C100.336 282.546 101.983 283.646 103.796 284.395C105.608 285.144 107.551 285.529 109.512 285.526H157.424M231.123 260.376V270.596C231.126 272.557 230.742 274.499 229.993 276.311C229.244 278.123 228.145 279.769 226.759 281.156C225.373 282.543 223.727 283.643 221.916 284.393C220.104 285.142 218.162 285.528 216.202 285.526H168.137" stroke="#120071" stroke-width="2.80102" stroke-linecap="round" stroke-linejoin="round"/>
<path d="M434.661 228.883C434.599 229.251 434.564 229.624 434.555 229.998C434.547 230.705 434.679 231.406 434.945 232.062C435.21 232.717 435.603 233.314 436.1 233.816C436.598 234.319 437.19 234.717 437.843 234.989C438.496 235.261 439.196 235.4 439.903 235.399C441.334 235.392 442.704 234.821 443.715 233.81C444.727 232.798 445.298 231.428 445.305 229.998C445.306 228.763 444.879 227.566 444.097 226.611C443.315 225.656 442.226 225.001 441.015 224.758" stroke="#120071" stroke-width="2.80102" stroke-linecap="round" stroke-linejoin="round"/>
<path d="M154.203 218.019L155.736 215.371L158.278 219.766" stroke="#120071" stroke-width="2.80102" stroke-linecap="round" stroke-linejoin="round"/>
<path d="M187.082 218.866C187.641 217.68 188.568 216.706 189.725 216.088C190.883 215.471 192.208 215.244 193.505 215.44C194.802 215.636 196 216.246 196.923 217.178C197.846 218.11 198.443 219.315 198.626 220.614C194.646 220.084 190.78 219.502 187.082 218.866Z" stroke="#120071" stroke-width="2.80102" stroke-linecap="round" stroke-linejoin="round"/>
<path d="M194.701 258.629L198.461 265.089H127.035L149.432 226.277" stroke="#120071" stroke-width="2.80102" stroke-linecap="round" stroke-linejoin="round"/>
<path d="M371.652 207.727V138.492C371.647 135.537 372.52 132.648 374.161 130.191C375.801 127.734 378.135 125.821 380.866 124.693C382.678 123.943 384.621 123.557 386.582 123.559H493.272C496.227 123.554 499.117 124.428 501.574 126.069C504.031 127.71 505.946 130.044 507.073 132.776C507.823 134.587 508.208 136.53 508.205 138.492V215.054C508.209 218.008 507.336 220.898 505.695 223.355C504.054 225.811 501.719 227.725 498.988 228.852C497.176 229.602 495.233 229.987 493.272 229.984H445.439" stroke="#120071" stroke-width="2.80102" stroke-linecap="round" stroke-linejoin="round"/>
<path d="M395.109 123.559C395.079 115.545 391.875 107.87 386.199 102.214C380.522 96.5574 372.836 93.3803 364.823 93.3782H236.954C232.977 93.3767 229.038 94.1591 225.363 95.6806C221.687 97.2021 218.348 99.433 215.535 102.246C212.723 105.058 210.492 108.398 208.97 112.073C207.449 115.748 206.667 119.687 206.668 123.665V194.934" stroke="#120071" stroke-width="2.80102" stroke-linecap="round" stroke-linejoin="round"/>
<path d="M206.668 369.607V285.526" stroke="#120071" stroke-width="2.80102" stroke-linecap="round" stroke-linejoin="round"/>
<path d="M340.041 446.702H236.949C229.991 446.703 223.246 444.308 217.846 439.92C212.447 435.532 208.723 429.419 207.301 422.608" stroke="#120071" stroke-width="2.80102" stroke-linecap="round" stroke-linejoin="round"/>
<path d="M395.105 249.629V416.415C395.108 422.987 392.971 429.38 389.016 434.629" stroke="#120071" stroke-width="2.80102" stroke-linecap="round" stroke-linejoin="round"/>
<path d="M474.957 156.758H389.816V141.56H489.993V156.758H481.099" stroke="#120071" stroke-width="2.80102" stroke-linecap="round" stroke-linejoin="round"/>
<path d="M462.621 164.966H468.022" stroke="#120071" stroke-width="2.80102" stroke-linecap="round" stroke-linejoin="round"/>
<path d="M389.816 209.07V164.966H456.373" stroke="#120071" stroke-width="2.80102" stroke-linecap="round" stroke-linejoin="round"/>
<path d="M477.658 164.966H489.997V211.982H458.016" stroke="#120071" stroke-width="2.80102" stroke-linecap="round" stroke-linejoin="round"/>
<path d="M439.9 235.385V290.927C439.9 295.642 438.972 300.31 437.168 304.665C435.364 309.021 432.72 312.978 429.387 316.312C426.054 319.646 422.096 322.29 417.741 324.094C413.386 325.898 408.718 326.827 404.003 326.827H349.891" stroke="#120071" stroke-width="2.80102" stroke-linecap="round" stroke-linejoin="round"/>
<path d="M238.809 326.799H198.787C189.264 326.791 180.134 323.003 173.403 316.267C166.672 309.531 162.891 300.397 162.891 290.874" stroke="#120071" stroke-width="2.80102" stroke-linecap="round" stroke-linejoin="round"/>
<path d="M162.855 441.565V471.587" stroke="#120071" stroke-width="2.80102" stroke-linecap="round" stroke-linejoin="round"/>
<path d="M177.865 456.576H147.844" stroke="#120071" stroke-width="2.80102" stroke-linecap="round" stroke-linejoin="round"/>
<path d="M322.458 171.359C321.557 174.907 313.818 173.329 311.181 172.752L309.23 172.292C310.903 176.044 312.491 178.889 312.491 178.889" stroke="#120071" stroke-width="2.80102" stroke-linecap="round" stroke-linejoin="round"/>
<path d="M334.645 196.629C329.361 194.703 324.244 192.348 319.345 189.586C317.952 188.843 316.723 187.827 315.732 186.599C314.74 185.37 314.006 183.955 313.573 182.437C313.199 181.269 312.884 180.051 312.511 178.884C317.299 177.682 321.778 175.91 322.466 171.359C323.302 165.879 318.684 157.583 311.296 145.005C309.6 144.924 307.906 145.194 306.318 145.796C307.854 149.662 308.392 154.993 305.789 152.415C301.302 147.956 296.998 155.222 305.63 160.517C305.206 164.912 304.515 168.987 303.776 173.117C303.37 176.301 302.733 179.451 301.87 182.543C300.841 184.68 299.339 186.553 297.476 188.022C295.614 189.49 293.441 190.514 291.123 191.016C286.998 192.212 283.058 193.975 279.418 196.255C301.338 207.163 334.601 196.629 334.601 196.629H334.645Z" stroke="#120071" stroke-width="2.80102" stroke-linecap="round" stroke-linejoin="round"/>
<path d="M332.95 244.599L323.195 236.55C326.473 237.938 329.812 239.175 333.203 240.257" stroke="#120071" stroke-width="2.80102" stroke-linecap="round" stroke-linejoin="round"/>
<path d="M332.527 250.424C333.037 243.434 332.884 245.725 333.216 240.257C351.101 245.688 369.568 248.98 388.229 250.064C392.318 250.334 396.407 249.531 400.09 247.734C420.865 237.614 440.744 226.508 458.439 211.57C458.821 197.389 448.788 181.841 436.622 178.889C420.633 192.763 404.85 203.568 387.434 210.023C385.57 210.714 357.276 206.012 334.593 196.629" stroke="#120071" stroke-width="2.80102" stroke-linecap="round" stroke-linejoin="round"/>
<path d="M268.039 249.047L274.02 229.984L272.961 245.658" stroke="#120071" stroke-width="2.80102" stroke-linecap="round" stroke-linejoin="round"/>
<path d="M272.588 250.279L272.95 245.658C264.191 252.195 254.3 257.059 243.776 260.005C220.581 261.567 197.282 259.928 174.535 255.134C170.355 241.795 171.62 228.71 180.837 217.701C201.084 221.538 221.646 223.471 242.254 223.473C257.187 214.683 267.881 203.298 279.424 196.255" stroke="#120071" stroke-width="2.80102" stroke-linecap="round" stroke-linejoin="round"/>
<path d="M279.314 266.837C279.314 266.837 252.949 283.249 242.525 321.267L210.753 368.76C185.414 374.357 156.069 376.241 124.727 376.093" stroke="#120071" stroke-width="2.80102" stroke-linecap="round" stroke-linejoin="round"/>
<path d="M286.304 353.989L279.473 316.819" stroke="#120071" stroke-width="2.80102" stroke-linecap="round" stroke-linejoin="round"/>
<path d="M283.549 287.432C280.009 294.002 278.231 301.376 278.389 308.837C278.546 316.298 280.634 323.59 284.449 330.004C284.706 330.433 291.28 344.193 291.28 344.193" stroke="#120071" stroke-width="2.80102" stroke-linecap="round" stroke-linejoin="round"/>
<path d="M132.433 418.798C119.409 420.649 106.163 425.727 97.0658 437.064C88.3202 447.964 73.4208 459.522 66.1133 454.865" stroke="#120071" stroke-width="2.80102" stroke-linecap="round" stroke-linejoin="round"/>
<path d="M276.977 246.611L279.307 266.836C294.297 262.968 310.023 262.968 325.014 266.836L328.38 246.664" stroke="#120071" stroke-width="2.80102" stroke-linecap="round" stroke-linejoin="round"/>
<path d="M327.016 254.71C330.458 253.492 332.524 252.012 332.524 250.424C332.524 249.047 331.044 247.773 328.393 246.664C316.858 241.831 288.631 241.851 276.981 246.611C275.086 247.386 272.109 248.935 272.656 250.92C273.029 252.277 274.908 253.567 277.881 254.604" stroke="#120071" stroke-width="2.80102" stroke-linecap="round" stroke-linejoin="round"/>
<path d="M469.504 173.979C470.669 172.814 474.111 169.745 475.805 167.786" stroke="#120071" stroke-width="2.80102" stroke-linecap="round" stroke-linejoin="round"/>
<path d="M456.789 173.171C458.484 172.164 460.072 171.22 461.446 170.261" stroke="#120071" stroke-width="2.80102" stroke-linecap="round" stroke-linejoin="round"/>
<path d="M474.804 178.162L469.559 182.755" stroke="#120071" stroke-width="2.80102" stroke-linecap="round" stroke-linejoin="round"/>
<path d="M469.918 190.539C469.918 190.539 472.931 187.696 473.864 186.916" stroke="#120071" stroke-width="2.80102" stroke-linecap="round" stroke-linejoin="round"/>
<path d="M325.008 266.837C364.826 355.313 378.856 418.171 416.873 503.198C402.57 513.367 389.784 515.26 372.451 514.792L291.282 344.193L286.305 353.989C276.676 370.811 265.716 386.834 253.529 401.906C249.371 407.31 244.166 411.821 238.225 415.168C232.284 418.516 225.73 420.632 218.954 421.39C188.449 424.917 157.706 425.929 127.035 424.417" stroke="#120071" stroke-width="2.80102" stroke-linecap="round" stroke-linejoin="round"/>
<path d="M409.771 507.696L415.808 519.663C428.305 523.317 442.326 533.113 451.813 541.159C452.223 541.504 452.517 541.967 452.654 542.484C452.791 543.002 452.765 543.55 452.579 544.052C452.397 544.555 452.063 544.99 451.624 545.297C451.185 545.604 450.662 545.767 450.127 545.766C423.229 545.741 404.328 545.488 382.681 545.449C381.883 545.445 381.094 545.277 380.364 544.956C379.633 544.635 378.976 544.167 378.434 543.581C377.892 542.995 377.477 542.304 377.215 541.55C376.953 540.796 376.85 539.996 376.912 539.2C377.483 532.517 378.908 525.934 381.145 519.61L378.236 514.897" stroke="#120071" stroke-width="2.80102" stroke-linecap="round" stroke-linejoin="round"/>
<path d="M122.482 420.908C124.508 424.041 126.662 424.988 128.569 424.083C133.56 421.722 134.658 409.311 134.658 403.701C134.658 395.401 132.122 377.163 125.21 376.124C123.193 375.82 121.253 377.436 119.781 380.881" stroke="#120071" stroke-width="2.80102" stroke-linecap="round" stroke-linejoin="round"/>
<path d="M105.478 382.567C102.012 384.315 98.848 386.608 96.1083 389.359C86.2249 399.638 78.1664 411.527 72.2793 424.514C66.8391 436.011 63.4278 447.245 64.6568 452.418C65.4929 455.98 68.4193 456.091 71.6467 454.344C87.4602 445.782 119.21 389.964 110.776 382.687C110.017 382.116 109.098 381.798 108.148 381.777C107.198 381.755 106.263 382.031 105.478 382.567Z" stroke="#120071" stroke-width="2.80102" stroke-linecap="round" stroke-linejoin="round"/>
<path d="M312.459 264.506C312.459 264.506 310.341 289.445 315.803 301.942C321.266 314.438 399.832 511.826 399.832 511.826" stroke="#120071" stroke-width="2.80102" stroke-linecap="round" stroke-linejoin="round"/>
<path d="M283.87 329.316C272.005 349.234 259.103 368.516 245.217 387.082C236.393 398.322 222.132 401.444 207.891 402.489C183.543 404.306 159.11 404.713 134.715 403.707" stroke="#120071" stroke-width="2.80102" stroke-linecap="round" stroke-linejoin="round"/>
<path d="M168.223 285.526C168.224 286.596 167.908 287.641 167.314 288.53C166.72 289.42 165.875 290.112 164.887 290.52C164.148 290.828 163.351 290.967 162.552 290.929C161.753 290.89 160.973 290.674 160.268 290.296C159.563 289.919 158.95 289.389 158.475 288.746C158 288.103 157.674 287.362 157.521 286.577C157.366 285.793 157.386 284.984 157.582 284.209C157.777 283.434 158.142 282.712 158.65 282.095C159.158 281.478 159.797 280.982 160.52 280.641C161.244 280.301 162.033 280.126 162.833 280.128C164.261 280.137 165.627 280.709 166.636 281.72C167.645 282.73 168.215 284.098 168.223 285.526Z" stroke="#120071" stroke-width="2.80102" stroke-linecap="round" stroke-linejoin="round"/>
<path d="M53.8047 239.41L63.1774 252.648L74.1889 233.479" stroke="#120071" stroke-width="2.80102" stroke-linecap="round" stroke-linejoin="round"/>
<path d="M306.318 145.796C307.907 149.662 308.392 154.994 305.789 152.416C301.302 147.956 296.999 155.222 305.63 160.517C305.206 164.86 304.515 168.99 303.777 173.117C303.361 176.3 302.724 179.449 301.87 182.543C300.688 183.364 299.285 183.807 297.846 183.814C297.187 183.807 296.532 183.718 295.895 183.549C295.766 184.494 295.447 185.404 294.957 186.222C294.467 187.04 293.815 187.751 293.043 188.31C292.27 188.869 291.391 189.266 290.461 189.475C289.53 189.685 288.567 189.704 287.629 189.53C286.375 189.299 285.206 188.733 284.248 187.891C283.641 189.037 282.73 189.992 281.615 190.654C280.5 191.315 279.225 191.656 277.929 191.64C276.633 191.623 275.366 191.25 274.269 190.561C273.171 189.871 272.284 188.893 271.707 187.733C270.719 188.529 269.536 189.046 268.28 189.229C267.024 189.413 265.743 189.255 264.569 188.774C263.395 188.292 262.372 187.504 261.607 186.492C260.841 185.48 260.362 184.28 260.218 183.02C259.015 183.323 257.753 183.304 256.559 182.965C255.365 182.626 254.281 181.978 253.417 181.087C252.553 180.196 251.938 179.093 251.636 177.889C251.333 176.686 251.353 175.423 251.693 174.229C250.431 174.055 249.239 173.542 248.244 172.745C247.25 171.948 246.49 170.897 246.044 169.702C245.599 168.508 245.486 167.216 245.716 165.962C245.946 164.709 246.511 163.541 247.351 162.583C246.206 161.975 245.252 161.064 244.591 159.949C243.93 158.834 243.59 157.559 243.606 156.263C243.622 154.968 243.995 153.702 244.684 152.604C245.373 151.506 246.35 150.62 247.51 150.041C246.72 149.051 246.21 147.869 246.03 146.615C245.851 145.362 246.01 144.084 246.491 142.912C246.971 141.741 247.756 140.719 248.764 139.953C249.771 139.186 250.965 138.703 252.223 138.553C251.918 137.349 251.936 136.087 252.275 134.892C252.614 133.698 253.262 132.614 254.153 131.749C255.044 130.885 256.148 130.27 257.352 129.968C258.556 129.666 259.819 129.686 261.013 130.027C261.184 128.769 261.691 127.581 262.481 126.587C263.271 125.593 264.315 124.831 265.502 124.381C266.689 123.93 267.976 123.809 269.227 124.03C270.477 124.25 271.645 124.804 272.607 125.632C273.215 124.488 274.126 123.533 275.24 122.872C276.355 122.212 277.63 121.871 278.926 121.888C280.222 121.904 281.488 122.277 282.585 122.966C283.683 123.654 284.57 124.632 285.148 125.791C286.136 124.997 287.319 124.482 288.573 124.3C289.827 124.118 291.107 124.276 292.28 124.757C293.453 125.238 294.475 126.024 295.24 127.035C296.005 128.045 296.485 129.242 296.631 130.501C297.834 130.199 299.096 130.218 300.289 130.557C301.482 130.897 302.565 131.544 303.429 132.435C304.292 133.325 304.907 134.428 305.209 135.631C305.512 136.834 305.493 138.095 305.153 139.289C306.617 139.492 307.98 140.148 309.053 141.164C310.125 142.179 310.854 143.505 311.137 144.955C309.49 144.897 307.849 145.184 306.318 145.796Z" stroke="#120071" stroke-width="2.80102" stroke-linecap="round" stroke-linejoin="round"/>
<path d="M450.548 82.7903L429.316 103.969" stroke="#120071" stroke-width="2.80102" stroke-linecap="round" stroke-linejoin="round"/>
<path d="M450.497 104.022L429.371 82.7903" stroke="#120071" stroke-width="2.80102" stroke-linecap="round" stroke-linejoin="round"/>
<path d="M479.774 466.663C479.897 466.923 479.967 467.205 479.981 467.493C479.994 467.781 479.95 468.069 479.852 468.339C479.753 468.61 479.602 468.859 479.407 469.071C479.212 469.283 478.977 469.454 478.715 469.575C478.455 469.698 478.172 469.768 477.885 469.781C477.597 469.795 477.309 469.751 477.038 469.652C476.768 469.554 476.519 469.403 476.307 469.208C476.095 469.013 475.924 468.777 475.803 468.516L464.471 444.16C464.276 443.649 464.281 443.082 464.485 442.574C464.689 442.067 465.078 441.654 465.573 441.42C466.067 441.186 466.632 441.147 467.155 441.312C467.677 441.476 468.118 441.831 468.389 442.307L479.774 466.663Z" stroke="#120071" stroke-width="2.80102" stroke-linecap="round" stroke-linejoin="round"/>
<path d="M459.809 429.121L466.425 443.26" stroke="#120071" stroke-width="2.80102" stroke-linecap="round" stroke-linejoin="round"/>
<path d="M443.398 393.963C440.798 395.176 438.5 396.951 436.669 399.159C434.838 401.368 433.519 403.955 432.808 406.734C432.097 409.513 432.012 412.415 432.557 415.232C433.103 418.048 434.267 420.708 435.965 423.021C438.237 426.11 441.374 428.457 444.979 429.765C448.584 431.073 452.495 431.284 456.22 430.371C459.945 429.458 463.315 427.462 465.907 424.635C468.498 421.808 470.194 418.277 470.78 414.487C471.362 410.694 470.806 406.813 469.183 403.336C467.003 398.677 463.063 395.074 458.229 393.317C453.395 391.56 448.061 391.792 443.398 393.963Z" stroke="#120071" stroke-width="2.80102" stroke-linecap="round" stroke-linejoin="round"/>
<path d="M220.179 41.3558C219.215 41.2471 218.482 41.1329 218.089 40.0655C217.531 38.6134 216.575 37.4039 217.782 36.133C218.927 34.9838 219.569 33.428 219.569 31.8061C219.569 30.1843 218.927 28.6285 217.782 27.4793L214.819 24.5752C213.671 23.4349 212.118 22.795 210.5 22.795C208.881 22.795 207.328 23.4349 206.18 24.5752C204.97 25.7848 203.699 24.8177 202.306 24.2715C201.926 24.1297 201.6 23.8732 201.373 23.5375C201.145 23.2019 201.028 22.8038 201.038 22.3986C201.041 21.5951 200.885 20.799 200.578 20.0562C200.272 19.3133 199.822 18.6384 199.254 18.0702C198.686 17.5021 198.011 17.052 197.268 16.7459C196.525 16.4398 195.729 16.2837 194.926 16.2867H190.745C189.942 16.2845 189.147 16.4411 188.404 16.7475C187.662 17.0539 186.987 17.504 186.42 18.072C185.852 18.6401 185.402 19.3147 185.096 20.0573C184.79 20.7998 184.634 21.5955 184.636 22.3986C184.636 24.0931 183.061 24.3495 181.671 24.9403C181.307 25.0993 180.904 25.1437 180.514 25.0675C180.125 24.9913 179.768 24.7982 179.491 24.5139C178.343 23.3736 176.79 22.7337 175.171 22.7337C173.553 22.7337 172 23.3736 170.852 24.5139L167.808 27.4793C166.661 28.627 166.016 30.1834 166.016 31.8061C166.016 33.4289 166.661 34.9853 167.808 36.133C169.018 37.3425 168.051 38.6134 167.502 40.0655C167.36 40.4457 167.104 40.7725 166.768 41.0003C166.433 41.228 166.034 41.3455 165.629 41.3363C164.826 41.3345 164.03 41.4913 163.288 41.7979C162.546 42.1044 161.871 42.5546 161.304 43.1225C160.736 43.6905 160.286 44.365 159.98 45.1074C159.674 45.8497 159.517 46.6452 159.52 47.4483L159.581 51.6288C159.579 52.4317 159.736 53.227 160.042 53.9692C160.348 54.7114 160.798 55.3858 161.366 55.9537C161.934 56.5215 162.608 56.9717 163.35 57.2784C164.092 57.5851 164.887 57.7422 165.69 57.7407C167.385 57.7407 167.641 59.3154 168.232 60.7061C168.403 61.0755 168.453 61.489 168.378 61.8888C168.302 62.2886 168.102 62.6547 167.808 62.9357C166.664 64.0821 166.021 65.6357 166.021 67.2556C166.021 68.8754 166.664 70.429 167.808 71.5754L170.774 74.5408C171.922 75.6811 173.475 76.321 175.093 76.321C176.712 76.321 178.265 75.6811 179.413 74.5408C180.623 73.3285 181.894 74.2955 183.287 74.8418C183.666 74.9857 183.992 75.243 184.219 75.5787C184.447 75.9144 184.565 76.312 184.558 76.7175C184.554 77.5225 184.71 78.3203 185.016 79.0648C185.323 79.8093 185.773 80.4858 186.342 81.0553C186.911 81.6248 187.587 82.076 188.331 82.3829C189.076 82.6898 189.873 82.8463 190.678 82.8433L194.915 82.782C195.717 82.7827 196.512 82.6251 197.253 82.3181C197.995 82.0111 198.668 81.5608 199.235 80.993C199.802 80.4252 200.252 79.7511 200.557 79.0092C200.863 78.2674 201.02 77.4725 201.018 76.6701C201.018 74.9756 202.593 74.7359 203.986 74.1283C204.356 73.9579 204.77 73.9074 205.17 73.9839C205.569 74.0603 205.935 74.2599 206.216 74.5547C207.365 75.695 208.917 76.3349 210.536 76.3349C212.154 76.3349 213.707 75.695 214.856 74.5547L217.76 71.5894C218.9 70.4408 219.54 68.888 219.54 67.2695C219.54 65.651 218.9 64.0982 217.76 62.9496C216.55 61.7401 217.517 60.4692 218.064 59.0171C218.207 58.6381 218.465 58.3126 218.8 58.0852C219.136 57.8577 219.534 57.7394 219.939 57.7463C220.745 57.7511 221.543 57.5962 222.288 57.2906C223.033 56.9851 223.71 56.5349 224.281 55.966C224.851 55.3972 225.302 54.721 225.61 53.9766C225.917 53.2321 226.074 52.4341 226.071 51.6288V47.4483C226.071 45.8666 225.457 44.3466 224.358 43.2097C223.258 42.0727 221.76 41.4079 220.179 41.3558Z" stroke="#120071" stroke-width="2.80102" stroke-linecap="round" stroke-linejoin="round"/>
<path d="M192.799 65.1152C189.712 65.1152 186.694 64.1998 184.128 62.4849C181.561 60.7699 179.561 58.3324 178.379 55.4806C177.198 52.6287 176.889 49.4906 177.491 46.4631C178.094 43.4356 179.58 40.6546 181.763 38.4719C183.945 36.2892 186.726 34.8027 189.754 34.2005C192.781 33.5983 195.919 33.9074 198.771 35.0887C201.623 36.27 204.061 38.2704 205.776 40.837C207.491 43.4036 208.406 46.4211 208.406 49.5079C208.413 51.5595 208.014 53.5921 207.232 55.4888C206.45 57.3855 205.301 59.1089 203.85 60.5595C202.4 62.0102 200.676 63.1595 198.78 63.9414C196.883 64.7233 194.85 65.1222 192.799 65.1152Z" stroke="#120071" stroke-width="2.80102" stroke-linecap="round" stroke-linejoin="round"/>
<path d="M480.514 158.837C481.119 157.003 482.317 152.535 480.676 151.568C479.511 150.88 477.128 153.898 475.01 156.758C471.362 162.055 466.766 166.633 461.454 170.261C462.354 166.607 464.316 157.817 462.619 156.758H461.782C459.233 159.309 457.264 162.379 456.008 165.76C454.313 169.411 446.71 177.111 441.68 180.871C446.028 183.551 449.741 187.143 452.564 191.4C455.386 195.657 457.249 200.476 458.025 205.525C470.667 196.587 472.969 194.898 474.221 193.981C476.938 191.367 476.286 186.827 473.878 186.91C476.495 183.822 477.501 179.277 474.806 178.162C476.966 175.567 478.1 170.57 475.809 167.772C477.85 165.067 479.438 162.049 480.514 158.837Z" stroke="#120071" stroke-width="2.80102" stroke-linecap="round" stroke-linejoin="round"/>
<path d="M172.414 244.799C167.424 243.579 162.302 242.978 157.164 243.01C145.779 243.333 149.639 240.346 153.563 239.039C157.897 237.592 168.44 235.385 164.469 232.419C161.877 231.202 160.009 230.19 158.538 229.354C151.383 226.741 144.082 224.55 136.671 222.79C130.166 221.227 131.222 219.786 132.276 219.56C136.12 219.013 140.019 218.978 143.873 219.454C143.078 218.766 142.284 218.08 141.543 217.389C134.575 210.873 135.049 208.192 145.573 213.788C155.029 219.2 165.348 222.939 176.076 224.842" stroke="#120071" stroke-width="2.80102" stroke-linecap="round" stroke-linejoin="round"/>
<path d="M169.866 234.855C168.051 234.077 166.25 233.265 164.465 232.419" stroke="#120071" stroke-width="2.80102" stroke-linecap="round" stroke-linejoin="round"/>
<path d="M143.883 219.449C146.949 221.957 156.982 228.462 158.548 229.348" stroke="#120071" stroke-width="2.80102" stroke-linecap="round" stroke-linejoin="round"/>
<path d="M108.336 381.751L129.796 380.251" stroke="#120071" stroke-width="2.80102" stroke-linecap="round" stroke-linejoin="round"/>
</svg>
