<svg width="400" height="400" viewBox="0 0 400 400" fill="none" xmlns="http://www.w3.org/2000/svg">
<path fill-rule="evenodd" clip-rule="evenodd" d="M100.4 13.5621L142.08 85.8C142.704 86.8814 143.031 88.1076 143.031 89.3556C143.031 90.6036 142.703 91.8296 142.079 92.9106C141.455 93.9918 140.558 94.8898 139.478 95.515C138.398 96.14 137.172 96.47 135.924 96.472L52.5204 96.478C51.2716 96.4766 50.045 96.1468 48.964 95.5214C47.883 94.896 46.9854 93.9972 46.3616 92.9152C45.7378 91.8332 45.4098 90.6062 45.4102 89.3572C45.4108 88.1084 45.7398 86.8816 46.3644 85.8L88.0524 13.5621C88.6788 12.479 89.579 11.5798 90.6626 10.9546C91.7464 10.3295 92.9754 10.0004 94.2264 10.0004C95.4776 10.0004 96.7066 10.3295 97.7904 10.9546C98.874 11.5798 99.7742 12.479 100.4 13.5621ZM94.2206 78.053C95.6784 78.053 96.8602 76.8712 96.8602 75.4134C96.8602 73.9556 95.6784 72.774 94.2206 72.774C92.763 72.774 91.5812 73.9556 91.5812 75.4134C91.5812 76.8712 92.763 78.053 94.2206 78.053Z" fill="#80CAEE"/>
<path d="M318.462 77.0562C303.416 74.2062 289.062 83.0562 286.462 96.8142C285.578 101.634 286.202 106.61 288.25 111.062L281.752 121.702L294.064 119.194C298.198 123.158 303.402 125.826 309.034 126.87C324.08 129.72 338.434 120.87 341.034 107.112C343.654 93.3562 333.548 79.9062 318.462 77.0562Z" fill="#80CAEE"/>
<path d="M129.35 168.78C130.735 168.78 131.858 167.657 131.858 166.272C131.858 164.887 130.735 163.764 129.35 163.764C127.965 163.764 126.842 164.887 126.842 166.272C126.842 167.657 127.965 168.78 129.35 168.78Z" fill="#80CAEE"/>
<path d="M151.922 187.932C151.922 188.428 151.775 188.913 151.5 189.325C151.224 189.738 150.832 190.059 150.374 190.249C149.916 190.439 149.411 190.489 148.925 190.392C148.438 190.295 147.992 190.056 147.641 189.706C147.29 189.355 147.051 188.908 146.954 188.421C146.858 187.935 146.907 187.431 147.097 186.972C147.287 186.514 147.608 186.122 148.021 185.847C148.433 185.571 148.918 185.424 149.414 185.424C150.078 185.429 150.713 185.695 151.182 186.164C151.651 186.634 151.917 187.269 151.922 187.932Z" fill="#80CAEE"/>
<path d="M175.367 169.692C175.367 170.188 175.22 170.673 174.945 171.085C174.669 171.498 174.278 171.819 173.819 172.009C173.361 172.199 172.857 172.249 172.37 172.152C171.884 172.055 171.437 171.816 171.086 171.465C170.735 171.115 170.496 170.668 170.4 170.181C170.303 169.695 170.353 169.191 170.542 168.732C170.732 168.274 171.054 167.882 171.466 167.607C171.879 167.331 172.363 167.184 172.859 167.184C173.523 167.19 174.157 167.456 174.627 167.925C175.096 168.394 175.362 169.029 175.367 169.692Z" fill="#80CAEE"/>
<path d="M201.129 191.122C201.129 191.618 200.983 192.103 200.707 192.516C200.433 192.929 200.041 193.25 199.582 193.441C199.124 193.631 198.62 193.681 198.133 193.584C197.647 193.488 197.2 193.249 196.849 192.898C196.498 192.548 196.259 192.101 196.162 191.614C196.065 191.128 196.114 190.623 196.304 190.165C196.494 189.706 196.815 189.315 197.228 189.039C197.64 188.763 198.125 188.616 198.621 188.616C199.284 188.622 199.919 188.888 200.387 189.356C200.857 189.825 201.123 190.459 201.129 191.122Z" fill="#80CAEE"/>
<path d="M223.014 169.692C223.014 170.188 222.866 170.673 222.592 171.085C222.316 171.498 221.924 171.819 221.466 172.009C221.008 172.199 220.504 172.249 220.016 172.152C219.53 172.055 219.084 171.816 218.732 171.465C218.382 171.115 218.144 170.668 218.046 170.181C217.95 169.695 218 169.191 218.188 168.732C218.378 168.274 218.7 167.882 219.112 167.607C219.526 167.331 220.01 167.184 220.506 167.184C221.17 167.19 221.804 167.456 222.274 167.925C222.742 168.394 223.008 169.029 223.014 169.692Z" fill="#80CAEE"/>
<path d="M250.373 171.136C250.373 171.632 250.225 172.117 249.951 172.529C249.675 172.942 249.283 173.263 248.825 173.453C248.367 173.643 247.863 173.693 247.375 173.596C246.889 173.499 246.443 173.26 246.091 172.909C245.741 172.559 245.501 172.112 245.405 171.625C245.309 171.139 245.359 170.635 245.547 170.176C245.737 169.718 246.059 169.326 246.471 169.051C246.885 168.775 247.369 168.628 247.865 168.628C248.529 168.634 249.163 168.9 249.633 169.369C250.101 169.838 250.367 170.473 250.373 171.136Z" fill="#80CAEE"/>
<path d="M278.149 169.692C279.535 169.692 280.657 168.569 280.657 167.184C280.657 165.799 279.535 164.676 278.149 164.676C276.765 164.676 275.641 165.799 275.641 167.184C275.641 168.569 276.765 169.692 278.149 169.692Z" fill="#80CAEE"/>
<path d="M267.242 194.2C267.242 194.696 267.094 195.181 266.82 195.593C266.544 196.006 266.152 196.327 265.694 196.517C265.236 196.707 264.732 196.757 264.244 196.66C263.758 196.563 263.312 196.324 262.96 195.973C262.61 195.623 262.372 195.176 262.274 194.689C262.178 194.203 262.228 193.699 262.416 193.24C262.606 192.782 262.928 192.39 263.34 192.115C263.754 191.839 264.238 191.692 264.734 191.692C265.064 191.689 265.392 191.751 265.698 191.876C266.004 192.001 266.282 192.185 266.516 192.419C266.748 192.652 266.934 192.93 267.058 193.236C267.184 193.542 267.246 193.87 267.242 194.2Z" fill="#80CAEE"/>
<path d="M91.4316 157.648V169.958C93.1796 169.236 95.0316 168.476 96.9796 167.678V161.39C94.9112 160.503 93.029 159.233 91.4316 157.648Z" fill="#3C50E0"/>
<path d="M91.4316 184.436V389.962H96.9796V180.978C95.2316 182.08 93.2176 183.372 91.4316 184.436Z" fill="#3C50E0"/>
<path d="M206.942 142.22L203.904 146.552L203.98 142.866L206.942 142.22Z" fill="#3C50E0"/>
<path d="M283.697 154.6L284.609 154.03C284.809 153.926 292.679 151.19 292.809 151.142C287.647 148.566 283.127 149.706 283.697 154.6Z" fill="#3C50E0"/>
<path d="M300.188 165.816L294.988 167.64C298.484 169.084 301.988 168.888 302.932 165.962L300.188 165.816Z" fill="#3C50E0"/>
<path d="M190.033 384.3C189.593 379.866 188.623 375.502 187.145 371.3C179.037 373.618 170.441 373.618 162.333 371.3C151.581 374.416 139.307 383.952 132.885 389.956C154.467 389.956 168.755 389.766 185.169 389.728C185.857 389.73 186.537 389.586 187.166 389.304C187.794 389.024 188.357 388.616 188.816 388.102C189.275 387.59 189.621 386.986 189.831 386.332C190.04 385.676 190.109 384.984 190.033 384.3Z" fill="#3C50E0"/>
<path d="M310.485 351.85L303.417 348.05C300.605 357.284 297.261 360.02 288.559 365.72C292.929 372.256 291.903 375.486 291.409 377.384C286.809 381.716 284.495 381.698 281.303 389.984H297.303C299.451 390.032 301.569 389.464 303.407 388.35C305.245 387.236 306.725 385.62 307.677 383.694C310.077 378.494 312.077 367.964 314.325 361.77C315.025 359.934 315.019 357.904 314.311 356.072C313.601 354.24 312.239 352.736 310.485 351.85Z" fill="#3C50E0"/>
<path d="M315.385 110.834C315.369 111.182 315.217 111.509 314.961 111.744C314.705 111.98 314.365 112.103 314.017 112.088C313.669 112.073 313.341 111.92 313.107 111.664C312.871 111.407 312.747 111.068 312.763 110.72C312.771 110.548 312.811 110.379 312.885 110.223C312.957 110.067 313.061 109.926 313.187 109.81C313.315 109.693 313.463 109.603 313.625 109.544C313.787 109.485 313.959 109.459 314.131 109.466C314.303 109.474 314.473 109.515 314.629 109.588C314.785 109.66 314.925 109.763 315.041 109.89C315.157 110.017 315.249 110.166 315.307 110.328C315.365 110.49 315.393 110.662 315.385 110.834Z" fill="#3C50E0"/>
<path d="M91.4688 156.774V96.4779L97.0167 96.4719V157.116C93.6347 156.508 92.0008 156.47 91.4688 156.774Z" fill="#3C50E0"/>
<path d="M244.104 115.4C245.294 115.058 246.322 114.304 247.006 113.273C247.692 112.243 247.986 111.002 247.84 109.773C247.694 108.544 247.116 107.408 246.208 106.566C245.302 105.725 244.124 105.233 242.888 105.18C243.758 104.396 244.34 103.343 244.54 102.189C244.74 101.035 244.544 99.8469 243.988 98.8165C243.432 97.7861 242.544 96.9729 241.47 96.5075C240.394 96.0419 239.194 95.9513 238.062 96.2499C238.552 95.2085 238.684 94.0349 238.438 92.9105C238.194 91.7863 237.586 90.7739 236.708 90.0299C235.83 89.2861 234.732 88.8519 233.582 88.7949C232.434 88.7377 231.298 89.0607 230.35 89.7139C230.484 88.5203 230.202 87.3173 229.552 86.3069C228.904 85.2965 227.926 84.5403 226.786 84.1649C225.644 83.7897 224.41 83.8183 223.288 84.2461C222.164 84.6737 221.224 85.4745 220.622 86.5139C220.392 85.2695 219.732 84.1449 218.76 83.3339C217.79 82.5231 216.564 82.0769 215.3 82.0725C214.034 82.0679 212.806 82.5053 211.828 83.3093C210.85 84.1133 210.184 85.2333 209.944 86.4759C209.35 85.4321 208.416 84.6243 207.296 84.1875C206.178 83.7507 204.944 83.7115 203.8 84.0767C202.656 84.4419 201.672 85.1889 201.012 86.1931C200.354 87.1971 200.06 88.3971 200.18 89.5919C199.239 88.9299 198.106 88.5961 196.956 88.6419C195.806 88.6877 194.703 89.1105 193.817 89.8451C192.931 90.5799 192.311 91.5855 192.053 92.7073C191.796 93.8289 191.914 95.0043 192.39 96.0519C191.262 95.7523 190.066 95.8377 188.991 96.2947C187.917 96.7515 187.025 97.5539 186.458 98.5745C185.891 99.5953 185.681 100.776 185.861 101.93C186.04 103.083 186.6 104.144 187.45 104.944C186.214 104.988 185.034 105.469 184.119 106.302C183.205 107.134 182.615 108.264 182.456 109.491C182.296 110.717 182.577 111.96 183.248 112.999C183.919 114.038 184.937 114.805 186.12 115.164C184.935 115.514 183.912 116.273 183.233 117.306C182.555 118.339 182.265 119.58 182.416 120.806C182.566 122.033 183.147 123.167 184.055 124.005C184.963 124.844 186.139 125.333 187.374 125.386C186.515 126.179 185.945 127.237 185.758 128.391C185.57 129.546 185.775 130.729 186.34 131.753C186.904 132.778 187.796 133.583 188.872 134.041C189.948 134.498 191.147 134.582 192.276 134.278C191.889 135.1 191.725 136.01 191.798 136.915C191.872 137.821 192.182 138.692 192.697 139.44C193.213 140.189 193.915 140.789 194.734 141.182C195.554 141.575 196.462 141.746 197.368 141.678C195.05 139.816 194.214 135.678 198.014 126.898C204.778 111.282 210.97 122.186 210.894 128.532C211.008 129.672 211.654 129.9 213.364 128.494C216.936 125.53 220.052 131.762 213.25 135.332C211.958 136.018 211.084 137.532 212.186 145.932C212.254 146.533 212.354 147.129 212.49 147.718C213.232 148.097 214.052 148.297 214.884 148.3C215.716 148.303 216.538 148.109 217.282 147.736C218.026 147.362 218.672 146.818 219.166 146.148C219.66 145.478 219.99 144.701 220.128 143.88C220.714 144.93 221.644 145.746 222.76 146.192C223.876 146.638 225.112 146.688 226.26 146.331C227.408 145.975 228.4 145.235 229.068 144.236C229.734 143.236 230.038 142.037 229.928 140.84C230.862 141.511 231.99 141.855 233.14 141.82C234.288 141.785 235.394 141.372 236.284 140.646C237.176 139.919 237.802 138.919 238.068 137.801C238.334 136.682 238.224 135.508 237.754 134.458C238.88 134.761 240.074 134.681 241.148 134.23C242.222 133.779 243.116 132.983 243.686 131.967C244.258 130.951 244.474 129.774 244.3 128.622C244.128 127.469 243.576 126.408 242.732 125.604C243.956 125.548 245.122 125.064 246.026 124.236C246.93 123.408 247.514 122.289 247.678 121.075C247.84 119.86 247.572 118.627 246.92 117.59C246.266 116.553 245.27 115.778 244.104 115.4Z" fill="#3C50E0"/>
<path d="M151.924 187.932H152.924L152.924 187.924L151.924 187.932ZM148.926 190.392L149.122 189.411L149.121 189.411L148.926 190.392ZM147.642 189.706L146.935 190.413L146.935 190.413L147.642 189.706ZM146.956 188.421L145.975 188.617L145.975 188.617L146.956 188.421ZM147.099 186.972L148.022 187.355L148.023 187.355L147.099 186.972ZM148.022 185.847L147.467 185.015L147.467 185.015L148.022 185.847ZM149.416 185.424L149.424 184.424H149.416V185.424ZM151.183 186.164L150.476 186.872L150.476 186.872L151.183 186.164ZM175.367 169.692H176.367L176.367 169.684L175.367 169.692ZM173.819 172.009L173.437 171.085L173.437 171.085L173.819 172.009ZM172.37 172.152L172.565 171.171L172.565 171.171L172.37 172.152ZM170.4 170.181L169.419 170.376L169.419 170.377L170.4 170.181ZM170.542 168.732L169.619 168.35L169.618 168.35L170.542 168.732ZM171.466 167.607L172.022 168.438L172.022 168.438L171.466 167.607ZM172.859 167.184L172.868 166.184H172.859V167.184ZM174.627 167.925L175.334 167.218L175.334 167.218L174.627 167.925ZM201.129 191.122H202.129L202.129 191.113L201.129 191.122ZM200.707 192.516L199.876 191.96L199.874 191.963L200.707 192.516ZM199.583 193.441L199.2 192.517L199.199 192.517L199.583 193.441ZM198.134 193.584L197.939 194.565L197.939 194.565L198.134 193.584ZM196.162 191.614L195.181 191.809L195.181 191.81L196.162 191.614ZM197.228 189.039L197.784 189.871L197.784 189.87L197.228 189.039ZM198.622 188.616L198.63 187.616H198.622V188.616ZM200.387 189.356L199.68 190.063L199.681 190.065L200.387 189.356ZM223.015 169.692H224.015L224.015 169.683L223.015 169.692ZM222.593 171.085L223.424 171.642L223.426 171.639L222.593 171.085ZM220.017 172.152L219.822 173.133L219.823 173.133L220.017 172.152ZM218.733 171.465L218.026 172.172L218.028 172.174L218.733 171.465ZM218.047 170.181L217.066 170.375L217.067 170.379L218.047 170.181ZM218.189 168.732L217.266 168.349L217.264 168.353L218.189 168.732ZM219.113 167.607L218.559 166.774L218.557 166.776L219.113 167.607ZM220.507 167.184L220.516 166.184H220.507V167.184ZM222.275 167.925L222.983 167.219L222.982 167.217L222.275 167.925ZM250.373 171.136H251.373L251.373 171.127L250.373 171.136ZM249.951 172.529L250.782 173.086L250.784 173.083L249.951 172.529ZM247.375 173.596L247.18 174.577L247.181 174.577L247.375 173.596ZM246.091 172.909L245.384 173.616L245.386 173.618L246.091 172.909ZM245.405 171.625L244.424 171.819L244.424 171.819L245.405 171.625ZM245.547 170.176L244.624 169.793L244.622 169.797L245.547 170.176ZM246.471 169.051L245.917 168.218L245.915 168.22L246.471 169.051ZM247.865 168.628L247.874 167.628H247.865V168.628ZM249.633 169.369L250.341 168.663L250.34 168.661L249.633 169.369ZM267.243 194.2L266.243 194.188V194.2H267.243ZM266.821 195.593L267.652 196.15L267.654 196.147L266.821 195.593ZM265.695 196.517L266.078 197.441L266.079 197.441L265.695 196.517ZM264.245 196.66L264.05 197.641L264.051 197.641L264.245 196.66ZM262.961 195.973L262.254 196.68L262.256 196.682L262.961 195.973ZM262.275 194.689L261.294 194.883L261.295 194.887L262.275 194.689ZM262.417 193.24L261.494 192.857L261.492 192.861L262.417 193.24ZM263.341 192.115L262.787 191.282L262.786 191.283L263.341 192.115ZM264.735 191.692V192.692L264.746 192.692L264.735 191.692ZM266.517 192.419L267.227 191.714L267.224 191.711L266.517 192.419ZM267.059 193.236L266.133 193.612L266.135 193.617L267.059 193.236ZM315.385 110.834L314.386 110.788V110.788L315.385 110.834ZM314.017 112.088L314.061 111.089L314.06 111.089L314.017 112.088ZM313.107 111.664L313.846 110.99L313.843 110.987L313.107 111.664ZM312.763 110.72L311.764 110.674V110.674L312.763 110.72ZM312.885 110.223L313.789 110.651L313.794 110.641L312.885 110.223ZM313.187 109.81L312.515 109.07L312.509 109.075L313.187 109.81ZM314.131 109.466L314.176 108.467L314.174 108.467L314.131 109.466ZM315.307 110.328L316.249 109.991L316.249 109.991L315.307 110.328ZM90.431 156.774C90.431 157.326 90.8787 157.774 91.431 157.774C91.9833 157.774 92.431 157.326 92.431 156.774H90.431ZM92.431 96.472C92.431 95.9197 91.9833 95.472 91.431 95.472C90.8787 95.472 90.431 95.9197 90.431 96.472H92.431ZM90.431 169.958C90.431 170.51 90.8787 170.958 91.431 170.958C91.9833 170.958 92.431 170.51 92.431 169.958H90.431ZM92.431 157.686C92.431 157.134 91.9833 156.686 91.431 156.686C90.8787 156.686 90.431 157.134 90.431 157.686H92.431ZM90.431 390C90.431 390.552 90.8787 391 91.431 391C91.9833 391 92.431 390.552 92.431 390H90.431ZM92.431 184.55C92.431 183.998 91.9833 183.55 91.431 183.55C90.8787 183.55 90.431 183.998 90.431 184.55H92.431ZM98.017 181.13C98.017 180.578 97.5693 180.13 97.017 180.13C96.4647 180.13 96.017 180.578 96.017 181.13H98.017ZM96.017 390C96.017 390.552 96.4647 391 97.017 391C97.5693 391 98.017 390.552 98.017 390H96.017ZM98.017 161.41C98.017 160.858 97.5693 160.41 97.017 160.41C96.4647 160.41 96.017 160.858 96.017 161.41H98.017ZM96.017 167.716C96.017 168.268 96.4647 168.716 97.017 168.716C97.5693 168.716 98.017 168.268 98.017 167.716H96.017ZM98.017 96.472C98.017 95.9197 97.5693 95.472 97.017 95.472C96.4647 95.472 96.017 95.9197 96.017 96.472H98.017ZM96.017 157.116C96.017 157.668 96.4647 158.116 97.017 158.116C97.5693 158.116 98.017 157.668 98.017 157.116H96.017ZM299.697 170.353C299.474 169.848 298.884 169.618 298.378 169.841C297.873 170.064 297.644 170.654 297.866 171.159L299.697 170.353ZM302.063 239.076L301.114 238.762L301.114 238.762L302.063 239.076ZM258.239 291.131C257.759 291.404 257.591 292.015 257.864 292.495C258.138 292.975 258.748 293.142 259.228 292.869L258.239 291.131ZM129.601 158.911C129.312 159.382 129.459 159.998 129.93 160.286C130.401 160.575 131.017 160.428 131.305 159.957L129.601 158.911ZM162.638 127.567L162.124 126.709L162.124 126.709L162.638 127.567ZM182.748 119.532C183.273 119.363 183.562 118.799 183.393 118.273C183.224 117.748 182.66 117.459 182.135 117.628L182.748 119.532ZM285.47 150.644C285.814 151.076 286.443 151.149 286.875 150.805C287.308 150.462 287.38 149.833 287.037 149.4L285.47 150.644ZM250.465 122.261L250.058 123.174L250.058 123.174L250.465 122.261ZM248.066 120.148C247.554 119.939 246.971 120.184 246.762 120.695C246.553 121.206 246.798 121.79 247.309 121.999L248.066 120.148ZM174.449 297.98C174.958 298.194 175.544 297.954 175.758 297.445C175.971 296.935 175.731 296.349 175.222 296.136L174.449 297.98ZM132.347 261.962L131.514 262.516L131.514 262.516L132.347 261.962ZM116.401 209.21L115.401 209.21V209.21L116.401 209.21ZM121.419 181.835C121.578 181.306 121.278 180.749 120.749 180.59C120.22 180.431 119.662 180.732 119.503 181.261L121.419 181.835ZM227.858 304.079C228.398 303.965 228.744 303.434 228.63 302.894C228.516 302.353 227.986 302.008 227.445 302.121L227.858 304.079ZM211.651 304.43L211.693 303.431C211.679 303.43 211.665 303.43 211.651 303.43V304.43ZM203.943 303.123C203.393 303.079 202.911 303.49 202.867 304.04C202.823 304.591 203.233 305.073 203.784 305.117L203.943 303.123ZM302.87 168.043C303.261 167.653 303.261 167.019 302.87 166.629C302.48 166.238 301.847 166.238 301.456 166.629L302.87 168.043ZM274.691 197.848L273.921 197.21L273.92 197.211L274.691 197.848ZM264.587 203.412L264.462 202.42L264.461 202.42L264.587 203.412ZM253.413 200.546L252.825 201.355L252.826 201.355L253.413 200.546ZM229.23 181.387C228.785 181.061 228.159 181.157 227.833 181.603C227.506 182.048 227.603 182.674 228.048 183.001L229.23 181.387ZM203.039 146.042C202.722 146.494 202.831 147.117 203.283 147.435C203.735 147.752 204.359 147.642 204.676 147.19L203.039 146.042ZM206.941 142.22L207.76 142.794C208.007 142.442 208.001 141.972 207.746 141.626C207.491 141.28 207.043 141.136 206.634 141.269L206.941 142.22ZM285.197 151.841C285.614 151.479 285.659 150.848 285.297 150.431C284.935 150.013 284.303 149.969 283.886 150.331L285.197 151.841ZM262.189 175.544L261.547 176.311C261.76 176.489 262.038 176.571 262.314 176.536C262.589 176.502 262.838 176.354 263 176.129L262.189 175.544ZM230.235 151.758L230.755 150.904H230.755L230.235 151.758ZM212.185 145.868L211.194 145.999L211.194 145.999L212.185 145.868ZM213.249 135.268L213.715 136.153L213.716 136.153L213.249 135.268ZM213.363 128.428L212.722 127.661L212.721 127.661L213.363 128.428ZM210.917 127.77L211.916 127.716L211.916 127.715L210.917 127.77ZM198.051 126.832L198.969 127.229L198.969 127.229L198.051 126.832ZM204.975 142.771C204.937 142.22 204.459 141.804 203.908 141.842C203.357 141.881 202.942 142.358 202.98 142.909L204.975 142.771ZM200.445 150.58L200.215 151.553H200.216L200.445 150.58ZM183.915 153.58L183.302 152.79L183.302 152.79L183.915 153.58ZM155.531 171.628L155.015 172.485C155.324 172.671 155.71 172.676 156.024 172.498L155.531 171.628ZM125.553 157.38L125.948 156.461C125.555 156.292 125.099 156.392 124.812 156.709L125.553 157.38ZM116.401 179.762L115.402 179.721C115.385 180.136 115.626 180.518 116.008 180.681L116.401 179.762ZM148.889 195.606L149.331 194.709L149.329 194.708L148.889 195.606ZM157.36 197.385L157.403 198.384L157.36 197.385ZM165.645 194.884L166.162 195.74L166.164 195.739L165.645 194.884ZM187.998 183.192C188.486 182.935 188.673 182.33 188.416 181.841C188.158 181.353 187.553 181.166 187.065 181.424L187.998 183.192ZM292.368 152.044C292.862 152.291 293.463 152.091 293.71 151.597C293.957 151.103 293.757 150.503 293.263 150.256L292.368 152.044ZM283.709 152.966L282.721 152.812L282.721 152.813L283.709 152.966ZM287.215 161.828L287.998 161.206C287.993 161.2 287.988 161.194 287.983 161.188L287.215 161.828ZM297.973 168.46L298.243 167.497C298.221 167.491 298.2 167.486 298.178 167.481L297.973 168.46ZM303.86 166.319C304.057 165.803 303.798 165.225 303.282 165.028C302.766 164.831 302.188 165.089 301.991 165.605L303.86 166.319ZM186.167 166.321C186.131 165.769 185.655 165.352 185.104 165.388C184.553 165.424 184.135 165.9 184.172 166.451L186.167 166.321ZM194.631 202.56L193.729 202.992C193.856 203.256 194.092 203.451 194.375 203.527L194.631 202.56ZM227.385 201.344L227.676 202.301C228.135 202.161 228.43 201.716 228.38 201.239L227.385 201.344ZM231.702 175.756C231.898 175.24 231.639 174.662 231.123 174.465C230.607 174.269 230.029 174.528 229.833 175.044L231.702 175.756ZM294.622 166.707C294.106 166.906 293.85 167.484 294.048 168C294.247 168.515 294.826 168.772 295.341 168.573L294.622 166.707ZM311.549 162.664L311.381 161.679C311.366 161.681 311.35 161.684 311.335 161.687L311.549 162.664ZM326.861 161.904L326.791 162.902L326.802 162.902L326.861 161.904ZM327.811 157.99L327.488 158.936L327.488 158.937L327.811 157.99ZM307.141 154.494L307.281 153.504L307.281 153.504L307.141 154.494ZM289.281 152.86L289.311 151.861C289.301 151.86 289.29 151.86 289.279 151.86L289.281 152.86ZM288.01 151.94C287.462 152.008 287.073 152.507 287.141 153.055C287.209 153.604 287.709 153.993 288.257 153.925L288.01 151.94ZM283.165 153.754C282.697 154.048 282.557 154.666 282.851 155.133C283.145 155.6 283.763 155.741 284.23 155.446L283.165 153.754ZM308.319 144.8L308.736 145.709L308.737 145.709L308.319 144.8ZM312.157 146.434L312.923 147.078L312.923 147.077L312.157 146.434ZM306.855 155.448C307.384 155.607 307.941 155.306 308.099 154.777C308.258 154.248 307.957 153.69 307.428 153.532L306.855 155.448ZM299.916 164.828C299.379 164.956 299.048 165.496 299.177 166.033C299.306 166.57 299.845 166.901 300.382 166.772L299.916 164.828ZM317.855 165.884L317.913 164.886L317.912 164.886L317.855 165.884ZM329.521 167.484L329.614 166.488H329.614L329.521 167.484ZM326.405 164.368L326.782 163.442L326.78 163.441L326.405 164.368ZM320.136 160.872C319.608 160.71 319.048 161.006 318.886 161.534C318.723 162.062 319.019 162.621 319.547 162.784L320.136 160.872ZM299.959 164.884C299.407 164.882 298.957 165.328 298.955 165.88C298.953 166.433 299.399 166.882 299.952 166.884L299.959 164.884ZM311.207 167.108L311.43 166.133L311.419 166.131L311.207 167.108ZM322.453 170.566L322.716 169.601L322.716 169.601L322.453 170.566ZM319.907 166.956L319.353 167.788C319.361 167.794 319.37 167.799 319.378 167.804L319.907 166.956ZM318.706 165.055C318.231 164.774 317.618 164.932 317.337 165.407C317.056 165.882 317.213 166.496 317.688 166.777L318.706 165.055ZM116.591 177.369C117.137 177.45 117.646 177.073 117.727 176.527C117.808 175.98 117.43 175.472 116.884 175.391L116.591 177.369ZM98.1954 175.278L98.167 174.278C98.151 174.279 98.1351 174.28 98.1192 174.281L98.1954 175.278ZM83.1094 178.166L83.4063 179.121L83.4069 179.121L83.1094 178.166ZM81.2474 174.566L80.8171 173.663C80.7801 173.681 80.7443 173.701 80.7098 173.723L81.2474 174.566ZM117.497 160.508L117.234 159.543C117.225 159.546 117.216 159.548 117.207 159.551L117.497 160.508ZM122.538 161.608C123.061 161.784 123.628 161.501 123.804 160.978C123.979 160.454 123.697 159.887 123.173 159.712L122.538 161.608ZM100.153 165.412C99.6778 165.694 99.5214 166.308 99.8034 166.783C100.085 167.257 100.699 167.414 101.174 167.132L100.153 165.412ZM93.7872 159.672L93.1937 160.477L93.1944 160.477L93.7872 159.672ZM97.1312 157.164L97.3307 156.184C97.3259 156.183 97.3211 156.182 97.3162 156.181L97.1312 157.164ZM119.331 161.198C119.882 161.236 120.36 160.821 120.399 160.27C120.437 159.719 120.022 159.241 119.471 159.202L119.331 161.198ZM90.3984 177.307C90.8683 177.017 91.014 176.4 90.7239 175.931C90.4337 175.461 89.8175 175.315 89.3476 175.605L90.3984 177.307ZM84.173 180.456L84.7676 181.26L84.7736 181.256L84.173 180.456ZM81.893 184.256L81.5698 183.31L81.5697 183.31L81.893 184.256ZM92.837 179.962L93.1346 180.917L93.1349 180.917L92.837 179.962ZM110.932 176.777C111.482 176.834 111.974 176.436 112.032 175.887C112.089 175.337 111.691 174.845 111.142 174.787L110.932 176.777ZM93.2781 180.735C93.6686 180.345 93.6686 179.711 93.2781 179.321C92.8876 178.93 92.2544 178.93 91.8639 179.321L93.2781 180.735ZM91.127 181.472L90.4685 180.719C90.4492 180.736 90.4306 180.754 90.4127 180.772L91.127 181.472ZM89.493 185.576L89.9819 186.448L89.9834 186.448L89.493 185.576ZM99.601 179.576L99.1741 178.672C99.1685 178.674 99.1629 178.677 99.1574 178.68L99.601 179.576ZM110.387 176.665C110.92 176.521 111.235 175.972 111.09 175.438C110.946 174.905 110.397 174.59 109.863 174.735L110.387 176.665ZM190.033 384.3L189.038 384.399L189.039 384.411L190.033 384.3ZM187.145 371.3L188.089 370.968C187.913 370.469 187.379 370.193 186.87 370.339L187.145 371.3ZM162.333 371.3L162.608 370.339C162.427 370.287 162.236 370.287 162.055 370.34L162.333 371.3ZM132.885 389.956L132.202 389.226C131.902 389.506 131.804 389.941 131.955 390.323C132.106 390.705 132.475 390.956 132.885 390.956V389.956ZM185.169 389.728L185.172 388.728H185.167L185.169 389.728ZM187.166 389.304L186.759 388.391L186.757 388.392L187.166 389.304ZM188.816 388.102L188.072 387.434L188.07 387.436L188.816 388.102ZM189.831 386.332L190.783 386.637L190.783 386.637L189.831 386.332ZM201.141 311.808C201.128 311.256 200.67 310.819 200.118 310.832C199.566 310.845 199.129 311.303 199.142 311.856L201.141 311.808ZM186.155 371.175C186.062 371.719 186.427 372.236 186.972 372.33C187.516 372.423 188.033 372.058 188.127 371.513L186.155 371.175ZM161.352 371.116C161.247 371.658 161.601 372.183 162.143 372.288C162.686 372.393 163.21 372.038 163.315 371.496L161.352 371.116ZM175.667 307.686C175.772 307.144 175.418 306.619 174.875 306.514C174.333 306.409 173.809 306.764 173.704 307.306L175.667 307.686ZM217.354 265.18C217.522 264.654 217.232 264.092 216.706 263.923C216.18 263.755 215.617 264.046 215.449 264.572L217.354 265.18ZM201.469 311.612L201.643 312.597C202.009 312.532 202.309 312.27 202.422 311.916L201.469 311.612ZM172.857 306.52L171.879 306.315C171.79 306.737 171.982 307.168 172.355 307.385L172.857 306.52ZM195.61 202.805C195.723 202.265 195.377 201.735 194.837 201.621C194.296 201.508 193.766 201.854 193.653 202.395L195.61 202.805ZM310.523 351.888L310.05 352.769C310.057 352.772 310.063 352.776 310.07 352.779L310.523 351.888ZM303.455 348.088L303.929 347.207C303.665 347.065 303.351 347.049 303.074 347.163C302.797 347.278 302.586 347.51 302.499 347.797L303.455 348.088ZM288.559 365.756L288.011 364.92C287.788 365.066 287.633 365.295 287.579 365.557C287.526 365.818 287.58 366.09 287.728 366.312L288.559 365.756ZM291.409 377.42L292.095 378.148C292.232 378.019 292.33 377.854 292.377 377.672L291.409 377.42ZM281.303 389.98L280.37 389.62C280.252 389.928 280.292 390.274 280.479 390.546C280.665 390.818 280.974 390.98 281.303 390.98V389.98ZM297.303 389.98L297.326 388.98C297.318 388.98 297.311 388.98 297.303 388.98V389.98ZM303.407 388.346L303.926 389.201L303.926 389.201L303.407 388.346ZM307.677 383.69L308.574 384.133C308.578 384.125 308.582 384.117 308.585 384.109L307.677 383.69ZM314.325 361.766L313.392 361.408C313.39 361.414 313.387 361.419 313.385 361.425L314.325 361.766ZM314.321 356.096L315.255 355.737L315.255 355.737L314.321 356.096ZM287.864 366.438C288.24 366.843 288.873 366.867 289.278 366.491C289.682 366.116 289.706 365.483 289.331 365.078L287.864 366.438ZM243.545 315.72C243.169 315.315 242.536 315.291 242.131 315.667C241.726 316.042 241.703 316.675 242.078 317.08L243.545 315.72ZM263.357 300.01C262.93 299.659 262.3 299.72 261.949 300.147C261.598 300.573 261.66 301.203 262.086 301.554L263.357 300.01ZM280.087 318.68L280.895 318.091C280.89 318.083 280.884 318.076 280.878 318.068L280.087 318.68ZM302.685 348.717C303.036 349.143 303.667 349.203 304.092 348.851C304.518 348.499 304.578 347.869 304.226 347.443L302.685 348.717ZM207.909 228.6C207.769 228.066 207.222 227.747 206.688 227.887C206.154 228.027 205.834 228.573 205.974 229.108L207.909 228.6ZM224.421 295.54L223.454 295.794L223.454 295.794L224.421 295.54ZM232.249 308.8L232.939 308.076H232.939L232.249 308.8ZM240.959 317.092L240.27 317.816C240.535 318.069 240.918 318.156 241.266 318.044L240.959 317.092ZM263.405 299.718L264.25 300.253C264.453 299.933 264.457 299.525 264.261 299.2L263.405 299.718ZM255.541 286.718L254.546 286.816C254.561 286.964 254.608 287.108 254.686 287.236L255.541 286.718ZM250.563 236.03L249.568 236.126L249.568 236.128L250.563 236.03ZM227.653 200.374C227.12 200.227 226.569 200.539 226.422 201.071C226.274 201.603 226.586 202.154 227.118 202.302L227.653 200.374ZM221.29 149.644C221.634 149.212 221.562 148.583 221.13 148.239C220.698 147.896 220.068 147.967 219.725 148.4L221.29 149.644ZM205.423 175.734L204.569 176.253C204.768 176.581 205.136 176.766 205.518 176.73C205.9 176.693 206.227 176.442 206.361 176.083L205.423 175.734ZM196.386 149.465C196.237 148.933 195.686 148.622 195.154 148.771C194.622 148.92 194.311 149.472 194.46 150.003L196.386 149.465ZM52.369 389C51.8167 389 51.369 389.448 51.369 390C51.369 390.552 51.8167 391 52.369 391V389ZM354.599 391C355.152 391 355.599 390.552 355.599 390C355.599 389.448 355.152 389 354.599 389V391ZM318.463 77.0562L318.277 78.0387L318.278 78.0388L318.463 77.0562ZM286.463 96.8142L285.481 96.6285L285.48 96.6338L286.463 96.8142ZM288.251 111.062L289.105 111.583C289.278 111.299 289.299 110.947 289.16 110.644L288.251 111.062ZM281.753 121.702L280.9 121.181C280.693 121.521 280.706 121.951 280.935 122.277C281.163 122.602 281.563 122.762 281.953 122.682L281.753 121.702ZM294.065 119.194L294.758 118.472C294.521 118.245 294.187 118.149 293.866 118.214L294.065 119.194ZM309.035 126.87L309.221 125.888L309.218 125.887L309.035 126.87ZM341.035 107.112L340.053 106.925L340.053 106.927L341.035 107.112ZM313.056 105.038C313.043 105.59 313.481 106.047 314.033 106.06C314.585 106.072 315.043 105.634 315.055 105.082L313.056 105.038ZM316.867 99.284L316.068 98.683L316.068 98.6832L316.867 99.284ZM314.777 88.834L314.825 87.8351L314.822 87.835L314.777 88.834ZM312.745 89.1934L313.13 90.1164L313.13 90.1163L312.745 89.1934ZM308.887 94.3748C308.965 94.9216 309.471 95.3018 310.018 95.2241C310.565 95.1463 310.945 94.64 310.867 94.0932L308.887 94.3748ZM297.565 288.232C297.013 288.232 296.565 288.68 296.565 289.232C296.565 289.784 297.013 290.232 297.565 290.232V288.232ZM305.773 290.232C306.326 290.232 306.773 289.784 306.773 289.232C306.773 288.68 306.326 288.232 305.773 288.232V290.232ZM320.325 288.194C319.773 288.194 319.325 288.642 319.325 289.194C319.325 289.746 319.773 290.194 320.325 290.194V288.194ZM328.533 290.194C329.086 290.194 329.533 289.746 329.533 289.194C329.533 288.642 329.086 288.194 328.533 288.194V290.194ZM314.049 273.728C314.049 273.176 313.602 272.728 313.049 272.728C312.497 272.728 312.049 273.176 312.049 273.728H314.049ZM312.049 281.936C312.049 282.488 312.497 282.936 313.049 282.936C313.602 282.936 314.049 282.488 314.049 281.936H312.049ZM314.087 296.49C314.087 295.938 313.64 295.49 313.087 295.49C312.535 295.49 312.087 295.938 312.087 296.49H314.087ZM312.087 304.696C312.087 305.248 312.535 305.696 313.087 305.696C313.64 305.696 314.087 305.248 314.087 304.696H312.087ZM302.792 277.579C302.4 277.189 301.767 277.191 301.378 277.583C300.989 277.975 300.991 278.608 301.383 278.997L302.792 277.579ZM307.197 284.773C307.588 285.163 308.222 285.161 308.611 284.769C309 284.377 308.998 283.744 308.606 283.355L307.197 284.773ZM318.94 293.652C318.548 293.263 317.915 293.265 317.526 293.657C317.137 294.049 317.139 294.682 317.531 295.072L318.94 293.652ZM323.345 300.846C323.737 301.235 324.37 301.233 324.759 300.841C325.148 300.449 325.146 299.816 324.754 299.426L323.345 300.846ZM324.719 278.957C325.109 278.567 325.109 277.933 324.719 277.543C324.328 277.152 323.695 277.152 323.304 277.543L324.719 278.957ZM317.49 283.357C317.1 283.747 317.1 284.381 317.49 284.771C317.881 285.162 318.514 285.162 318.905 284.771L317.49 283.357ZM308.646 295.069C309.037 294.679 309.037 294.046 308.647 293.655C308.256 293.264 307.623 293.264 307.232 293.655L308.646 295.069ZM301.418 299.467C301.028 299.857 301.028 300.49 301.418 300.881C301.809 301.272 302.442 301.272 302.832 300.881L301.418 299.467ZM52.5212 96.472L52.5191 97.472H52.5211L52.5212 96.472ZM46.3684 92.9096L45.5022 93.4092L45.5022 93.4093L46.3684 92.9096ZM46.3652 85.8L45.4991 85.3002L45.4985 85.3012L46.3652 85.8ZM88.0492 13.5621L87.1836 13.0614L87.1831 13.0623L88.0492 13.5621ZM90.6594 10.9546L90.1597 10.0884L90.1597 10.0885L90.6594 10.9546ZM97.787 10.9546L97.2873 11.8208L97.2873 11.8208L97.787 10.9546ZM100.397 13.5621L101.263 13.0623L101.263 13.0615L100.397 13.5621ZM142.081 85.8L141.215 86.2998L141.215 86.3001L142.081 85.8ZM143.035 89.3572L142.035 89.3575V89.3577L143.035 89.3572ZM135.925 96.478L135.925 97.478H135.926L135.925 96.478ZM153.517 54.714L154.513 54.6247L154.513 54.6222L153.517 54.714ZM153.067 56.8818L152.189 56.4026L152.189 56.4028L153.067 56.8818ZM151.487 58.4338L151.024 57.5478L151.024 57.5478L151.487 58.4338ZM147.274 57.982L147.915 57.2146L147.915 57.2145L147.274 57.982ZM146.06 56.1304L147.019 55.8485L147.019 55.8483L146.06 56.1304ZM147.325 52.0858L147.952 52.8643L147.952 52.8642L147.325 52.0858ZM149.377 51.256L149.291 50.2598L149.288 50.26L149.377 51.256ZM152.161 52.1308L151.52 52.8983L151.52 52.8984L152.161 52.1308ZM123.607 331.408C123.607 330.856 123.16 330.408 122.607 330.408C122.055 330.408 121.607 330.856 121.607 331.408H123.607ZM121.607 346.76C121.607 347.312 122.055 347.76 122.607 347.76C123.16 347.76 123.607 347.312 123.607 346.76H121.607ZM130.301 340.084C130.853 340.084 131.301 339.636 131.301 339.084C131.301 338.532 130.853 338.084 130.301 338.084V340.084ZM114.913 338.084C114.361 338.084 113.913 338.532 113.913 339.084C113.913 339.636 114.361 340.084 114.913 340.084V338.084ZM212.963 146.773C212.476 146.512 211.87 146.694 211.609 147.181C211.347 147.667 211.53 148.273 212.016 148.535L212.963 146.773ZM214.873 148.277L214.891 147.277H214.891L214.873 148.277ZM217.277 147.739L217.719 148.637L217.72 148.636L217.277 147.739ZM219.167 146.161L218.364 145.566L218.363 145.567L219.167 146.161ZM220.127 143.892L221.001 143.405C220.793 143.033 220.374 142.833 219.954 142.907C219.535 142.981 219.209 143.311 219.14 143.731L220.127 143.892ZM222.759 146.204L223.131 145.276L223.131 145.276L222.759 146.204ZM229.065 144.248L228.234 143.692L228.233 143.693L229.065 144.248ZM229.927 140.852L230.511 140.04C230.193 139.811 229.771 139.79 229.431 139.984C229.091 140.179 228.896 140.554 228.932 140.944L229.927 140.852ZM233.139 141.832L233.17 142.832H233.17L233.139 141.832ZM236.283 140.658L235.652 139.882L235.651 139.883L236.283 140.658ZM237.753 134.47L238.022 133.507C237.649 133.403 237.249 133.524 236.996 133.818C236.743 134.111 236.682 134.525 236.841 134.879L237.753 134.47ZM240.159 134.564L240.352 135.546L240.352 135.546L240.159 134.564ZM243.859 131.693L244.762 132.124L244.762 132.124L243.859 131.693ZM244.365 129.34L243.366 129.357L243.366 129.362L244.365 129.34ZM243.921 127.314L243.005 127.715L243.005 127.715L243.921 127.314ZM242.731 125.616L242.704 124.616C242.3 124.628 241.942 124.881 241.798 125.258C241.653 125.635 241.749 126.062 242.042 126.34L242.731 125.616ZM247.785 120.334L248.785 120.318L248.785 120.316L247.785 120.334ZM246.737 117.27L245.935 117.867L245.936 117.869L246.737 117.27ZM244.099 115.394L243.817 114.435C243.395 114.559 243.104 114.944 243.099 115.384C243.095 115.824 243.379 116.215 243.798 116.347L244.099 115.394ZM246.847 113.481L246.046 112.883L246.045 112.884L246.847 113.481ZM247.899 110.302L248.899 110.3L248.899 110.289L247.899 110.302ZM246.417 106.735L247.132 106.035L247.132 106.035L246.417 106.735ZM242.883 105.174L242.212 104.433C241.911 104.706 241.804 105.135 241.944 105.517C242.084 105.899 242.441 106.159 242.848 106.173L242.883 105.174ZM244.465 102.49L243.492 102.26L243.492 102.262L244.465 102.49ZM244.243 99.3814L243.312 99.7449L243.312 99.7464L244.243 99.3814ZM242.295 96.9494L241.736 97.7781L241.737 97.7788L242.295 96.9494ZM239.311 96.054L239.301 95.054L239.289 95.0543L239.311 96.054ZM238.057 96.244L237.152 95.8197C236.986 96.1747 237.042 96.5942 237.296 96.8926C237.551 97.191 237.956 97.3133 238.333 97.2054L238.057 96.244ZM238.433 92.9046L237.456 93.1167L237.457 93.1183L238.433 92.9046ZM236.703 90.024L237.35 89.2611L237.35 89.261L236.703 90.024ZM233.577 88.789L233.528 89.7878L233.528 89.7878L233.577 88.789ZM230.345 89.708L229.351 89.5981C229.308 89.9871 229.496 90.3655 229.832 90.5663C230.168 90.7672 230.59 90.7535 230.913 90.5315L230.345 89.708ZM226.779 84.159L226.467 85.1089L226.467 85.109L226.779 84.159ZM223.281 84.2402L223.638 85.1746L223.638 85.1746L223.281 84.2402ZM220.617 86.508L219.628 86.6517C219.689 87.073 220.01 87.4094 220.428 87.4899C220.846 87.5705 221.269 87.3776 221.483 87.0092L220.617 86.508ZM209.939 86.47L209.07 86.9647C209.281 87.3345 209.702 87.5306 210.121 87.4534C210.539 87.3762 210.863 87.0427 210.928 86.6221L209.939 86.47ZM207.291 84.1816L206.928 85.113L206.928 85.1133L207.291 84.1816ZM203.795 84.0708L204.099 85.0236L204.1 85.0234L203.795 84.0708ZM201.007 86.1872L200.172 85.638L200.171 85.6391L201.007 86.1872ZM200.175 89.586L199.6 90.4041C199.92 90.6291 200.342 90.6468 200.68 90.4493C201.018 90.2518 201.21 89.8754 201.17 89.4861L200.175 89.586ZM193.812 89.8392L193.173 89.0695L193.173 89.0695L193.812 89.8392ZM192.048 92.7014L193.023 92.9254V92.9254L192.048 92.7014ZM192.385 96.046L192.123 97.011C192.497 97.1127 192.896 96.9891 193.147 96.6939C193.398 96.3986 193.456 95.9849 193.296 95.632L192.385 96.046ZM188.975 96.2738L188.587 95.3524L188.587 95.3524L188.975 96.2738ZM186.431 98.5566L187.306 99.0423L187.306 99.0422L186.431 98.5566ZM187.445 104.938L187.476 105.938C187.882 105.925 188.239 105.669 188.382 105.289C188.524 104.909 188.423 104.481 188.126 104.205L187.445 104.938ZM182.43 109.482L181.438 109.353L181.438 109.353L182.43 109.482ZM183.228 112.998L182.389 113.543L182.39 113.543L183.228 112.998ZM186.115 115.158L186.394 116.118C186.82 115.995 187.114 115.605 187.115 115.162C187.117 114.718 186.826 114.326 186.401 114.2L186.115 115.158ZM182.39 120.803L183.383 120.681L183.383 120.681L182.39 120.803ZM184.037 124.008L183.361 124.744L183.361 124.744L184.037 124.008ZM187.369 125.38L188.047 126.115C188.345 125.841 188.448 125.414 188.308 125.034C188.167 124.654 187.812 124.396 187.407 124.381L187.369 125.38ZM185.753 128.385L186.74 128.546L186.74 128.545L185.753 128.385ZM186.335 131.747L187.211 131.265L187.211 131.265L186.335 131.747ZM188.867 134.035L188.476 134.955L188.476 134.955L188.867 134.035ZM192.271 134.272L193.175 134.7C193.342 134.348 193.289 133.931 193.039 133.631C192.789 133.332 192.388 133.205 192.012 133.306L192.271 134.272ZM191.789 136.949L192.786 136.863L192.786 136.863L191.789 136.949ZM192.725 139.503L193.541 138.926L193.541 138.926L192.725 139.503ZM194.822 141.236L194.409 142.146L194.41 142.147L194.822 141.236ZM197.611 142.667C198.16 142.61 198.559 142.118 198.502 141.569C198.445 141.019 197.953 140.62 197.404 140.677L197.611 142.667ZM254.547 309.747C254.902 310.17 255.533 310.225 255.956 309.87C256.379 309.515 256.434 308.884 256.079 308.461L254.547 309.747ZM246.161 296.643C245.806 296.22 245.176 296.165 244.753 296.52C244.33 296.875 244.274 297.506 244.629 297.929L246.161 296.643ZM189.601 311.536C189.455 312.069 189.767 312.619 190.3 312.766C190.832 312.913 191.383 312.6 191.529 312.068L189.601 311.536ZM195.595 297.324C195.742 296.791 195.43 296.241 194.897 296.094C194.365 295.947 193.814 296.26 193.667 296.792L195.595 297.324ZM221.278 213.931C220.926 213.505 220.296 213.445 219.87 213.797C219.445 214.149 219.385 214.78 219.737 215.205L221.278 213.931ZM238.491 224.838C239.043 224.831 239.486 224.379 239.479 223.826C239.473 223.274 239.02 222.832 238.468 222.838L238.491 224.838ZM95.1836 37.788C95.1836 37.2357 94.7359 36.788 94.1836 36.788C93.6313 36.788 93.1836 37.2357 93.1836 37.788H95.1836ZM93.1836 63.3598C93.1836 63.9121 93.6313 64.3598 94.1836 64.3598C94.7359 64.3598 95.1836 63.9121 95.1836 63.3598H93.1836ZM129.352 169.78C131.289 169.78 132.86 168.209 132.86 166.272H130.86C130.86 167.105 130.185 167.78 129.352 167.78V169.78ZM132.86 166.272C132.86 164.335 131.289 162.764 129.352 162.764V164.764C130.184 164.764 130.86 165.439 130.86 166.272H132.86ZM129.352 162.764C127.414 162.764 125.844 164.335 125.844 166.272H127.844C127.844 165.439 128.519 164.764 129.352 164.764V162.764ZM125.844 166.272C125.844 168.21 127.414 169.78 129.352 169.78V167.78C128.519 167.78 127.844 167.105 127.844 166.272H125.844ZM150.924 187.932C150.924 188.231 150.835 188.522 150.67 188.77L152.332 189.881C152.718 189.304 152.924 188.626 152.924 187.932H150.924ZM150.67 188.77C150.504 189.018 150.268 189.211 149.993 189.325L150.758 191.173C151.399 190.908 151.947 190.458 152.332 189.881L150.67 188.77ZM149.993 189.325C149.717 189.439 149.414 189.469 149.122 189.411L148.731 191.373C149.412 191.508 150.117 191.439 150.758 191.173L149.993 189.325ZM149.121 189.411C148.829 189.353 148.56 189.209 148.349 188.998L146.935 190.413C147.426 190.903 148.051 191.237 148.732 191.373L149.121 189.411ZM148.349 188.998C148.138 188.788 147.995 188.519 147.937 188.226L145.975 188.617C146.11 189.297 146.444 189.922 146.935 190.413L148.349 188.998ZM147.937 188.226C147.878 187.934 147.908 187.631 148.022 187.355L146.175 186.59C145.909 187.23 145.84 187.936 145.975 188.617L147.937 188.226ZM148.023 187.355C148.137 187.079 148.33 186.844 148.578 186.678L147.467 185.015C146.89 185.401 146.44 185.949 146.175 186.59L148.023 187.355ZM148.578 186.678C148.826 186.512 149.118 186.424 149.416 186.424V184.424C148.722 184.424 148.044 184.63 147.467 185.015L148.578 186.678ZM149.407 186.424C149.809 186.427 150.193 186.588 150.476 186.872L151.89 185.457C151.235 184.802 150.35 184.432 149.424 184.424L149.407 186.424ZM150.476 186.872C150.76 187.155 150.92 187.539 150.924 187.94L152.924 187.924C152.916 186.998 152.545 186.112 151.89 185.457L150.476 186.872ZM174.367 169.692C174.367 169.991 174.279 170.282 174.113 170.53L175.776 171.641C176.162 171.064 176.367 170.386 176.367 169.692H174.367ZM174.113 170.53C173.948 170.778 173.712 170.971 173.437 171.085L174.202 172.933C174.843 172.668 175.391 172.218 175.776 171.641L174.113 170.53ZM173.437 171.085C173.161 171.199 172.858 171.229 172.565 171.171L172.175 173.133C172.856 173.268 173.561 173.199 174.202 172.933L173.437 171.085ZM172.565 171.171C172.273 171.113 172.004 170.969 171.793 170.758L170.379 172.173C170.869 172.663 171.495 172.997 172.175 173.133L172.565 171.171ZM171.793 170.758C171.582 170.547 171.439 170.279 171.38 169.986L169.419 170.377C169.554 171.057 169.889 171.682 170.379 172.173L171.793 170.758ZM171.38 169.987C171.322 169.694 171.352 169.39 171.466 169.115L169.618 168.35C169.353 168.991 169.284 169.696 169.419 170.376L171.38 169.987ZM171.466 169.115C171.58 168.839 171.774 168.604 172.022 168.438L170.911 166.775C170.334 167.161 169.884 167.709 169.619 168.35L171.466 169.115ZM172.022 168.438C172.27 168.272 172.561 168.184 172.859 168.184V166.184C172.165 166.184 171.487 166.39 170.911 166.775L172.022 168.438ZM172.851 168.184C173.252 168.187 173.636 168.348 173.92 168.632L175.334 167.218C174.679 166.564 173.794 166.192 172.868 166.184L172.851 168.184ZM173.919 168.632C174.203 168.916 174.364 169.3 174.367 169.7L176.367 169.684C176.36 168.758 175.988 167.872 175.334 167.218L173.919 168.632ZM200.129 191.122C200.129 191.422 200.041 191.713 199.876 191.96L201.539 193.072C201.926 192.493 202.129 191.814 202.129 191.122H200.129ZM199.874 191.963C199.711 192.209 199.476 192.402 199.2 192.517L199.966 194.364C200.607 194.099 201.156 193.649 201.541 193.069L199.874 191.963ZM199.199 192.517C198.924 192.631 198.621 192.661 198.328 192.603L197.939 194.565C198.62 194.7 199.325 194.63 199.966 194.364L199.199 192.517ZM198.328 192.603C198.036 192.545 197.767 192.402 197.556 192.191L196.142 193.606C196.633 194.096 197.258 194.43 197.939 194.565L198.328 192.603ZM197.556 192.191C197.345 191.98 197.201 191.711 197.143 191.419L195.181 191.81C195.317 192.49 195.651 193.115 196.142 193.606L197.556 192.191ZM197.143 191.419C197.085 191.126 197.114 190.823 197.228 190.547L195.38 189.782C195.115 190.424 195.046 191.129 195.181 191.809L197.143 191.419ZM197.228 190.547C197.342 190.272 197.536 190.036 197.784 189.871L196.673 188.207C196.096 188.593 195.646 189.141 195.38 189.782L197.228 190.547ZM197.784 189.87C198.032 189.704 198.324 189.616 198.622 189.616V187.616C197.928 187.616 197.249 187.822 196.672 188.208L197.784 189.87ZM198.613 189.616C199.014 189.619 199.397 189.78 199.68 190.063L201.095 188.65C200.441 187.995 199.555 187.624 198.63 187.616L198.613 189.616ZM199.681 190.065C199.965 190.347 200.126 190.73 200.129 191.131L202.129 191.113C202.121 190.188 201.75 189.303 201.093 188.648L199.681 190.065ZM222.015 169.692C222.015 169.989 221.927 170.282 221.76 170.532L223.426 171.639C223.808 171.064 224.015 170.387 224.015 169.692H222.015ZM221.762 170.529C221.596 170.778 221.36 170.971 221.085 171.085L221.85 172.933C222.491 172.668 223.039 172.218 223.424 171.642L221.762 170.529ZM221.085 171.085C220.81 171.199 220.507 171.229 220.212 171.171L219.823 173.133C220.504 173.268 221.209 173.199 221.85 172.933L221.085 171.085ZM220.212 171.171C219.922 171.113 219.653 170.97 219.439 170.757L218.028 172.174C218.518 172.663 219.141 172.997 219.822 173.133L220.212 171.171ZM219.441 170.759C219.231 170.549 219.087 170.279 219.028 169.984L217.067 170.379C217.204 171.056 217.535 171.681 218.026 172.172L219.441 170.759ZM219.029 169.988C218.971 169.695 219.001 169.39 219.115 169.112L217.264 168.353C217.002 168.992 216.932 169.695 217.066 170.375L219.029 169.988ZM219.113 169.115C219.227 168.84 219.421 168.604 219.669 168.438L218.557 166.776C217.982 167.161 217.532 167.708 217.266 168.349L219.113 169.115ZM219.668 168.439C219.919 168.272 220.21 168.184 220.507 168.184V166.184C219.813 166.184 219.136 166.39 218.559 166.774L219.668 168.439ZM220.499 168.184C220.9 168.187 221.284 168.348 221.569 168.633L222.982 167.217C222.327 166.564 221.443 166.192 220.516 166.184L220.499 168.184ZM221.567 168.631C221.851 168.915 222.012 169.299 222.015 169.701L224.015 169.683C224.007 168.758 223.636 167.873 222.983 167.219L221.567 168.631ZM249.373 171.136C249.373 171.433 249.285 171.726 249.118 171.976L250.784 173.083C251.166 172.508 251.373 171.831 251.373 171.136H249.373ZM249.12 171.973C248.954 172.222 248.718 172.415 248.443 172.529L249.208 174.377C249.849 174.112 250.397 173.662 250.782 173.086L249.12 171.973ZM248.443 172.529C248.168 172.643 247.865 172.673 247.57 172.615L247.181 174.577C247.862 174.712 248.567 174.643 249.208 174.377L248.443 172.529ZM247.571 172.615C247.279 172.557 247.011 172.414 246.797 172.201L245.386 173.618C245.876 174.107 246.499 174.441 247.18 174.577L247.571 172.615ZM246.799 172.203C246.588 171.991 246.444 171.722 246.387 171.432L244.424 171.819C244.559 172.502 244.895 173.127 245.384 173.616L246.799 172.203ZM246.387 171.432C246.329 171.139 246.359 170.834 246.473 170.556L244.622 169.797C244.36 170.436 244.29 171.139 244.424 171.819L246.387 171.432ZM246.471 170.559C246.585 170.284 246.779 170.048 247.027 169.882L245.915 168.22C245.34 168.605 244.89 169.152 244.624 169.793L246.471 170.559ZM247.026 169.883C247.277 169.716 247.568 169.628 247.865 169.628V167.628C247.171 167.628 246.494 167.834 245.917 168.218L247.026 169.883ZM247.857 169.628C248.258 169.631 248.642 169.792 248.927 170.077L250.34 168.661C249.685 168.007 248.801 167.636 247.874 167.628L247.857 169.628ZM248.926 170.075C249.209 170.359 249.37 170.743 249.373 171.145L251.373 171.127C251.365 170.202 250.994 169.317 250.341 168.663L248.926 170.075ZM278.149 170.692C280.088 170.692 281.657 169.121 281.657 167.184H279.657C279.657 168.017 278.983 168.692 278.149 168.692V170.692ZM281.657 167.184C281.657 165.247 280.088 163.676 278.149 163.676V165.676C278.983 165.676 279.657 166.351 279.657 167.184H281.657ZM278.149 163.676C276.213 163.676 274.641 165.246 274.641 167.184H276.641C276.641 166.352 277.317 165.676 278.149 165.676V163.676ZM274.641 167.184C274.641 169.122 276.213 170.692 278.149 170.692V168.692C277.317 168.692 276.641 168.017 276.641 167.184H274.641ZM266.243 194.2C266.243 194.497 266.155 194.79 265.989 195.04L267.654 196.147C268.036 195.572 268.243 194.895 268.243 194.2H266.243ZM265.99 195.037C265.824 195.285 265.588 195.479 265.312 195.594L266.079 197.441C266.719 197.175 267.267 196.726 267.652 196.15L265.99 195.037ZM265.313 195.593C265.038 195.707 264.735 195.737 264.44 195.679L264.051 197.641C264.732 197.776 265.437 197.707 266.078 197.441L265.313 195.593ZM264.441 195.679C264.149 195.621 263.881 195.478 263.667 195.265L262.256 196.682C262.746 197.171 263.369 197.505 264.05 197.641L264.441 195.679ZM263.669 195.267C263.459 195.057 263.315 194.787 263.256 194.492L261.295 194.887C261.432 195.564 261.763 196.189 262.254 196.68L263.669 195.267ZM263.257 194.496C263.199 194.203 263.229 193.898 263.343 193.62L261.492 192.861C261.23 193.5 261.16 194.203 261.294 194.883L263.257 194.496ZM263.341 193.623C263.455 193.348 263.649 193.112 263.897 192.946L262.786 191.283C262.21 191.668 261.759 192.216 261.494 192.857L263.341 193.623ZM263.896 192.947C264.147 192.78 264.438 192.692 264.735 192.692V190.692C264.041 190.692 263.364 190.898 262.787 191.282L263.896 192.947ZM264.746 192.692C264.943 192.69 265.139 192.727 265.322 192.802L266.077 190.95C265.648 190.775 265.188 190.687 264.725 190.692L264.746 192.692ZM265.322 192.802C265.505 192.876 265.671 192.987 265.811 193.127L267.224 191.711C266.896 191.384 266.506 191.125 266.077 190.95L265.322 192.802ZM265.808 193.123C265.949 193.266 266.06 193.433 266.133 193.612L267.986 192.86C267.811 192.428 267.55 192.039 267.227 191.714L265.808 193.123ZM266.135 193.617C266.209 193.797 266.246 193.991 266.243 194.188L268.243 194.212C268.249 193.749 268.162 193.287 267.984 192.855L266.135 193.617ZM314.386 110.788C314.383 110.874 314.345 110.953 314.285 111.008L315.638 112.481C316.09 112.066 316.356 111.49 316.384 110.88L314.386 110.788ZM314.285 111.008C314.225 111.063 314.145 111.093 314.061 111.089L313.974 113.087C314.586 113.114 315.186 112.896 315.638 112.481L314.285 111.008ZM314.06 111.089C313.977 111.085 313.9 111.049 313.846 110.99L312.368 112.338C312.783 112.792 313.362 113.061 313.974 113.087L314.06 111.089ZM313.843 110.987C313.787 110.926 313.759 110.846 313.762 110.766L311.764 110.674C311.736 111.29 311.956 111.889 312.371 112.341L313.843 110.987ZM313.762 110.766C313.765 110.719 313.775 110.68 313.789 110.651L311.982 109.795C311.848 110.078 311.778 110.377 311.764 110.674L313.762 110.766ZM313.794 110.641C313.808 110.61 313.832 110.576 313.866 110.544L312.509 109.075C312.291 109.277 312.107 109.523 311.977 109.804L313.794 110.641ZM313.86 110.55C313.895 110.518 313.931 110.497 313.968 110.484L313.283 108.604C312.996 108.709 312.736 108.868 312.515 109.07L313.86 110.55ZM313.968 110.484C314.006 110.47 314.047 110.463 314.088 110.465L314.174 108.467C313.872 108.454 313.569 108.5 313.283 108.604L313.968 110.484ZM314.087 110.465C314.13 110.467 314.171 110.477 314.207 110.494L315.052 108.681C314.776 108.552 314.477 108.48 314.176 108.467L314.087 110.465ZM314.207 110.494C314.243 110.511 314.276 110.535 314.303 110.565L315.78 109.216C315.575 108.992 315.328 108.81 315.052 108.681L314.207 110.494ZM314.303 110.565C314.335 110.6 314.355 110.636 314.366 110.665L316.249 109.991C316.143 109.697 315.98 109.435 315.78 109.216L314.303 110.565ZM314.366 110.665C314.383 110.713 314.388 110.755 314.386 110.788L316.384 110.88C316.399 110.57 316.348 110.267 316.249 109.991L314.366 110.665ZM92.431 156.774V96.472H90.431V156.774H92.431ZM92.431 169.958V157.686H90.431V169.958H92.431ZM92.431 390V184.55H90.431V390H92.431ZM96.017 181.13V390H98.017V181.13H96.017ZM96.017 161.41V167.716H98.017V161.41H96.017ZM96.017 96.472V157.116H98.017V96.472H96.017ZM297.866 171.159C307.277 192.516 308.434 216.603 301.114 238.762L303.013 239.39C310.489 216.761 309.306 192.162 299.697 170.353L297.866 171.159ZM301.114 238.762C293.795 260.923 278.518 279.581 258.239 291.131L259.228 292.869C279.937 281.074 295.539 262.021 303.013 239.39L301.114 238.762ZM131.305 159.957C139.232 147.038 150.156 136.222 163.153 128.424L162.124 126.709C148.851 134.672 137.695 145.718 129.601 158.911L131.305 159.957ZM163.152 128.424C169.346 124.708 175.922 121.73 182.748 119.532L182.135 117.628C175.164 119.873 168.448 122.914 162.124 126.709L163.152 128.424ZM287.037 149.4C277.413 137.278 265.008 127.655 250.873 121.348L250.058 123.174C263.899 129.35 276.046 138.773 285.47 150.644L287.037 149.4ZM250.873 121.348C249.943 120.933 249.008 120.533 248.066 120.148L247.309 121.999C248.231 122.376 249.147 122.767 250.058 123.174L250.873 121.348ZM175.222 296.136C158.093 288.954 143.466 276.872 133.179 261.408L131.514 262.516C142.019 278.308 156.956 290.646 174.449 297.98L175.222 296.136ZM133.179 261.408C122.893 245.942 117.404 227.783 117.401 209.21L115.401 209.21C115.404 228.177 121.009 246.722 131.514 262.516L133.179 261.408ZM117.401 209.21C117.401 199.938 118.755 190.716 121.419 181.835L119.503 181.261C116.783 190.328 115.401 199.744 115.401 209.21L117.401 209.21ZM227.445 302.121C222.269 303.212 216.978 303.651 211.693 303.431L211.61 305.429C217.061 305.657 222.518 305.204 227.858 304.079L227.445 302.121ZM211.651 303.43C209.078 303.43 206.49 303.327 203.943 303.123L203.784 305.117C206.384 305.325 209.025 305.43 211.651 305.43V303.43ZM301.456 166.629C293.983 174.102 284.112 184.91 273.921 197.21L275.461 198.486C285.619 186.226 295.448 175.466 302.87 168.043L301.456 166.629ZM273.92 197.211C271.544 200.089 268.161 201.952 264.462 202.42L264.713 204.404C268.918 203.872 272.763 201.755 275.463 198.485L273.92 197.211ZM264.461 202.42C260.76 202.89 257.019 201.929 254.001 199.737L252.826 201.355C256.255 203.847 260.507 204.938 264.713 204.404L264.461 202.42ZM254.002 199.737C245.046 193.223 239.082 188.606 229.23 181.387L228.048 183.001C237.801 190.146 243.921 194.877 252.825 201.355L254.002 199.737ZM204.676 147.19L207.76 142.794L206.123 141.646L203.039 146.042L204.676 147.19ZM283.886 150.331C275.458 157.644 267.905 165.909 261.378 174.959L263 176.129C269.437 167.204 276.885 159.054 285.197 151.841L283.886 150.331ZM262.189 175.544C262.831 174.777 262.831 174.777 262.831 174.777C262.831 174.777 262.831 174.777 262.83 174.776C262.83 174.776 262.829 174.775 262.828 174.774C262.825 174.772 262.822 174.769 262.817 174.765C262.808 174.757 262.794 174.746 262.775 174.731C262.739 174.7 262.684 174.655 262.613 174.595C262.47 174.476 262.259 174.301 261.986 174.076C261.441 173.625 260.647 172.972 259.655 172.164C257.67 170.548 254.888 168.312 251.699 165.828C245.33 160.866 237.303 154.89 230.755 150.904L229.715 152.612C236.159 156.534 244.11 162.451 250.47 167.405C253.645 169.879 256.416 172.106 258.392 173.715C259.381 174.519 260.17 175.169 260.712 175.617C260.983 175.841 261.192 176.015 261.334 176.132C261.404 176.191 261.458 176.236 261.494 176.266C261.512 176.281 261.525 176.292 261.534 176.3C261.539 176.303 261.542 176.306 261.544 176.308C261.545 176.309 261.546 176.31 261.547 176.31C261.547 176.31 261.547 176.31 261.547 176.311C261.547 176.311 261.547 176.311 262.189 175.544ZM230.755 150.904C227.277 148.786 224.396 148.034 221.99 147.969C219.59 147.905 217.746 148.53 216.396 149.013C215.695 149.264 215.214 149.443 214.811 149.524C214.43 149.601 214.314 149.546 214.267 149.518C214.196 149.474 214.002 149.305 213.778 148.672C213.559 148.051 213.359 147.117 213.177 145.737L211.194 145.999C211.382 147.422 211.603 148.519 211.892 149.337C212.177 150.144 212.576 150.825 213.218 151.22C213.885 151.632 214.601 151.607 215.206 151.485C215.789 151.368 216.447 151.119 217.071 150.896C218.372 150.43 219.925 149.915 221.936 149.969C223.941 150.023 226.486 150.647 229.715 152.612L230.755 150.904ZM213.177 145.737C212.625 141.548 212.587 139.192 212.806 137.831C212.912 137.165 213.072 136.798 213.214 136.585C213.346 136.388 213.499 136.267 213.715 136.153L212.784 134.383C212.353 134.609 211.913 134.933 211.551 135.474C211.2 136 210.967 136.666 210.831 137.515C210.563 139.184 210.64 141.788 211.194 145.999L213.177 145.737ZM213.716 136.153C217.362 134.231 218.679 131.389 218.166 129.162C217.914 128.071 217.195 127.133 216.11 126.784C215.011 126.429 213.798 126.76 212.722 127.661L214.005 129.195C214.709 128.606 215.222 128.599 215.497 128.687C215.787 128.781 216.092 129.068 216.217 129.611C216.457 130.653 215.937 132.721 212.783 134.383L213.716 136.153ZM212.721 127.661C212.212 128.088 211.879 128.306 211.675 128.402C211.446 128.509 211.594 128.367 211.851 128.504C211.968 128.566 212.022 128.647 212.036 128.67C212.046 128.687 212.032 128.669 212.011 128.584C211.967 128.406 211.938 128.13 211.916 127.716L209.919 127.824C209.941 128.239 209.976 128.682 210.068 129.06C210.152 129.4 210.346 129.968 210.909 130.268C211.501 130.584 212.111 130.406 212.525 130.212C212.965 130.005 213.456 129.655 214.006 129.195L212.721 127.661ZM211.916 127.715C211.821 125.987 211.349 124.066 210.585 122.391C209.832 120.739 208.731 119.188 207.285 118.38C206.544 117.966 205.707 117.746 204.806 117.826C203.908 117.906 203.021 118.278 202.161 118.926C200.47 120.2 198.787 122.614 197.134 126.435L198.969 127.229C200.575 123.519 202.087 121.485 203.365 120.523C203.989 120.053 204.53 119.859 204.984 119.818C205.434 119.778 205.872 119.881 206.31 120.126C207.221 120.635 208.092 121.743 208.766 123.22C209.429 124.674 209.838 126.353 209.919 127.825L211.916 127.715ZM197.134 126.435C194.808 131.804 194.123 135.637 194.573 138.36C194.801 139.742 195.322 140.845 196.07 141.695C196.815 142.542 197.743 143.091 198.713 143.434C200.625 144.11 202.789 144.017 204.397 143.793C205.215 143.679 205.921 143.525 206.423 143.4C206.675 143.338 206.877 143.282 207.018 143.241C207.089 143.221 207.144 143.204 207.183 143.192C207.203 143.186 207.218 143.181 207.229 143.178C207.235 143.176 207.239 143.175 207.242 143.174C207.244 143.173 207.246 143.173 207.247 143.172C207.247 143.172 207.248 143.172 207.248 143.172C207.249 143.172 207.249 143.171 206.941 142.22C206.634 141.269 206.634 141.268 206.634 141.268C206.634 141.268 206.635 141.268 206.635 141.268C206.635 141.268 206.634 141.268 206.634 141.268C206.633 141.269 206.631 141.27 206.628 141.27C206.621 141.272 206.611 141.276 206.596 141.28C206.567 141.289 206.522 141.303 206.463 141.32C206.343 141.354 206.166 141.404 205.941 141.46C205.49 141.572 204.854 141.71 204.12 141.812C202.624 142.021 200.84 142.064 199.38 141.548C198.664 141.295 198.049 140.916 197.572 140.374C197.099 139.836 196.72 139.09 196.546 138.034C196.191 135.881 196.695 132.48 198.969 127.229L197.134 126.435ZM202.98 142.909C203.089 144.48 203.007 146.464 202.552 147.918C202.323 148.649 202.034 149.134 201.733 149.396C201.486 149.611 201.181 149.726 200.675 149.607L200.216 151.553C201.323 151.815 202.294 151.56 203.047 150.904C203.746 150.295 204.181 149.408 204.46 148.515C205.021 146.723 205.092 144.456 204.975 142.771L202.98 142.909ZM200.675 149.607C196.466 148.612 193.345 148.416 190.631 148.998C187.906 149.581 185.702 150.925 183.302 152.79L184.529 154.37C186.834 152.579 188.756 151.445 191.05 150.953C193.354 150.46 196.145 150.592 200.215 151.553L200.675 149.607ZM183.302 152.79C178.671 156.39 171.619 160.876 165.694 164.478C162.738 166.275 160.073 167.846 158.147 168.967C157.184 169.528 156.406 169.976 155.87 170.283C155.601 170.437 155.393 170.556 155.252 170.636C155.182 170.676 155.128 170.707 155.092 170.727C155.074 170.738 155.061 170.745 155.052 170.75C155.047 170.753 155.044 170.755 155.042 170.756C155.041 170.757 155.04 170.757 155.039 170.757C155.039 170.758 155.039 170.758 155.039 170.758C155.039 170.758 155.038 170.758 155.531 171.628C156.024 172.498 156.024 172.498 156.024 172.498C156.024 172.498 156.025 172.498 156.025 172.498C156.026 172.497 156.026 172.497 156.028 172.496C156.03 172.495 156.034 172.493 156.038 172.49C156.048 172.485 156.062 172.477 156.08 172.466C156.117 172.446 156.171 172.415 156.242 172.374C156.385 172.293 156.594 172.173 156.864 172.018C157.405 171.709 158.186 171.258 159.153 170.695C161.087 169.569 163.763 167.992 166.733 166.187C172.66 162.584 179.8 158.046 184.529 154.37L183.302 152.79ZM156.047 170.771C144.688 163.926 136.428 160.964 125.948 156.461L125.159 158.299C135.727 162.84 143.807 165.73 155.015 172.485L156.047 170.771ZM124.812 156.709C119.08 163.043 115.75 171.186 115.402 179.721L117.401 179.803C117.73 171.735 120.877 164.038 126.295 158.051L124.812 156.709ZM116.008 180.681C130.984 187.093 136.631 190.726 148.45 196.504L149.329 194.708C137.668 189.006 131.818 185.275 116.795 178.843L116.008 180.681ZM148.448 196.503C151.228 197.871 154.307 198.518 157.403 198.384L157.317 196.386C154.556 196.505 151.81 195.928 149.331 194.709L148.448 196.503ZM157.403 198.384C160.498 198.251 163.51 197.342 166.162 195.74L165.128 194.028C162.763 195.456 160.077 196.267 157.317 196.386L157.403 198.384ZM166.164 195.739C173.537 191.27 180.463 187.168 187.998 183.192L187.065 181.424C179.476 185.428 172.509 189.554 165.127 194.029L166.164 195.739ZM293.263 150.256C290.885 149.066 288.517 148.563 286.586 148.918C285.609 149.098 284.719 149.503 284.027 150.177C283.329 150.855 282.886 151.751 282.721 152.812L284.698 153.12C284.803 152.439 285.068 151.954 285.421 151.611C285.779 151.263 286.283 151.007 286.948 150.885C288.302 150.637 290.216 150.968 292.368 152.044L293.263 150.256ZM282.721 152.813C282.447 154.579 282.916 156.419 283.649 158.059C284.387 159.712 285.435 161.255 286.447 162.468L287.983 161.188C287.059 160.079 286.122 158.691 285.475 157.243C284.822 155.783 284.506 154.353 284.698 153.119L282.721 152.813ZM286.433 162.45C289.28 166.031 293.291 168.503 297.769 169.439L298.178 167.481C294.156 166.641 290.555 164.421 287.998 161.206L286.433 162.45ZM297.704 169.423C298.932 169.766 300.245 169.638 301.384 169.064L300.483 167.278C299.79 167.628 298.99 167.706 298.243 167.497L297.704 169.423ZM301.384 169.064C302.523 168.489 303.405 167.51 303.86 166.319L301.991 165.605C301.714 166.332 301.176 166.928 300.483 167.278L301.384 169.064ZM184.172 166.451C185.003 179.129 188.247 191.531 193.729 202.992L195.534 202.128C190.161 190.897 186.982 178.744 186.167 166.321L184.172 166.451ZM194.375 203.527C206.19 206.662 215.795 205.915 227.676 202.301L227.094 200.387C215.492 203.917 206.272 204.614 194.888 201.593L194.375 203.527ZM228.38 201.239C227.472 192.602 228.612 183.872 231.702 175.756L229.833 175.044C226.631 183.454 225.45 192.499 226.391 201.449L228.38 201.239ZM295.341 168.573C300.682 166.515 306.171 164.866 311.763 163.641L311.335 161.687C305.644 162.934 300.057 164.612 294.622 166.707L295.341 168.573ZM311.718 163.65C316.695 162.798 321.755 162.547 326.791 162.902L326.932 160.907C321.736 160.54 316.516 160.8 311.381 161.679L311.718 163.65ZM326.802 162.902C328.712 163.015 330.27 162.995 331.41 162.845C331.975 162.77 332.487 162.657 332.903 162.485C333.281 162.329 333.792 162.036 334.009 161.468C334.257 160.82 333.979 160.245 333.695 159.889C333.411 159.533 332.994 159.218 332.523 158.931C331.566 158.348 330.102 157.716 328.135 157.044L327.488 158.937C329.41 159.593 330.712 160.169 331.482 160.639C331.875 160.878 332.062 161.049 332.132 161.137C332.202 161.224 332.028 161.049 332.142 160.752C332.225 160.535 332.362 160.544 332.138 160.637C331.951 160.715 331.632 160.798 331.148 160.862C330.189 160.989 328.774 161.015 326.92 160.906L326.802 162.902ZM328.135 157.044C327.34 156.772 325.819 156.448 324.015 156.113C322.182 155.772 319.98 155.407 317.773 155.059C313.358 154.362 308.897 153.731 307.281 153.504L307.002 155.484C308.616 155.711 313.063 156.34 317.462 157.034C319.661 157.381 321.843 157.744 323.649 158.079C325.483 158.42 326.856 158.72 327.488 158.936L328.135 157.044ZM307.281 153.504C302.089 152.775 294.419 152.014 289.311 151.861L289.251 153.86C294.264 154.01 301.858 154.762 307.002 155.484L307.281 153.504ZM289.279 151.86C288.855 151.861 288.431 151.888 288.01 151.94L288.257 153.925C288.596 153.882 288.94 153.861 289.284 153.86L289.279 151.86ZM284.23 155.446C284.181 155.477 284.14 155.497 284.136 155.499C284.123 155.505 284.114 155.509 284.11 155.511C284.101 155.515 284.096 155.517 284.098 155.516C284.1 155.515 284.109 155.512 284.125 155.505C284.158 155.492 284.207 155.473 284.274 155.447C284.408 155.396 284.604 155.321 284.856 155.226C285.362 155.033 286.075 154.763 286.964 154.425C288.733 153.753 291.156 152.829 293.793 151.807C299.058 149.768 305.215 147.324 308.736 145.709L307.903 143.891C304.446 145.477 298.345 147.899 293.071 149.942C290.439 150.962 288.021 151.884 286.254 152.555C285.374 152.89 284.645 153.166 284.145 153.356C283.893 153.452 283.694 153.528 283.556 153.581C283.487 153.607 283.431 153.629 283.39 153.645C283.37 153.653 283.35 153.661 283.332 153.669C283.324 153.672 283.311 153.677 283.297 153.684C283.29 153.687 283.277 153.692 283.263 153.7C283.257 153.702 283.214 153.723 283.165 153.754L284.23 155.446ZM308.737 145.709C310.75 144.784 312.058 144.301 312.86 144.11C313.271 144.012 313.461 144.013 313.51 144.02C313.533 144.023 313.24 143.974 313.117 143.637C313.038 143.422 313.125 143.317 313.06 143.485C313.01 143.613 312.909 143.803 312.74 144.059C312.405 144.565 311.914 145.169 311.391 145.791L312.923 147.077C313.441 146.46 314.002 145.776 314.408 145.162C314.61 144.857 314.8 144.529 314.925 144.208C315.033 143.928 315.176 143.444 314.994 142.947C314.766 142.328 314.211 142.095 313.772 142.037C313.359 141.982 312.887 142.047 312.396 142.164C311.394 142.403 309.938 142.956 307.902 143.892L308.737 145.709ZM311.392 145.791C311.074 146.168 310.397 146.757 309.502 147.533C308.649 148.274 307.653 149.139 306.831 149.995C306.418 150.424 306.032 150.869 305.721 151.311C305.416 151.744 305.144 152.231 305.022 152.742C304.894 153.278 304.924 153.893 305.307 154.442C305.667 154.958 306.236 155.263 306.855 155.448L307.428 153.532C307.237 153.475 307.114 153.416 307.038 153.37C307.001 153.347 306.978 153.328 306.965 153.316C306.958 153.31 306.953 153.305 306.951 153.302C306.948 153.299 306.947 153.297 306.947 153.297C306.947 153.297 306.947 153.298 306.948 153.3C306.95 153.302 306.951 153.304 306.952 153.307C306.954 153.313 306.954 153.316 306.954 153.315C306.954 153.312 306.95 153.28 306.968 153.207C307.006 153.047 307.119 152.799 307.357 152.461C307.588 152.133 307.899 151.769 308.273 151.381C309.021 150.602 309.947 149.795 310.812 149.044C311.637 148.33 312.476 147.609 312.923 147.078L311.392 145.791ZM300.382 166.772C302.533 166.257 305.826 166.212 309.179 166.342C312.528 166.472 315.726 166.764 317.798 166.882L317.912 164.886C315.959 164.774 312.604 164.473 309.256 164.343C305.912 164.213 302.366 164.241 299.916 164.828L300.382 166.772ZM317.798 166.882C319.371 166.973 321.322 167.278 323.385 167.614C325.422 167.946 327.562 168.306 329.429 168.48L329.614 166.488C327.833 166.322 325.773 165.976 323.707 165.64C321.666 165.308 319.608 164.983 317.913 164.886L317.798 166.882ZM329.429 168.48C329.853 168.519 330.403 168.411 330.797 167.996C331.008 167.773 331.153 167.479 331.182 167.139C331.21 166.809 331.124 166.503 330.992 166.243C330.74 165.747 330.258 165.295 329.617 164.868C328.957 164.427 328.035 163.951 326.782 163.442L326.029 165.294C327.207 165.773 327.996 166.19 328.507 166.531C329.037 166.885 329.186 167.104 329.21 167.15C329.215 167.16 329.178 167.093 329.189 166.968C329.201 166.833 329.261 166.709 329.345 166.62C329.485 166.473 329.608 166.488 329.614 166.488L329.429 168.48ZM326.78 163.441C324.99 162.717 321.709 161.357 320.136 160.872L319.547 162.784C321.013 163.235 324.168 164.542 326.031 165.295L326.78 163.441ZM299.952 166.884C303.666 166.898 307.366 167.3 310.996 168.085L311.419 166.131C307.653 165.316 303.813 164.898 299.959 164.884L299.952 166.884ZM310.985 168.083C312.431 168.413 314.391 169.042 316.436 169.715C318.454 170.379 320.549 171.084 322.191 171.531L322.716 169.601C321.139 169.172 319.112 168.49 317.061 167.815C315.037 167.149 312.984 166.487 311.43 166.133L310.985 168.083ZM322.191 171.531C322.604 171.644 323.168 171.628 323.625 171.279C323.869 171.093 324.058 170.825 324.141 170.497C324.222 170.179 324.189 169.865 324.103 169.587C323.938 169.056 323.541 168.529 322.983 167.997C322.408 167.449 321.583 166.823 320.437 166.108L319.378 167.804C320.455 168.476 321.159 169.022 321.604 169.445C322.065 169.884 322.176 170.127 322.193 170.179C322.197 170.193 322.172 170.124 322.202 170.005C322.235 169.876 322.314 169.764 322.412 169.689C322.577 169.563 322.703 169.597 322.716 169.601L322.191 171.531ZM320.462 166.124C320.098 165.881 319.441 165.489 318.706 165.055L317.688 166.777C318.442 167.223 319.045 167.583 319.353 167.788L320.462 166.124ZM116.884 175.391C110.69 174.472 104.427 174.1 98.167 174.278L98.2239 176.278C104.366 176.103 110.512 176.468 116.591 177.369L116.884 175.391ZM98.1192 174.281C92.9227 174.678 87.7877 175.661 82.812 177.211L83.4069 179.121C88.2387 177.615 93.2253 176.661 98.2716 176.275L98.1192 174.281ZM82.8125 177.211C81.0356 177.764 79.6534 178.075 78.6909 178.178C78.2054 178.23 77.8758 178.224 77.676 178.192C77.438 178.154 77.5656 178.113 77.6945 178.301C77.8694 178.556 77.7464 178.76 77.7933 178.658C77.8409 178.554 77.9819 178.342 78.3062 178.015C78.9428 177.373 80.0716 176.502 81.7851 175.409L80.7098 173.723C78.9543 174.842 77.679 175.807 76.8865 176.606C76.4962 176.999 76.1664 177.408 75.9756 177.824C75.7841 178.241 75.6552 178.864 76.0453 179.432C76.3895 179.934 76.9535 180.102 77.3619 180.167C77.8085 180.238 78.3351 180.228 78.9045 180.167C80.0519 180.043 81.5742 179.69 83.4063 179.121L82.8125 177.211ZM81.6777 175.469C93.3478 169.906 105.418 165.224 117.788 161.465L117.207 159.551C104.741 163.34 92.5774 168.057 80.8171 173.663L81.6777 175.469ZM117.761 161.473C119.331 161.044 120.994 161.091 122.538 161.608L123.173 159.712C121.254 159.069 119.187 159.01 117.234 159.543L117.761 161.473ZM101.174 167.132C101.73 166.802 102.208 166.366 102.43 165.774C102.665 165.145 102.537 164.54 102.278 164.054C102.032 163.591 101.646 163.186 101.242 162.841C100.829 162.488 100.342 162.151 99.8344 161.835C98.8216 161.206 97.6386 160.608 96.6282 160.097C95.5671 159.56 94.7703 159.154 94.38 158.867L93.1944 160.477C93.7551 160.89 94.7493 161.388 95.7257 161.882C96.7529 162.401 97.8541 162.959 98.7785 163.534C99.2392 163.82 99.6343 164.098 99.9425 164.361C100.26 164.632 100.434 164.846 100.512 164.994C100.579 165.118 100.54 165.117 100.557 165.073C100.559 165.068 100.509 165.201 100.153 165.412L101.174 167.132ZM94.3807 158.867C93.7297 158.387 93.1106 157.92 92.6635 157.509C92.4385 157.302 92.293 157.141 92.2136 157.029C92.1086 156.88 92.219 156.961 92.1953 157.188C92.1579 157.548 91.8834 157.668 91.9025 157.66C91.948 157.642 92.1306 157.595 92.5537 157.591C93.3776 157.583 94.765 157.736 96.9462 158.147L97.3162 156.181C95.1105 155.766 93.5636 155.581 92.5344 155.591C92.0311 155.596 91.5575 155.647 91.1707 155.799C90.7575 155.961 90.2746 156.323 90.2061 156.981C90.1514 157.506 90.4083 157.94 90.5807 158.184C90.7787 158.463 91.0417 158.734 91.3096 158.981C91.8486 159.476 92.5537 160.005 93.1937 160.477L94.3807 158.867ZM96.9317 158.144C104.324 159.649 111.806 160.669 119.331 161.198L119.471 159.202C112.033 158.68 104.637 157.672 97.3307 156.184L96.9317 158.144ZM89.3476 175.605C87.7041 176.62 84.4868 178.97 83.5725 179.656L84.7736 181.256C85.6912 180.566 88.8419 178.268 90.3984 177.307L89.3476 175.605ZM83.5784 179.652C82.4961 180.452 81.7231 181.139 81.1911 181.728C80.6745 182.299 80.3176 182.851 80.1877 183.387C80.0434 183.982 80.1804 184.655 80.7692 185.047C81.2532 185.368 81.8183 185.338 82.2164 185.202L81.5697 183.31C81.5698 183.31 81.6959 183.261 81.8765 183.381C82.1619 183.571 82.1311 183.859 82.1313 183.858C82.1459 183.798 82.2458 183.544 82.6748 183.069C83.0884 182.611 83.7499 182.013 84.7676 181.26L83.5784 179.652ZM82.2162 185.202C83.8365 184.649 85.8785 183.787 87.8388 182.969C89.8269 182.139 91.7255 181.356 93.1346 180.917L92.5394 179.007C91.0226 179.48 89.0301 180.304 87.0683 181.123C85.0785 181.954 83.1115 182.783 81.5698 183.31L82.2162 185.202ZM93.1349 180.917C95.5365 180.167 98.9641 179.021 102.353 178.111C105.787 177.189 108.977 176.571 110.932 176.777L111.142 174.787C108.765 174.537 105.23 175.268 101.834 176.179C98.3939 177.103 94.8875 178.275 92.5392 179.007L93.1349 180.917ZM91.8639 179.321C91.1669 180.018 90.7405 180.481 90.4685 180.719L91.7855 182.225C92.1215 181.931 92.6832 181.33 93.2781 180.735L91.8639 179.321ZM90.4127 180.772C89.4719 181.733 88.8195 182.533 88.3898 183.2C87.9724 183.848 87.7108 184.451 87.6715 185.003C87.6281 185.613 87.8752 186.253 88.5178 186.542C89.05 186.782 89.6066 186.659 89.9819 186.448L89.0041 184.704C89.0154 184.697 89.1383 184.628 89.3386 184.719C89.6493 184.859 89.6664 185.145 89.6665 185.144C89.6708 185.084 89.7261 184.818 90.0709 184.283C90.4033 183.768 90.9581 183.073 91.8414 182.172L90.4127 180.772ZM89.9834 186.448C91.4591 185.617 93.3204 184.443 95.1226 183.328C96.9472 182.2 98.7081 181.134 100.045 180.472L99.1574 178.68C97.7219 179.39 95.8808 180.507 94.0705 181.627C92.2376 182.761 90.431 183.901 89.0026 184.704L89.9834 186.448ZM100.028 180.48C103.362 178.906 106.828 177.629 110.387 176.665L109.863 174.735C106.191 175.73 102.614 177.047 99.1741 178.672L100.028 180.48ZM191.028 384.201C190.58 379.688 189.593 375.245 188.089 370.968L186.202 371.632C187.654 375.759 188.606 380.044 189.038 384.399L191.028 384.201ZM186.87 370.339C178.942 372.605 170.537 372.605 162.608 370.339L162.058 372.261C170.346 374.631 179.132 374.631 187.42 372.261L186.87 370.339ZM162.055 370.34C151.067 373.524 138.649 383.198 132.202 389.226L133.568 390.686C139.965 384.706 152.096 375.308 162.612 372.26L162.055 370.34ZM132.885 390.956C154.46 390.956 168.779 390.766 185.172 390.728L185.167 388.728C168.732 388.766 154.475 388.956 132.885 388.956V390.956ZM185.166 390.728C185.996 390.73 186.817 390.557 187.576 390.216L186.757 388.392C186.259 388.615 185.719 388.73 185.172 388.728L185.166 390.728ZM187.573 390.217C188.329 389.881 189.007 389.389 189.562 388.768L188.07 387.436C187.707 387.843 187.26 388.167 186.759 388.391L187.573 390.217ZM189.561 388.77C190.114 388.152 190.53 387.425 190.783 386.637L188.879 386.027C188.712 386.547 188.437 387.028 188.072 387.434L189.561 388.77ZM190.783 386.637C191.036 385.847 191.119 385.013 191.027 384.189L189.039 384.411C189.1 384.955 189.045 385.505 188.878 386.027L190.783 386.637ZM199.142 311.856C199.201 314.388 198.74 317.599 197.911 321.48C197.084 325.351 195.907 329.821 194.564 334.86C191.883 344.923 188.558 357.191 186.155 371.175L188.127 371.513C190.512 357.633 193.812 345.45 196.497 335.375C197.837 330.345 199.028 325.826 199.867 321.897C200.704 317.979 201.206 314.581 201.141 311.808L199.142 311.856ZM163.315 371.496L175.667 307.686L173.704 307.306L161.352 371.116L163.315 371.496ZM215.449 264.572L200.517 311.308L202.422 311.916L217.354 265.18L215.449 264.572ZM201.296 310.627C191.689 312.318 181.794 310.557 173.36 305.655L172.355 307.385C181.197 312.523 191.571 314.37 201.643 312.597L201.296 310.627ZM173.836 306.725L195.61 202.805L193.653 202.395L171.879 306.315L173.836 306.725ZM310.997 351.007L303.929 347.207L302.982 348.969L310.05 352.769L310.997 351.007ZM302.499 347.797C301.12 352.325 299.627 355.171 297.469 357.579C295.284 360.018 292.371 362.062 288.011 364.92L289.108 366.592C293.444 363.75 296.573 361.576 298.959 358.914C301.372 356.221 302.979 353.083 304.412 348.379L302.499 347.797ZM287.728 366.312C289.852 369.488 290.612 371.783 290.816 373.449C291.018 375.103 290.689 376.218 290.442 377.168L292.377 377.672C292.624 376.724 293.054 375.276 292.801 373.206C292.549 371.148 291.637 368.56 289.391 365.2L287.728 366.312ZM290.724 376.692C289.605 377.745 288.626 378.532 287.713 379.265C286.806 379.993 285.941 380.685 285.119 381.513C283.439 383.205 281.998 385.395 280.37 389.62L282.237 390.34C283.801 386.281 285.113 384.357 286.538 382.923C287.268 382.188 288.044 381.564 288.965 380.825C289.879 380.091 290.913 379.261 292.095 378.148L290.724 376.692ZM281.303 390.98H297.303V388.98H281.303V390.98ZM297.281 390.98C299.62 391.032 301.925 390.414 303.926 389.201L302.889 387.491C301.213 388.506 299.283 389.024 297.326 388.98L297.281 390.98ZM303.926 389.201C305.925 387.988 307.538 386.229 308.574 384.133L306.781 383.247C305.913 385.003 304.562 386.476 302.889 387.491L303.926 389.201ZM308.585 384.109C309.829 381.415 310.95 377.393 312.025 373.358C313.113 369.273 314.161 365.151 315.265 362.107L313.385 361.425C312.242 364.575 311.166 368.815 310.092 372.843C309.005 376.922 307.926 380.765 306.769 383.271L308.585 384.109ZM315.259 362.124C316.048 360.067 316.045 357.793 315.255 355.737L313.388 356.455C314.001 358.051 314.003 359.813 313.392 361.408L315.259 362.124ZM315.255 355.737C314.464 353.681 312.938 351.994 310.977 350.997L310.07 352.779C311.593 353.554 312.775 354.863 313.388 356.455L315.255 355.737ZM289.331 365.078L243.545 315.72L242.078 317.08L287.864 366.438L289.331 365.078ZM262.086 301.554C268.468 306.805 274.24 312.755 279.296 319.292L280.878 318.068C275.731 311.413 269.855 305.355 263.357 300.01L262.086 301.554ZM279.279 319.269C282.789 324.081 288.646 331.449 293.613 337.6C296.099 340.679 298.367 343.458 300.013 345.467C300.836 346.472 301.504 347.284 301.966 347.845C302.197 348.126 302.376 348.344 302.498 348.491C302.559 348.565 302.606 348.622 302.637 348.66C302.653 348.678 302.665 348.693 302.673 348.702C302.677 348.707 302.68 348.711 302.682 348.713C302.683 348.715 302.683 348.715 302.684 348.716C302.684 348.716 302.684 348.717 302.684 348.717C302.685 348.717 302.685 348.717 303.455 348.08C304.226 347.443 304.226 347.443 304.226 347.443C304.226 347.443 304.226 347.442 304.226 347.442C304.225 347.441 304.224 347.441 304.223 347.439C304.221 347.437 304.218 347.433 304.215 347.429C304.207 347.419 304.195 347.405 304.179 347.386C304.148 347.348 304.102 347.292 304.041 347.219C303.92 347.071 303.741 346.854 303.51 346.574C303.049 346.014 302.382 345.203 301.56 344.199C299.916 342.193 297.652 339.418 295.169 336.343C290.199 330.189 284.372 322.857 280.895 318.091L279.279 319.269ZM205.974 229.108L223.454 295.794L225.389 295.286L207.909 228.6L205.974 229.108ZM223.454 295.794C224.829 301.035 227.635 305.788 231.56 309.524L232.939 308.076C229.283 304.596 226.67 300.169 225.389 295.286L223.454 295.794ZM231.56 309.524L240.27 317.816L241.649 316.368L232.939 308.076L231.56 309.524ZM241.266 318.044C250.77 314.98 258.903 308.687 264.25 300.253L262.561 299.182C257.464 307.221 249.712 313.22 240.653 316.14L241.266 318.044ZM264.261 299.2L256.397 286.2L254.686 287.236L262.55 300.236L264.261 299.2ZM256.537 286.62L251.559 235.932L249.568 236.128L254.546 286.816L256.537 286.62ZM251.559 235.934C249.703 216.766 238.239 203.309 227.653 200.374L227.118 202.302C236.692 204.955 247.768 217.534 249.568 236.126L251.559 235.934ZM219.725 148.4C213.255 156.535 208.111 165.643 204.486 175.385L206.361 176.083C209.912 166.538 214.952 157.615 221.29 149.644L219.725 148.4ZM206.278 175.215C203.813 171.156 201.342 164.748 199.474 159.289C198.545 156.573 197.772 154.115 197.232 152.336C196.962 151.446 196.75 150.727 196.606 150.231C196.534 149.983 196.479 149.791 196.442 149.661C196.423 149.596 196.409 149.546 196.4 149.513C196.395 149.497 196.392 149.484 196.39 149.476C196.388 149.472 196.388 149.469 196.387 149.467C196.387 149.466 196.387 149.466 196.386 149.465C196.386 149.465 196.386 149.465 196.386 149.465C196.386 149.465 196.386 149.465 195.423 149.734C194.46 150.003 194.46 150.004 194.46 150.004C194.46 150.004 194.46 150.004 194.461 150.005C194.461 150.005 194.461 150.006 194.461 150.007C194.462 150.01 194.463 150.013 194.464 150.017C194.467 150.026 194.47 150.039 194.475 150.057C194.485 150.091 194.499 150.142 194.518 150.209C194.556 150.342 194.612 150.537 194.685 150.789C194.831 151.292 195.046 152.019 195.318 152.917C195.863 154.712 196.643 157.193 197.582 159.937C199.451 165.398 201.98 171.99 204.569 176.253L206.278 175.215ZM52.369 391H354.599V389H52.369V391ZM318.65 76.0737C303.147 73.1372 288.199 82.2454 285.481 96.6285L287.446 96.9999C289.928 83.8671 303.688 75.2752 318.277 78.0387L318.65 76.0737ZM285.48 96.6338C284.559 101.656 285.209 106.841 287.343 111.48L289.16 110.644C287.198 106.379 286.6 101.612 287.447 96.9946L285.48 96.6338ZM287.398 110.541L280.9 121.181L282.607 122.223L289.105 111.583L287.398 110.541ZM281.953 122.682L294.265 120.174L293.866 118.214L281.554 120.722L281.953 122.682ZM293.373 119.916C297.648 124.015 303.029 126.774 308.853 127.853L309.218 125.887C303.777 124.879 298.751 122.301 294.758 118.472L293.373 119.916ZM308.849 127.853C324.352 130.789 339.3 121.681 342.018 107.298L340.053 106.927C337.571 120.059 323.811 128.651 309.221 125.888L308.849 127.853ZM342.018 107.299C344.757 92.9164 334.191 79.0096 318.649 76.0736L318.278 78.0388C332.908 80.8028 342.554 93.796 340.053 106.925L342.018 107.299ZM315.055 105.082C315.085 103.722 315.549 102.703 317.667 99.8848L316.068 98.6832C313.95 101.501 313.101 102.978 313.056 105.038L315.055 105.082ZM317.667 99.885C320.06 96.7013 320.694 93.7924 319.944 91.5337C319.187 89.2531 317.118 87.9436 314.825 87.8351L314.73 89.8329C316.327 89.9084 317.588 90.785 318.046 92.1639C318.511 93.5646 318.244 95.7887 316.068 98.683L317.667 99.885ZM314.822 87.835C313.979 87.7975 313.139 87.9459 312.36 88.2705L313.13 90.1163C313.636 89.9054 314.183 89.8085 314.733 89.833L314.822 87.835ZM312.361 88.2704C311.583 88.5945 310.886 89.0864 310.319 89.7107L311.8 91.0549C312.169 90.648 312.624 90.3275 313.13 90.1164L312.361 88.2704ZM310.319 89.7107C309.753 90.3343 309.329 91.076 309.081 91.8836L310.994 92.4696C311.154 91.946 311.43 91.4625 311.8 91.0549L310.319 89.7107ZM309.081 91.8836C308.834 92.6904 308.769 93.5412 308.887 94.3748L310.867 94.0932C310.79 93.5484 310.833 92.994 310.994 92.4696L309.081 91.8836ZM297.565 290.232H305.773V288.232H297.565V290.232ZM320.325 290.194H328.533V288.194H320.325V290.194ZM312.049 273.728V281.936H314.049V273.728H312.049ZM312.087 296.49V304.696H314.087V296.49H312.087ZM301.383 278.997L307.197 284.773L308.606 283.355L302.792 277.579L301.383 278.997ZM317.531 295.072L323.345 300.846L324.754 299.426L318.94 293.652L317.531 295.072ZM323.304 277.543L317.49 283.357L318.905 284.771L324.719 278.957L323.304 277.543ZM307.232 293.655L301.418 299.467L302.832 300.881L308.646 295.069L307.232 293.655ZM52.5233 95.472C51.4507 95.4698 50.3976 95.1858 49.4695 94.6484L48.4673 96.3792C49.6988 97.0922 51.0961 97.469 52.5191 97.472L52.5233 95.472ZM49.4695 94.6484C48.5413 94.111 47.7707 93.3391 47.2346 92.4099L45.5022 93.4093C46.2134 94.6421 47.2359 95.6662 48.4673 96.3792L49.4695 94.6484ZM47.2347 92.41C46.6988 91.481 46.4165 90.4275 46.416 89.3549L44.416 89.3559C44.4167 90.7789 44.7912 92.1766 45.5022 93.4092L47.2347 92.41ZM46.416 89.3549C46.4155 88.2824 46.6969 87.2284 47.2319 86.2988L45.4985 85.3012C44.7887 86.5344 44.4153 87.9328 44.416 89.3559L46.416 89.3549ZM47.2314 86.2998L88.9154 14.0619L87.1831 13.0623L45.4991 85.3002L47.2314 86.2998ZM88.9149 14.0627C89.4534 13.1315 90.2275 12.3583 91.1591 11.8208L90.1597 10.0885C88.9242 10.8013 87.8978 11.8265 87.1836 13.0614L88.9149 14.0627ZM91.1591 11.8208C92.0908 11.2833 93.1476 11.0004 94.2232 11.0004V9.00037C92.7968 9.00037 91.3953 9.3756 90.1597 10.0884L91.1591 11.8208ZM94.2232 11.0004C95.299 11.0004 96.3557 11.2833 97.2873 11.8208L98.2867 10.0884C97.0512 9.37561 95.6498 9.00037 94.2232 9.00037V11.0004ZM97.2873 11.8208C98.2192 12.3584 98.9931 13.1315 99.5315 14.0626L101.263 13.0615C100.549 11.8266 99.5224 10.8012 98.2867 10.0884L97.2873 11.8208ZM99.5311 14.0619L141.215 86.2998L142.947 85.3002L101.263 13.0623L99.5311 14.0619ZM141.215 86.3001C141.752 87.2299 142.035 88.2843 142.035 89.3575L144.035 89.3569C144.035 87.9325 143.659 86.5334 142.947 85.2999L141.215 86.3001ZM142.035 89.3577C142.036 90.4311 141.754 91.4857 141.218 92.4157L142.95 93.4147C143.662 92.1807 144.036 90.7813 144.035 89.3567L142.035 89.3577ZM141.218 92.4157C140.681 93.3458 139.91 94.1183 138.981 94.6558L139.983 96.387C141.215 95.6737 142.239 94.6486 142.95 93.4147L141.218 92.4157ZM138.981 94.6558C138.052 95.1933 136.998 95.4768 135.924 95.478L135.926 97.478C137.351 97.4764 138.75 97.1003 139.983 96.387L138.981 94.6558ZM135.925 95.478L52.5213 95.472L52.5211 97.472L135.925 97.478L135.925 95.478ZM152.521 54.8033C152.571 55.3579 152.455 55.9144 152.189 56.4026L153.944 57.361C154.401 56.5252 154.598 55.5729 154.513 54.6247L152.521 54.8033ZM152.189 56.4028C151.922 56.8914 151.517 57.2899 151.024 57.5478L151.951 59.3199C152.795 58.8785 153.488 58.1966 153.944 57.3609L152.189 56.4028ZM151.024 57.5478C150.53 57.8059 149.972 57.912 149.419 57.8527L149.205 59.8413C150.152 59.9428 151.108 59.7613 151.951 59.3198L151.024 57.5478ZM149.419 57.8527C148.865 57.7934 148.342 57.5713 147.915 57.2146L146.633 58.7494C147.363 59.3599 148.259 59.7398 149.205 59.8413L149.419 57.8527ZM147.915 57.2145C147.488 56.8577 147.176 56.3822 147.019 55.8485L145.1 56.4123C145.369 57.3258 145.902 58.1392 146.633 58.7495L147.915 57.2145ZM147.019 55.8483C146.862 55.3143 146.867 54.7459 147.033 54.2147L145.124 53.6177C144.84 54.5265 144.832 55.4989 145.1 56.4125L147.019 55.8483ZM147.033 54.2147C147.199 53.6835 147.519 53.2135 147.952 52.8643L146.697 51.3073C145.956 51.9049 145.408 52.709 145.124 53.6177L147.033 54.2147ZM147.952 52.8642C148.386 52.5149 148.913 52.3019 149.467 52.252L149.288 50.26C148.34 50.3453 147.438 50.7096 146.697 51.3074L147.952 52.8642ZM149.464 52.2522C150.208 52.1874 150.947 52.4197 151.52 52.8983L152.802 51.3633C151.823 50.5459 150.561 50.149 149.291 50.2598L149.464 52.2522ZM151.52 52.8984C152.093 53.3767 152.453 54.0627 152.522 54.8058L154.513 54.6222C154.396 53.3525 153.781 52.1805 152.802 51.3632L151.52 52.8984ZM121.607 331.408V346.76H123.607V331.408H121.607ZM130.301 338.084H114.913V340.084H130.301V338.084ZM212.016 148.535C212.89 149.005 213.862 149.259 214.856 149.277L214.891 147.277C214.217 147.265 213.557 147.092 212.963 146.773L212.016 148.535ZM214.856 149.277C215.847 149.294 216.828 149.075 217.719 148.637L216.836 146.842C216.23 147.14 215.564 147.289 214.891 147.277L214.856 149.277ZM217.72 148.636C218.608 148.198 219.382 147.554 219.972 146.755L218.363 145.567C217.965 146.107 217.439 146.545 216.835 146.843L217.72 148.636ZM219.971 146.756C220.561 145.96 220.955 145.033 221.114 144.053L219.14 143.731C219.032 144.395 218.766 145.024 218.364 145.566L219.971 146.756ZM219.254 144.379C219.952 145.63 221.06 146.602 222.388 147.133L223.131 145.276C222.227 144.914 221.475 144.254 221.001 143.405L219.254 144.379ZM222.388 147.133C223.717 147.664 225.189 147.723 226.556 147.298L225.963 145.388C225.034 145.677 224.034 145.637 223.131 145.276L222.388 147.133ZM226.556 147.298C227.922 146.875 229.104 145.994 229.898 144.802L228.233 143.693C227.695 144.501 226.893 145.1 225.963 145.388L226.556 147.298ZM229.897 144.803C230.692 143.613 231.054 142.186 230.923 140.761L228.932 140.944C229.021 141.913 228.775 142.883 228.234 143.692L229.897 144.803ZM229.344 141.664C230.457 142.463 231.8 142.873 233.17 142.832L233.109 140.832C232.179 140.861 231.266 140.582 230.511 140.04L229.344 141.664ZM233.17 142.832C234.538 142.79 235.855 142.298 236.916 141.432L235.651 139.883C234.932 140.47 234.037 140.804 233.109 140.832L233.17 142.832ZM236.915 141.433C237.978 140.567 238.724 139.376 239.04 138.044L237.095 137.581C236.879 138.487 236.373 139.295 235.652 139.882L236.915 141.433ZM239.04 138.044C239.357 136.712 239.226 135.312 238.666 134.061L236.841 134.879C237.221 135.727 237.31 136.677 237.095 137.581L239.04 138.044ZM237.485 135.433C238.419 135.694 239.399 135.732 240.352 135.546L239.967 133.583C239.32 133.71 238.656 133.683 238.022 133.507L237.485 135.433ZM240.352 135.546C241.303 135.359 242.197 134.952 242.963 134.358L241.736 132.778C241.218 133.181 240.612 133.456 239.967 133.583L240.352 135.546ZM242.963 134.358C243.727 133.764 244.345 132.999 244.762 132.124L242.957 131.263C242.674 131.855 242.256 132.375 241.736 132.778L242.963 134.358ZM244.762 132.124C245.179 131.249 245.387 130.288 245.365 129.318L243.366 129.362C243.38 130.018 243.24 130.669 242.957 131.263L244.762 132.124ZM245.365 129.323C245.351 128.491 245.17 127.672 244.837 126.913L243.005 127.715C243.233 128.235 243.356 128.793 243.366 129.357L245.365 129.323ZM244.837 126.913C244.504 126.152 244.023 125.465 243.421 124.892L242.042 126.34C242.451 126.73 242.779 127.197 243.005 127.715L244.837 126.913ZM242.759 126.616C244.39 126.57 245.938 125.883 247.066 124.704L245.621 123.322C244.857 124.12 243.808 124.586 242.704 124.616L242.759 126.616ZM247.066 124.704C248.194 123.525 248.812 121.949 248.785 120.318L246.786 120.35C246.803 121.455 246.385 122.523 245.621 123.322L247.066 124.704ZM248.785 120.316C248.761 119.001 248.326 117.726 247.539 116.672L245.936 117.869C246.473 118.587 246.769 119.455 246.786 120.352L248.785 120.316ZM247.539 116.673C246.754 115.618 245.654 114.837 244.401 114.441L243.798 116.347C244.652 116.618 245.401 117.15 245.935 117.867L247.539 116.673ZM244.382 116.353C245.687 115.969 246.835 115.171 247.649 114.079L246.045 112.884C245.491 113.628 244.708 114.172 243.817 114.435L244.382 116.353ZM247.648 114.08C248.465 112.988 248.902 111.661 248.899 110.3L246.899 110.304C246.901 111.234 246.602 112.139 246.046 112.883L247.648 114.08ZM248.899 110.289C248.878 108.697 248.246 107.174 247.132 106.035L245.703 107.434C246.457 108.205 246.885 109.237 246.9 110.315L248.899 110.289ZM247.132 106.035C246.019 104.897 244.509 104.231 242.919 104.175L242.848 106.173C243.926 106.212 244.948 106.663 245.703 107.434L247.132 106.035ZM243.555 105.915C244.493 105.066 245.151 103.95 245.439 102.718L243.492 102.262C243.296 103.098 242.85 103.856 242.212 104.433L243.555 105.915ZM245.439 102.719C245.73 101.486 245.636 100.195 245.174 99.0164L243.312 99.7464C243.626 100.547 243.689 101.424 243.492 102.26L245.439 102.719ZM245.175 99.018C244.715 97.8383 243.904 96.8276 242.854 96.1201L241.737 97.7788C242.45 98.2596 243 98.9457 243.312 99.7449L245.175 99.018ZM242.855 96.1207C241.806 95.4124 240.565 95.0407 239.301 95.0541L239.322 97.054C240.181 97.0449 241.024 97.2976 241.736 97.7781L242.855 96.1207ZM239.289 95.0543C238.78 95.0655 238.273 95.1422 237.782 95.2826L238.333 97.2054C238.658 97.1122 238.995 97.0613 239.334 97.0538L239.289 95.0543ZM238.963 96.6683C239.544 95.4293 239.704 94.0316 239.41 92.6909L237.457 93.1183C237.655 94.0265 237.547 94.9759 237.152 95.8197L238.963 96.6683ZM239.411 92.6925C239.12 91.3532 238.396 90.1473 237.35 89.2611L236.057 90.7869C236.767 91.3888 237.259 92.2076 237.456 93.1167L239.411 92.6925ZM237.35 89.261C236.304 88.3753 234.997 87.8581 233.627 87.7902L233.528 89.7878C234.458 89.8339 235.347 90.1851 236.057 90.787L237.35 89.261ZM233.627 87.7902C232.259 87.7221 230.907 88.1069 229.778 88.8846L230.913 90.5315C231.68 90.0027 232.599 89.7415 233.528 89.7878L233.627 87.7902ZM231.339 89.8179C231.496 88.3977 231.163 86.9646 230.388 85.76L228.706 86.842C229.231 87.6582 229.458 88.6311 229.351 89.5981L231.339 89.8179ZM230.388 85.76C229.615 84.5571 228.452 83.6562 227.092 83.209L226.467 85.109C227.391 85.4126 228.18 86.0241 228.706 86.842L230.388 85.76ZM227.092 83.2091C225.734 82.7621 224.262 82.7962 222.925 83.3058L223.638 85.1746C224.545 84.8286 225.545 84.8055 226.467 85.1089L227.092 83.2091ZM222.925 83.3058C221.588 83.8153 220.469 84.7693 219.752 86.0068L221.483 87.0092C221.97 86.1679 222.73 85.5203 223.638 85.1746L222.925 83.3058ZM221.607 86.3644C221.096 82.8467 218.137 81.0959 215.312 81.0708C212.48 81.0456 209.5 82.752 208.951 86.3179L210.928 86.6221C211.293 84.248 213.228 83.0524 215.294 83.0707C217.368 83.0891 219.29 84.3273 219.628 86.6517L221.607 86.3644ZM210.809 85.9753C210.101 84.7326 208.989 83.7702 207.655 83.25L206.928 85.1133C207.834 85.4666 208.59 86.1202 209.07 86.9647L210.809 85.9753ZM207.655 83.2502C206.324 82.7299 204.854 82.6832 203.491 83.1182L204.1 85.0234C205.025 84.728 206.023 84.7597 206.928 85.113L207.655 83.2502ZM203.492 83.118C202.127 83.5531 200.957 84.443 200.172 85.638L201.843 86.7364C202.378 85.923 203.172 85.3189 204.099 85.0236L203.492 83.118ZM200.171 85.6391C199.388 86.8344 199.038 88.2632 199.18 89.6859L201.17 89.4861C201.073 88.5192 201.311 87.548 201.844 86.7354L200.171 85.6391ZM200.751 88.768C199.629 87.9797 198.28 87.5823 196.911 87.6368L196.99 89.6352C197.921 89.5982 198.838 89.8683 199.6 90.4041L200.751 88.768ZM196.911 87.6368C195.542 87.6913 194.228 88.1947 193.173 89.0695L194.45 90.609C195.167 90.0145 196.06 89.6723 196.99 89.6352L196.911 87.6368ZM193.173 89.0695C192.119 89.9444 191.381 91.1417 191.074 92.4774L193.023 92.9254C193.232 92.0175 193.733 91.2037 194.45 90.6089L193.173 89.0695ZM191.074 92.4774C190.767 93.8129 190.908 95.2125 191.475 96.46L193.296 95.632C192.91 94.7843 192.814 93.8331 193.023 92.9254L191.074 92.4774ZM192.648 95.081C191.302 94.715 189.872 94.8105 188.587 95.3524L189.364 97.1953C190.237 96.8271 191.208 96.7622 192.123 97.011L192.648 95.081ZM188.587 95.3524C187.301 95.8944 186.235 96.8514 185.557 98.071L187.306 99.0422C187.766 98.2138 188.49 97.5636 189.364 97.1952L188.587 95.3524ZM185.557 98.071C184.88 99.2903 184.631 100.702 184.85 102.079L186.825 101.765C186.676 100.829 186.845 99.8706 187.306 99.0423L185.557 98.071ZM184.85 102.079C185.068 103.457 185.743 104.721 186.765 105.671L188.126 104.205C187.432 103.56 186.974 102.701 186.825 101.765L184.85 102.079ZM187.414 103.938C185.938 103.984 184.525 104.554 183.43 105.546L184.773 107.028C185.516 106.355 186.474 105.969 187.476 105.938L187.414 103.938ZM183.43 105.546C182.335 106.538 181.629 107.888 181.438 109.353L183.422 109.611C183.551 108.617 184.03 107.701 184.773 107.028L183.43 105.546ZM181.438 109.353C181.248 110.818 181.585 112.303 182.389 113.543L184.067 112.453C183.521 111.613 183.292 110.605 183.422 109.611L181.438 109.353ZM182.39 113.543C183.194 114.782 184.414 115.694 185.83 116.116L186.401 114.2C185.44 113.913 184.613 113.294 184.067 112.453L182.39 113.543ZM185.837 114.198C184.418 114.609 183.193 115.512 182.379 116.744L184.049 117.846C184.6 117.01 185.432 116.397 186.394 116.118L185.837 114.198ZM182.379 116.744C181.566 117.977 181.218 119.459 181.398 120.925L183.383 120.681C183.261 119.687 183.497 118.682 184.049 117.846L182.379 116.744ZM181.398 120.925C181.578 122.391 182.274 123.745 183.361 124.744L184.714 123.272C183.977 122.594 183.505 121.675 183.383 120.681L181.398 120.925ZM183.361 124.744C184.448 125.743 185.856 126.323 187.331 126.379L187.407 124.381C186.406 124.343 185.452 123.949 184.714 123.272L183.361 124.744ZM186.692 124.645C185.667 125.589 184.989 126.85 184.766 128.225L186.74 128.545C186.892 127.612 187.352 126.756 188.047 126.115L186.692 124.645ZM184.766 128.225C184.542 129.6 184.787 131.01 185.459 132.23L187.211 131.265C186.754 130.436 186.588 129.479 186.74 128.546L184.766 128.225ZM185.459 132.23C186.132 133.45 187.194 134.41 188.476 134.955L189.259 133.114C188.388 132.744 187.667 132.093 187.211 131.265L185.459 132.23ZM188.476 134.955C189.758 135.5 191.186 135.6 192.531 135.238L192.012 133.306C191.098 133.552 190.129 133.484 189.259 133.114L188.476 134.955ZM191.368 133.844C190.896 134.838 190.698 135.939 190.793 137.036L192.786 136.863C192.721 136.12 192.856 135.374 193.175 134.7L191.368 133.844ZM190.793 137.035C190.888 138.132 191.273 139.183 191.909 140.081L193.541 138.926C193.111 138.317 192.85 137.605 192.786 136.863L190.793 137.035ZM191.909 140.081C192.544 140.979 193.407 141.692 194.409 142.146L195.236 140.325C194.557 140.017 193.972 139.534 193.541 138.926L191.909 140.081ZM194.41 142.147C195.411 142.601 196.516 142.78 197.611 142.667L197.404 140.677C196.663 140.754 195.914 140.633 195.235 140.325L194.41 142.147ZM256.079 308.461L246.161 296.643L244.629 297.929L254.547 309.747L256.079 308.461ZM191.529 312.068L195.595 297.324L193.667 296.792L189.601 311.536L191.529 312.068ZM219.737 215.205C225.333 221.974 231.649 224.918 238.491 224.838L238.468 222.838C232.318 222.91 226.549 220.306 221.278 213.931L219.737 215.205ZM95.8614 75.414C95.8614 76.3198 95.1272 77.054 94.2214 77.054V79.054C96.2317 79.054 97.8614 77.4243 97.8614 75.414H95.8614ZM94.2214 77.054C93.3157 77.054 92.5814 76.3198 92.5814 75.414H90.5814C90.5814 77.4243 92.2111 79.054 94.2214 79.054V77.054ZM92.5814 75.414C92.5814 74.5083 93.3157 73.774 94.2214 73.774V71.774C92.2111 71.774 90.5814 73.4037 90.5814 75.414H92.5814ZM94.2214 73.774C95.1272 73.774 95.8614 74.5083 95.8614 75.414H97.8614C97.8614 73.4037 96.2317 71.774 94.2214 71.774V73.774ZM93.1836 37.788V63.3598H95.1836V37.788H93.1836Z" fill="#596A8C"/>
</svg>
