<?xml version="1.0" encoding="utf-8"?>
<svg width="231" height="48" viewBox="0 0 231 48" fill="none" xmlns="http://www.w3.org/2000/svg">
  <rect width="231" height="48" rx="4" fill="#4F46E5"/>
  <text x="30" y="32" font-family="Arial, sans-serif" font-size="24" font-weight="bold" fill="white">CityMaid</text>
<path d="M107.825 15.8857C109.252 15.8857 110.429 14.7087 110.429 13.2464C110.429 11.784 109.252 10.6427 107.825 10.6427C106.327 10.6427 105.15 11.784 105.15 13.2464C105.15 14.7087 106.327 15.8857 107.825 15.8857ZM105.649 37.0363H110.001V19.4168H105.649V37.0363Z" fill="white"/>
<path d="M118.883 37.0363V10.5H114.568V37.0363H118.883Z" fill="white"/>
<path d="M126.337 37.0363L128.441 31.0086H138.179L140.283 37.0363H145.098L135.682 10.9637H131.009L121.593 37.0363H126.337ZM132.757 18.7391C133.007 18.0258 133.221 17.2411 133.328 16.7417C133.399 17.2768 133.649 18.0614 133.863 18.7391L136.859 27.1565H129.797L132.757 18.7391Z" fill="white"/>
<path d="M154.165 37.5C156.84 37.5 159.122 36.323 160.192 34.29L160.478 37.0363H164.472V10.5H160.157V21.6638C159.051 19.9161 156.875 18.8818 154.414 18.8818C149.1 18.8818 145.89 22.8052 145.89 28.2979C145.89 33.755 149.064 37.5 154.165 37.5ZM155.128 33.5053C152.096 33.5053 150.241 31.2939 150.241 28.1552C150.241 25.0165 152.096 22.7695 155.128 22.7695C158.159 22.7695 160.121 24.9808 160.121 28.1552C160.121 31.3296 158.159 33.5053 155.128 33.5053Z" fill="white"/>
<path d="M173.359 37.0363V27.0495C173.359 24.1962 175.035 22.8408 177.104 22.8408C179.172 22.8408 180.492 24.1605 180.492 26.6215V37.0363H184.843V27.0495C184.843 24.1605 186.448 22.8052 188.553 22.8052C190.621 22.8052 191.977 24.1248 191.977 26.6572V37.0363H196.292V25.5159C196.292 21.4498 193.938 18.8818 189.658 18.8818C186.983 18.8818 184.915 20.2015 184.023 22.2345C183.096 20.2015 181.241 18.8818 178.566 18.8818C176.034 18.8818 174.25 20.0231 173.359 21.4855L173.002 19.4168H169.007V37.0363H173.359Z" fill="white"/>
<path d="M202.74 15.8857C204.167 15.8857 205.344 14.7087 205.344 13.2464C205.344 11.784 204.167 10.6427 202.74 10.6427C201.242 10.6427 200.065 11.784 200.065 13.2464C200.065 14.7087 201.242 15.8857 202.74 15.8857ZM200.564 37.0363H204.916V19.4168H200.564V37.0363Z" fill="white"/>
<path d="M213.763 37.0363V27.5489C213.763 24.6955 215.403 22.8408 218.078 22.8408C220.325 22.8408 221.788 24.2675 221.788 27.2279V37.0363H226.139V26.1935C226.139 21.6281 223.856 18.8818 219.434 18.8818C217.044 18.8818 214.904 19.9161 213.798 21.6995L213.442 19.4168H209.411V37.0363H213.763Z" fill="white"/>
<defs>
<filter id="filter0_d_3903_56743" x="12.0615" y="9.60596" width="7.05273" height="29.7896" filterUnits="userSpaceOnUse" color-interpolation-filters="sRGB">
<feFlood flood-opacity="0" result="BackgroundImageFix"/>
<feColorMatrix in="SourceAlpha" type="matrix" values="0 0 0 0 0 0 0 0 0 0 0 0 0 0 0 0 0 0 127 0" result="hardAlpha"/>
<feOffset dy="0.5"/>
<feGaussianBlur stdDeviation="0.5"/>
<feComposite in2="hardAlpha" operator="out"/>
<feColorMatrix type="matrix" values="0 0 0 0 0 0 0 0 0 0 0 0 0 0 0 0 0 0 0.12 0"/>
<feBlend mode="normal" in2="BackgroundImageFix" result="effect1_dropShadow_3903_56743"/>
<feBlend mode="normal" in="SourceGraphic" in2="effect1_dropShadow_3903_56743" result="shape"/>
</filter>
<filter id="filter1_d_3903_56743" x="21.5391" y="19.709" width="7.05273" height="19.6843" filterUnits="userSpaceOnUse" color-interpolation-filters="sRGB">
<feFlood flood-opacity="0" result="BackgroundImageFix"/>
<feColorMatrix in="SourceAlpha" type="matrix" values="0 0 0 0 0 0 0 0 0 0 0 0 0 0 0 0 0 0 127 0" result="hardAlpha"/>
<feOffset dy="0.5"/>
<feGaussianBlur stdDeviation="0.5"/>
<feComposite in2="hardAlpha" operator="out"/>
<feColorMatrix type="matrix" values="0 0 0 0 0 0 0 0 0 0 0 0 0 0 0 0 0 0 0.12 0"/>
<feBlend mode="normal" in2="BackgroundImageFix" result="effect1_dropShadow_3903_56743"/>
<feBlend mode="normal" in="SourceGraphic" in2="effect1_dropShadow_3903_56743" result="shape"/>
</filter>
<filter id="filter2_d_3903_56743" x="31.0078" y="13.3926" width="7.05273" height="26" filterUnits="userSpaceOnUse" color-interpolation-filters="sRGB">
<feFlood flood-opacity="0" result="BackgroundImageFix"/>
<feColorMatrix in="SourceAlpha" type="matrix" values="0 0 0 0 0 0 0 0 0 0 0 0 0 0 0 0 0 0 127 0" result="hardAlpha"/>
<feOffset dy="0.5"/>
<feGaussianBlur stdDeviation="0.5"/>
<feComposite in2="hardAlpha" operator="out"/>
<feColorMatrix type="matrix" values="0 0 0 0 0 0 0 0 0 0 0 0 0 0 0 0 0 0 0.12 0"/>
<feBlend mode="normal" in2="BackgroundImageFix" result="effect1_dropShadow_3903_56743"/>
<feBlend mode="normal" in="SourceGraphic" in2="effect1_dropShadow_3903_56743" result="shape"/>
</filter>
</defs>
</svg>
