<svg xmlns="http://www.w3.org/2000/svg" xmlns:xlink="http://www.w3.org/1999/xlink" version="1.1" width="1000" height="1100" viewBox="0 0 1000 1100">
<defs>
<clipPath id="clip_0">
<path transform="matrix(1,0,0,-1,0,1100)" d="M0 0H999.625V1099.365H0Z"/>
</clipPath>
<clipPath id="clip_1">
<path transform="matrix(1,0,0,-1,0,1100)" d="M0 1100H1000V0H0Z"/>
</clipPath>
<clipPath id="clip_2">
<path transform="matrix(1,0,0,-1,0,1100)" d="M0 1100H1000V0H0Z"/>
</clipPath>
<clipPath id="clip_3">
<path transform="matrix(1,0,0,-1,0,1100)" d="M0 1100H1000V0H0Z"/>
</clipPath>
<clipPath id="clip_4">
<path transform="matrix(1,0,0,-1,0,1100)" d="M175.996 524H480.354V624.795H175.996Z"/>
</clipPath>
<clipPath id="clip_5">
<path transform="matrix(1,0,0,-1,0,1100)" d="M192.239 541.591H496.597V642.387H192.239Z"/>
</clipPath>
<clipPath id="clip_6">
<path transform="matrix(1,0,0,-1,0,1100)" d="M494.909 479.093H795.124V577.272H494.909Z"/>
</clipPath>
<clipPath id="clip_7">
<path transform="matrix(1,0,0,-1,0,1100)" d="M511.189 487.186H811.404V585.364H511.189Z"/>
</clipPath>
<clipPath id="clip_8">
<path transform="matrix(1,0,0,-1,0,1100)" d="M0 1100H1000V0H0Z"/>
</clipPath>
</defs>
<g>
<g id="layer_1" data-name="difrnt BG">
<g clip-path="url(#clip_0)">
</g>
<g clip-path="url(#clip_1)">
</g>
</g>
<g id="layer_1" data-name="diff colrs">
<g clip-path="url(#clip_2)">
</g>
</g>
<g id="layer_1" data-name="font TVA">
<g clip-path="url(#clip_3)">
<g opacity=".509995">
<g clip-path="url(#clip_4)">
</g>
</g>
<g opacity=".699997">
<g clip-path="url(#clip_5)">
</g>
</g>
<g opacity=".520004">
<g clip-path="url(#clip_6)">
</g>
</g>
<g opacity=".690002">
<g clip-path="url(#clip_7)">
</g>
</g>
</g>
</g>
<g id="layer_1" data-name="Full Logo">
<g clip-path="url(#clip_8)">
<path transform="matrix(1,0,0,-1,498.3848,216.11518)" stroke-width="3" stroke-linecap="butt" stroke-miterlimit="10" stroke-linejoin="miter" fill="none" stroke="#231f20" d="M0 0C-83.871 0-160.417-31.306-218.637-82.846H218.637C160.417-31.306 83.87 0 0 0Z"/>
<path transform="matrix(1,0,0,-1,498.3848,876.11526)" stroke-width="3" stroke-linecap="butt" stroke-miterlimit="10" stroke-linejoin="miter" fill="none" stroke="#231f20" d="M0 0C81.101 0 155.354 29.273 212.811 77.808H-212.811C-155.354 29.273-81.101 0 0 0Z"/>
<path transform="matrix(1,0,0,-1,758.1982,376.38484)" stroke-width="3" stroke-linecap="butt" stroke-miterlimit="10" stroke-linejoin="miter" fill="none" stroke="#231f20" d="M0 0H60C52.063 13.528 43.196 26.445 33.476 38.654H-483.103C-492.824 26.445-501.69 13.528-509.627 0H-569.627C-577.08-12.701-583.714-25.939-589.442-39.654H19.814C14.087-25.939 7.452-12.701 0 0Z"/>
<path transform="matrix(1,0,0,-1,785.6523,683.7041)" stroke-width="3" stroke-linecap="butt" stroke-miterlimit="10" stroke-linejoin="miter" fill="none" stroke="#231f20" d="M0 0H-614.849C-608.9-13.634-602.063-26.79-594.429-39.409H-545.661C-537.073-53.604-527.473-67.119-516.936-79.834H-.377C10.159-67.119 19.76-53.604 28.348-39.409H-20.421C-12.786-26.79-5.949-13.634 0 0Z"/>
<path transform="matrix(1,0,0,-1,887.2314,513.3076)" stroke-width="3" stroke-linecap="butt" stroke-miterlimit="10" stroke-linejoin="miter" fill="none" stroke="#231f20" d="M0 0C-1.398 19.832-3.509 39.34-6.296 58.461H-689.397C-692.185 39.34-694.295 19.832-695.694 0H-731.698C-733.017-11.667-733.702-23.514-733.702-35.514-733.702-50.753-732.606-65.748-730.502-80.439H-773.462C-771.985-96.951-770.023-113.229-767.584-129.23H-76.076C-73.637-113.229-71.676-96.951-70.198-80.439H-38.586C-36.481-65.748-35.386-50.753-35.386-35.514-35.386-23.514-36.07-11.667-37.39 0H0Z"/>
<path transform="matrix(1,0,0,-1,662.1416,252.84522)" d="M0 0C-34.58 19.289-91.075 42.191-163.788 41.73-236.474 41.273-292.931 18.436-327.494-.643-365.034-21.364-384.169-45.258-385.007-46.116H-370.238C-370.043-45.917-358.92-29.412-322.662-9.397-289.114 9.12-234.309 31.287-163.726 31.73-93.327 32.187-38.69 10.076-5.22-8.539 31.134-28.758 47.001-45.913 47.196-46.116H62.094C61.257-45.239 37.552-20.947 0 0" fill="#231f20"/>
<path transform="matrix(1,0,0,-1,656.7373,835.0918)" d="M0 0C-33.471-18.223-88.107-39.867-158.506-39.42-229.089-38.986-283.895-17.287-317.442 .84-353.7 20.432-364.823 36.589-365.018 36.784H-379.787C-378.95 35.943-359.814 12.554-322.274-7.73-287.711-26.406-231.254-48.762-158.568-49.209-85.855-49.66-29.36-27.241 5.22-8.359 42.771 12.146 66.477 35.926 67.313 36.784H52.416C52.221 36.585 36.354 19.792 0 0" fill="#231f20"/>
<path transform="matrix(1,0,0,-1,191.0308,380.88484)" d="M0 0 63.7 .079 64.932 2.607C72.619 18.385 91.356 42.936 91.538 43.154H78.345C77.614 42.277 64.476 25.354 55.833 9H-4.879L-6.214 6.981C-6.842 6.032-23.292-17.708-28.249-35.154H-17.581C-13.817-21.907-3.682-5.835 0 0" fill="#231f20"/>
<path transform="matrix(1,0,0,-1,162.1196,592.65237)" d="M0 0C-6.039 29.735-3.167 62.043-1.766 73.845H35.35L34.902 79.759C33.644 96.398 41.156 137.404 41.231 137.806H32.469C32.183 136.274 26.468 102.01 26.279 82.336H-6.19L-6.923 77.695C-7.185 76.041-12.912 38.887-6.889 1.897H-48.626L-48.754-3.472C-48.774-4.292-48.878-20.228-42.472-49.886H-36.94C-41.145-30.42-42.446-14.167-42.75-6.595H1.339Z" fill="#231f20"/>
<path transform="matrix(1,0,0,-1,892.3848,508.1563)" d="M0 0C.02 .82-.622 23.652-7.028 53.31H-13.691C-9.487 33.844-6.309 10.695-6.004 3.123H-50.094L-48.754-3.472C-42.715-33.208-45.588-65.298-46.988-77.1H-82.905L-82.458-83.014C-81.199-99.652-88.677-133.98-88.751-134.382H-81.229C-80.944-132.851-75.222-105.265-75.033-85.591H-42.564L-41.831-80.949C-41.569-79.296-35.843-42.358-41.865-5.369H-.128Z" fill="#231f20"/>
<path transform="matrix(1,0,0,-1,243.0024,717.6133)" d="M0 0H-49.04C-59.404 14.296-66.258 33.686-66.337 33.909H-76.419C-76.059 32.883-67.601 8.884-55.29-6.776L-53.638-8.877H-5.195C-.307-16.412 13.16-36.86 21.426-45.925H33.127C23.922-35.831 1.811-2.832 1.623-2.537Z" fill="#231f20"/>
<path transform="matrix(1,0,0,-1,782.4414,416.03858)" d="M0 0C-4.713 12.473-12.908 27.864-17.306 35.654H42.557L39.253 41.597C30.731 56.928 15.006 77.342 14.262 78.308H4.345C4.501 78.105 19.82 57.989 28.74 43.654H-31.313L-27.672 37.593C-27.543 37.38-15.305 17.447-8.715 0Z" fill="#231f20"/>
<path transform="matrix(1,0,0,-1,790.0957,683.7041)" d="M0 0H-8.765C-8.861-.243-17.948-22.996-28.107-37.067L-32.686-43.409H16.696C11.123-52.185-1.123-71.054-9.347-79.834H.549C12.742-66.816 26.637-42.62 27.326-41.479L31-35.409H-17.421C-8.458-20.819-.354-.894 0 0" fill="#231f20"/>
</g>
</g>
</g>
</svg>
