<?xml version="1.0" encoding="UTF-8"?>
<svg width="150px" height="40px" viewBox="0 0 150 40" version="1.1" xmlns="http://www.w3.org/2000/svg" xmlns:xlink="http://www.w3.org/1999/xlink">
    <title>CityMaid</title>
    <g id="Page-1" stroke="none" stroke-width="1" fill="none" fill-rule="evenodd">
        <g id="CityMaid-Logo" transform="translate(-20.000000, -20.000000)" fill="#4F46E5">
            <text font-family="Arial-Bold, Arial" font-size="24" font-weight="bold">
                <tspan x="20" y="45">CityMaid</tspan>
            </text>
        </g>
    </g>
  <path d="M134.876 10.5905C135.827 10.5905 136.612 9.80581 136.612 8.83091C136.612 7.85601 135.827 7.09511 134.876 7.09511C133.877 7.09511 133.093 7.85601 133.093 8.83091C133.093 9.80581 133.877 10.5905 134.876 10.5905ZM133.426 24.6909H136.327V12.9445H133.426V24.6909Z" fill="#101828"/>
  <path d="M142.225 24.6909V18.3659C142.225 16.4637 143.318 15.2272 145.102 15.2272C146.6 15.2272 147.575 16.1783 147.575 18.1519V24.6909H150.476V17.4624C150.476 14.4188 148.954 12.5878 146.005 12.5878C144.412 12.5878 142.985 13.2774 142.248 14.4663L142.011 12.9445H139.324V24.6909H142.225Z" fill="#101828"/>
  <defs>
    <filter id="filter0_d_1624_24907" x="7.42383" y="6.2373" width="5.36841" height="20.5263" filterUnits="userSpaceOnUse" color-interpolation-filters="sRGB">
      <feFlood flood-opacity="0" result="BackgroundImageFix"/>
      <feColorMatrix in="SourceAlpha" type="matrix" values="0 0 0 0 0 0 0 0 0 0 0 0 0 0 0 0 0 0 127 0" result="hardAlpha"/>
      <feOffset dy="0.5"/>
      <feGaussianBlur stdDeviation="0.5"/>
      <feComposite in2="hardAlpha" operator="out"/>
      <feColorMatrix type="matrix" values="0 0 0 0 0 0 0 0 0 0 0 0 0 0 0 0 0 0 0.12 0"/>
      <feBlend mode="normal" in2="BackgroundImageFix" result="effect1_dropShadow_1624_24907"/>
      <feBlend mode="normal" in="SourceGraphic" in2="effect1_dropShadow_1624_24907" result="shape"/>
    </filter>
    <filter id="filter1_d_1624_24907" x="13.7422" y="12.9727" width="5.36841" height="13.7895" filterUnits="userSpaceOnUse" color-interpolation-filters="sRGB">
      <feFlood flood-opacity="0" result="BackgroundImageFix"/>
      <feColorMatrix in="SourceAlpha" type="matrix" values="0 0 0 0 0 0 0 0 0 0 0 0 0 0 0 0 0 0 127 0" result="hardAlpha"/>
      <feOffset dy="0.5"/>
      <feGaussianBlur stdDeviation="0.5"/>
      <feComposite in2="hardAlpha" operator="out"/>
      <feColorMatrix type="matrix" values="0 0 0 0 0 0 0 0 0 0 0 0 0 0 0 0 0 0 0.12 0"/>
      <feBlend mode="normal" in2="BackgroundImageFix" result="effect1_dropShadow_1624_24907"/>
      <feBlend mode="normal" in="SourceGraphic" in2="effect1_dropShadow_1624_24907" result="shape"/>
    </filter>
    <filter id="filter2_d_1624_24907" x="20.0547" y="8.76172" width="5.36841" height="18" filterUnits="userSpaceOnUse" color-interpolation-filters="sRGB">
      <feFlood flood-opacity="0" result="BackgroundImageFix"/>
      <feColorMatrix in="SourceAlpha" type="matrix" values="0 0 0 0 0 0 0 0 0 0 0 0 0 0 0 0 0 0 127 0" result="hardAlpha"/>
      <feOffset dy="0.5"/>
      <feGaussianBlur stdDeviation="0.5"/>
      <feComposite in2="hardAlpha" operator="out"/>
      <feColorMatrix type="matrix" values="0 0 0 0 0 0 0 0 0 0 0 0 0 0 0 0 0 0 0.12 0"/>
      <feBlend mode="normal" in2="BackgroundImageFix" result="effect1_dropShadow_1624_24907"/>
      <feBlend mode="normal" in="SourceGraphic" in2="effect1_dropShadow_1624_24907" result="shape"/>
    </filter>
  </defs>
<path d="M71.5995 10.5905C72.5506 10.5905 73.3353 9.80581 73.3353 8.83091C73.3353 7.85601 72.5506 7.09511 71.5995 7.09511C70.6008 7.09511 69.8161 7.85601 69.8161 8.83091C69.8161 9.80581 70.6008 10.5905 71.5995 10.5905ZM70.149 24.6909H73.0499V12.9445H70.149V24.6909Z" fill="#101828"/>
<path d="M78.9718 24.6909V7H76.0946V24.6909H78.9718Z" fill="#101828"/>
<path d="M83.9408 24.6909L85.3437 20.6724H91.8352L93.2381 24.6909H96.4481L90.1707 7.30912H87.0558L80.7784 24.6909H83.9408ZM88.2209 12.4927C88.3873 12.0172 88.53 11.4941 88.6013 11.1612C88.6489 11.5178 88.8153 12.041 88.958 12.4927L90.9554 18.1044H86.2473L88.2209 12.4927Z" fill="#101828"/>
<path d="M102.493 25C104.276 25 105.798 24.2153 106.511 22.86L106.701 24.6909H109.364V7H106.487V14.4425C105.75 13.2774 104.3 12.5878 102.659 12.5878C99.1161 12.5878 96.9761 15.2034 96.9761 18.8653C96.9761 22.5033 99.0923 25 102.493 25ZM103.135 22.3369C101.113 22.3369 99.877 20.8626 99.877 18.7701C99.877 16.6777 101.113 15.1797 103.135 15.1797C105.156 15.1797 106.463 16.6539 106.463 18.7701C106.463 20.8864 105.156 22.3369 103.135 22.3369Z" fill="#101828"/>
<path d="M115.289 24.6909V18.033C115.289 16.1308 116.406 15.2272 117.785 15.2272C119.164 15.2272 120.044 16.107 120.044 17.7477V24.6909H122.945V18.033C122.945 16.107 124.015 15.2034 125.418 15.2034C126.797 15.2034 127.701 16.0832 127.701 17.7715V24.6909H130.578V17.0106C130.578 14.2999 129.008 12.5878 126.155 12.5878C124.372 12.5878 122.993 13.4676 122.398 14.823C121.78 13.4676 120.543 12.5878 118.76 12.5878C117.072 12.5878 115.883 13.3487 115.289 14.3236L115.051 12.9445H112.388V24.6909H115.289Z" fill="#101828"/>
<path d="M134.876 10.5905C135.827 10.5905 136.612 9.80581 136.612 8.83091C136.612 7.85601 135.827 7.09511 134.876 7.09511C133.877 7.09511 133.093 7.85601 133.093 8.83091C133.093 9.80581 133.877 10.5905 134.876 10.5905ZM133.426 24.6909H136.327V12.9445H133.426V24.6909Z" fill="#101828"/>
<path d="M142.225 24.6909V18.3659C142.225 16.4637 143.318 15.2272 145.102 15.2272C146.6 15.2272 147.575 16.1783 147.575 18.1519V24.6909H150.476V17.4624C150.476 14.4188 148.954 12.5878 146.005 12.5878C144.412 12.5878 142.985 13.2774 142.248 14.4663L142.011 12.9445H139.324V24.6909H142.225Z" fill="#101828"/>
<defs>
<filter id="filter0_d_1624_24907" x="7.42383" y="6.2373" width="5.36841" height="20.5263" filterUnits="userSpaceOnUse" color-interpolation-filters="sRGB">
<feFlood flood-opacity="0" result="BackgroundImageFix"/>
<feColorMatrix in="SourceAlpha" type="matrix" values="0 0 0 0 0 0 0 0 0 0 0 0 0 0 0 0 0 0 127 0" result="hardAlpha"/>
<feOffset dy="0.5"/>
<feGaussianBlur stdDeviation="0.5"/>
<feComposite in2="hardAlpha" operator="out"/>
<feColorMatrix type="matrix" values="0 0 0 0 0 0 0 0 0 0 0 0 0 0 0 0 0 0 0.12 0"/>
<feBlend mode="normal" in2="BackgroundImageFix" result="effect1_dropShadow_1624_24907"/>
<feBlend mode="normal" in="SourceGraphic" in2="effect1_dropShadow_1624_24907" result="shape"/>
</filter>
<filter id="filter1_d_1624_24907" x="13.7422" y="12.9727" width="5.36841" height="13.7895" filterUnits="userSpaceOnUse" color-interpolation-filters="sRGB">
<feFlood flood-opacity="0" result="BackgroundImageFix"/>
<feColorMatrix in="SourceAlpha" type="matrix" values="0 0 0 0 0 0 0 0 0 0 0 0 0 0 0 0 0 0 127 0" result="hardAlpha"/>
<feOffset dy="0.5"/>
<feGaussianBlur stdDeviation="0.5"/>
<feComposite in2="hardAlpha" operator="out"/>
<feColorMatrix type="matrix" values="0 0 0 0 0 0 0 0 0 0 0 0 0 0 0 0 0 0 0.12 0"/>
<feBlend mode="normal" in2="BackgroundImageFix" result="effect1_dropShadow_1624_24907"/>
<feBlend mode="normal" in="SourceGraphic" in2="effect1_dropShadow_1624_24907" result="shape"/>
</filter>
<filter id="filter2_d_1624_24907" x="20.0547" y="8.76172" width="5.36841" height="18" filterUnits="userSpaceOnUse" color-interpolation-filters="sRGB">
<feFlood flood-opacity="0" result="BackgroundImageFix"/>
<feColorMatrix in="SourceAlpha" type="matrix" values="0 0 0 0 0 0 0 0 0 0 0 0 0 0 0 0 0 0 127 0" result="hardAlpha"/>
<feOffset dy="0.5"/>
<feGaussianBlur stdDeviation="0.5"/>
<feComposite in2="hardAlpha" operator="out"/>
<feColorMatrix type="matrix" values="0 0 0 0 0 0 0 0 0 0 0 0 0 0 0 0 0 0 0.12 0"/>
<feBlend mode="normal" in2="BackgroundImageFix" result="effect1_dropShadow_1624_24907"/>
<feBlend mode="normal" in="SourceGraphic" in2="effect1_dropShadow_1624_24907" result="shape"/>
</filter>
</defs>
</svg>
