<svg version="1.1" id="Layer_1" xmlns="http://www.w3.org/2000/svg" xmlns:xlink="http://www.w3.org/1999/xlink" x="0px" y="0px"
	 width="120%" viewBox="0 0 1084 466" enable-background="new 0 0 1084 466" xml:space="preserve">
<path fill="#0A1C09" opacity="1.000000" stroke="none" 
	d="
M657.000000,467.000000 
	C438.000000,467.000000 219.500000,467.000000 1.000000,467.000000 
	C1.000000,311.666656 1.000000,156.333328 1.000000,1.000000 
	C362.333344,1.000000 723.666687,1.000000 1085.000000,1.000000 
	C1085.000000,156.333328 1085.000000,311.666656 1085.000000,467.000000 
	C942.500000,467.000000 800.000000,467.000000 657.000000,467.000000 
M791.782593,350.690552 
	C789.775574,355.621338 787.968689,360.647217 785.688721,365.448425 
	C784.246704,368.485199 785.395020,369.670410 788.098022,369.665283 
	C802.727539,369.637573 817.356750,369.447418 832.850586,369.632568 
	C836.249207,369.542725 839.647827,369.452881 843.924744,369.677460 
	C855.035767,369.716278 866.150024,369.900421 877.254822,369.655823 
	C879.184509,369.613312 882.061584,368.226685 882.803040,366.658203 
	C885.336487,361.298279 887.112671,355.580414 889.318176,349.793915 
	C889.318176,349.793915 889.152039,349.608948 889.686035,349.273865 
	C889.942383,348.524414 890.198730,347.774994 890.868958,346.509155 
	C890.961121,345.869110 891.053284,345.229034 891.671875,344.252441 
	C891.916199,343.511292 892.160583,342.770142 892.887207,341.419128 
	C894.682678,336.492371 896.478088,331.565613 898.810669,326.290070 
	C899.070984,325.523407 899.331299,324.756775 899.946472,323.468323 
	C900.052124,322.855988 900.157776,322.243683 900.799622,321.282440 
	C901.059998,320.517639 901.320374,319.752838 901.999695,318.357422 
	C903.104858,315.124847 904.210083,311.892242 905.913086,308.250061 
	C907.858093,306.865387 909.625427,305.044128 911.777466,304.168060 
	C924.166321,299.124695 936.646301,294.305115 949.858582,289.342804 
	C960.565369,284.213196 971.272156,279.083618 982.692139,273.891541 
	C993.808105,266.958405 1004.924072,260.025269 1016.717896,252.954163 
	C1025.765747,245.208939 1034.813599,237.463715 1044.479004,229.514252 
	C1050.686401,221.015823 1056.893921,212.517395 1063.623779,203.583023 
	C1066.325317,196.061844 1069.026855,188.540649 1072.045288,180.229080 
	C1072.327515,174.785889 1073.132690,169.309265 1072.787109,163.906219 
	C1071.973389,151.182602 1068.326172,139.410110 1058.752563,130.305511 
	C1048.236450,120.304779 1035.045166,116.037804 1021.191956,113.399239 
	C1020.050232,113.181801 1018.433472,113.672005 1017.509583,114.418060 
	C1014.170349,117.114494 1011.032837,120.060806 1007.165894,123.069016 
	C1001.736511,127.694405 996.307068,132.319794 990.261353,137.207611 
	C984.765320,141.949554 979.269287,146.691498 973.097717,151.659149 
	C961.592346,160.915482 950.086975,170.171814 938.581604,179.428146 
	C938.847961,179.891129 939.114380,180.354111 939.380737,180.817093 
	C960.247620,180.817093 981.114563,180.817093 1002.905029,180.971268 
	C1006.400269,180.992020 1009.905334,180.867523 1013.386230,181.101379 
	C1014.886108,181.202148 1016.336060,182.044937 1017.808716,182.550629 
	C1016.977600,184.037338 1016.435608,185.828262 1015.256531,186.948837 
	C1012.620911,189.453659 1009.667725,191.624298 1006.233093,194.190109 
	C1005.228577,195.047409 1004.279785,195.982330 1003.210693,196.749710 
	C994.754028,202.819778 986.274475,208.857971 977.136047,215.059021 
	C973.412903,217.438126 969.673889,219.792725 965.970154,222.201660 
	C958.939209,226.774643 951.928528,231.378693 944.253723,236.163483 
	C934.644714,242.001450 925.035706,247.839417 914.743835,253.772858 
	C901.815125,261.124115 888.886414,268.475372 875.254089,275.962463 
	C871.326416,278.058777 867.403320,280.163788 863.470154,282.249756 
	C852.601257,288.014252 841.728149,293.770813 830.127563,299.703094 
	C809.748047,309.809845 789.368530,319.916595 768.989075,330.023346 
	C769.158875,330.583405 769.328674,331.143463 769.498474,331.703491 
	C779.329712,330.823975 789.160889,329.944427 799.089294,329.855591 
	C796.771423,336.590881 794.453552,343.326141 791.782593,350.690552 
M908.575500,134.668716 
	C916.358459,127.132187 924.141418,119.595657 932.130615,111.859467 
	C931.183411,111.104027 930.697327,110.377342 930.206360,110.374023 
	C916.124573,110.279144 902.042419,110.256851 887.032349,110.136284 
	C877.342712,110.192535 867.653076,110.248795 857.040100,110.176086 
	C848.347107,110.235054 839.654175,110.294014 830.041626,110.201439 
	C817.528076,110.365143 805.014587,110.528839 792.381714,110.694099 
	C806.152405,120.785965 819.998779,129.643112 832.288940,140.295700 
	C845.092590,151.393433 851.779297,166.932571 857.180481,184.091171 
	C865.332397,176.121338 872.636841,168.980057 880.559326,161.614700 
	C885.054138,157.079620 889.549011,152.544540 894.636475,147.716553 
	C899.079346,143.453796 903.522278,139.191040 908.575500,134.668716 
M870.047119,211.091064 
	C863.886902,211.065109 857.719421,211.208527 851.569336,210.945633 
	C848.221985,210.802567 846.544983,211.923538 845.306885,215.117706 
	C838.270996,233.268967 830.991455,251.325714 823.840393,269.432617 
	C823.486328,270.329254 823.557800,271.393951 823.431091,272.380402 
	C823.893311,272.757965 824.355591,273.135529 824.817810,273.513092 
	C843.857849,258.288208 862.897888,243.063324 882.566589,227.627289 
	C888.643494,222.531052 894.720337,217.434830 900.797241,212.338593 
	C900.581543,211.959656 900.365906,211.580704 900.150208,211.201752 
	C890.425110,211.201752 880.700012,211.201752 870.047119,211.091064 
M280.021149,193.761536 
	C281.671295,189.864044 283.321442,185.966553 285.311127,181.267105 
	C281.044250,181.267105 277.732483,181.505417 274.471466,181.200592 
	C271.158997,180.890961 269.809296,182.398483 268.775269,185.291626 
	C265.639221,194.066071 262.264832,202.755722 258.938721,211.461395 
	C258.475037,212.675110 257.761230,213.793289 257.163208,214.955688 
	C256.791351,214.844040 256.419495,214.732376 256.047607,214.620728 
	C255.360016,203.617676 254.672424,192.614624 253.963287,181.266983 
	C250.413254,181.266983 247.410919,181.509232 244.464142,181.208023 
	C240.431824,180.795837 238.173386,182.053116 236.715881,186.126129 
	C234.140839,193.322144 230.888077,200.276627 227.888733,207.319336 
	C226.703964,210.101227 225.438156,212.848633 224.209274,215.611755 
	C223.685074,215.522614 223.160873,215.433487 222.636673,215.344360 
	C222.636673,204.172379 222.636673,193.000397 222.636673,181.598221 
	C217.121002,181.598221 212.578506,181.598221 207.436157,181.598221 
	C208.817703,199.825378 210.170883,217.678040 211.554993,235.938950 
	C214.024872,235.938950 216.037918,235.642578 217.932541,235.990753 
	C225.731125,237.423935 229.971878,234.430496 232.308899,226.704071 
	C234.543045,219.317719 238.248505,212.376389 241.307251,205.239441 
	C241.788513,205.306091 242.269760,205.372742 242.751022,205.439392 
	C243.527786,215.546524 244.304535,225.653656 245.094940,235.938339 
	C249.709030,235.938339 253.879990,235.728592 258.017548,236.009903 
	C260.918457,236.207123 262.086914,234.920761 263.130798,232.477982 
	C268.564117,219.763412 274.157837,207.117416 280.021149,193.761536 
M166.145081,181.232864 
	C164.983185,181.143082 163.819183,181.074539 162.659698,180.960281 
	C145.755798,179.294556 132.087952,189.182571 128.541428,205.649551 
	C125.411621,220.181564 131.671326,232.476608 143.831528,235.681702 
	C161.154083,240.247421 178.981567,229.177170 182.545944,211.641373 
	C185.635254,196.442688 180.385788,186.279175 166.145081,181.232864 
M378.437561,229.303497 
	C381.198059,236.529633 385.152802,237.867889 396.284241,235.135910 
	C393.592712,228.350388 390.916748,221.604095 388.239655,214.854919 
	C390.499725,213.647339 392.475433,212.769638 394.263489,211.604065 
	C400.490540,207.544769 404.112762,198.707932 402.409821,192.010986 
	C400.737518,185.434647 395.694183,181.803833 386.734436,181.380646 
	C379.917023,181.058670 373.070709,181.396698 366.243530,181.210526 
	C363.257324,181.129105 362.708221,182.737762 362.298462,185.135376 
	C359.634064,200.726532 356.864471,216.299713 354.152954,231.882904 
	C353.939911,233.107315 353.906555,234.363007 353.757874,235.942291 
	C356.533142,235.942291 358.873444,235.706696 361.148468,235.991821 
	C365.752991,236.568878 368.139557,235.380783 368.397705,230.102203 
	C368.631470,225.322815 370.154785,220.606461 371.109497,215.862320 
	C371.750092,215.783142 372.390656,215.703979 373.031219,215.624817 
	C374.754150,219.936478 376.477051,224.248138 378.437561,229.303497 
M495.256714,204.560989 
	C489.778839,214.766006 484.300964,224.971008 478.413696,235.938690 
	C481.582733,235.938690 483.894196,235.648788 486.105225,235.996918 
	C491.273407,236.810654 494.603485,235.094269 496.337921,229.994324 
	C496.788330,228.669907 498.399506,226.868027 499.560822,226.804321 
	C505.471436,226.480148 511.409393,226.654800 517.268799,226.654800 
	C518.023315,230.115402 518.645081,232.967163 519.209290,235.555054 
	C524.184082,235.555054 528.746155,235.555054 533.680054,235.555054 
	C530.942200,220.901001 528.260498,206.691330 525.638977,192.470581 
	C523.563232,181.210587 523.592712,181.377411 512.385986,181.167145 
	C508.804535,181.099960 507.017761,182.382858 505.507751,185.433487 
	C502.409302,191.693130 498.949219,197.773758 495.256714,204.560989 
M611.870300,219.038239 
	C608.521912,218.515793 607.415344,219.873489 607.849182,223.234390 
	C608.593994,229.003983 611.885132,232.652893 617.027771,234.678055 
	C623.262024,237.133057 629.724182,237.106552 636.127197,235.371597 
	C643.129272,233.474350 647.903625,229.244232 648.933044,221.740616 
	C649.893982,214.736328 646.908081,209.874573 639.408447,205.860626 
	C636.184753,204.135208 632.678101,202.836533 629.728638,200.740753 
	C628.106445,199.588120 626.864746,197.279785 626.487366,195.295471 
	C626.332886,194.483276 628.981750,192.182953 630.236023,192.270462 
	C632.384521,192.420380 634.510437,193.788025 636.503723,194.899231 
	C637.525085,195.468674 638.192383,197.281418 639.099854,197.342560 
	C643.160706,197.616119 647.250366,197.461563 651.287598,197.461563 
	C651.530945,189.139435 648.693787,184.148651 641.751526,182.340439 
	C637.050781,181.116089 631.887024,180.891876 627.014648,181.279526 
	C618.871704,181.927383 612.631653,187.757401 611.560608,194.630234 
	C610.228149,203.181244 613.070618,207.945786 621.996277,212.222626 
	C625.289062,213.800415 628.708801,215.206619 631.736816,217.198563 
	C632.973145,218.011902 634.266541,220.533432 633.845825,221.630249 
	C633.281311,223.101883 631.227112,224.520523 629.553162,224.949142 
	C624.862488,226.150177 622.645142,223.114182 621.625671,219.037918 
	C618.412903,219.037918 615.588013,219.037918 611.870300,219.038239 
M64.822311,217.899551 
	C63.828232,223.732666 62.834160,229.565781 61.802498,235.619446 
	C66.752792,235.619446 71.135811,235.619446 75.590332,235.619446 
	C76.430908,231.087570 77.617157,226.880341 77.893562,222.614166 
	C78.197350,217.925491 80.121040,216.582214 84.717865,216.701752 
	C92.334267,216.899796 99.709122,215.476379 105.084427,209.293365 
	C110.038155,203.595337 111.646118,196.895401 109.052803,189.807236 
	C106.558624,182.990051 100.289116,181.645294 93.949059,181.349060 
	C87.812408,181.062347 81.641953,181.484604 75.507141,181.178589 
	C71.983986,181.002838 70.943283,182.536987 70.440681,185.636734 
	C68.739609,196.128082 66.838074,206.586914 64.822311,217.899551 
M445.183289,216.711014 
	C459.126434,214.430237 465.687805,208.967438 467.284760,198.309952 
	C468.571289,189.724228 464.392822,183.124191 455.812775,182.123108 
	C447.598480,181.164703 439.232330,181.398163 430.933624,181.417160 
	C429.953094,181.419403 428.360474,183.242813 428.101349,184.447769 
	C426.670471,191.101624 425.533722,197.819992 424.355865,204.526718 
	C422.555023,214.780762 420.802795,225.043335 418.970856,235.644394 
	C423.860016,235.644394 428.241852,235.644394 432.766510,235.644394 
	C433.940308,229.377106 435.065369,223.370071 436.298248,216.787231 
	C439.034851,216.787231 441.656281,216.787231 445.183289,216.711014 
M322.577087,203.032700 
	C320.666168,203.032700 318.755249,203.032700 316.808533,203.032700 
	C317.587646,192.524902 317.587646,192.524887 326.914581,192.517136 
	C327.581238,192.516586 328.247864,192.515579 328.914520,192.515610 
	C338.791382,192.516052 338.795776,192.516418 339.523315,182.640503 
	C339.542694,182.377319 339.211761,182.088333 338.716919,181.270462 
	C328.918915,181.270462 318.791962,181.180817 308.672119,181.407669 
	C307.648315,181.430618 306.055450,183.220901 305.774017,184.434006 
	C304.647064,189.291611 303.929596,194.244431 303.067261,199.163193 
	C300.950165,211.239319 298.836700,223.316086 296.625671,235.941208 
	C305.141174,235.941208 313.092133,235.941238 321.043091,235.941193 
	C330.654022,235.941147 330.657837,235.941650 331.998474,226.354553 
	C332.037537,226.075119 331.796051,225.756424 331.500305,224.953934 
	C325.458008,224.953934 319.228302,224.953934 312.726471,224.953934 
	C313.010529,222.626038 313.149933,220.816040 313.471466,219.038971 
	C313.785278,217.304764 314.285126,215.604248 314.736450,213.752975 
	C317.862000,213.752975 320.515259,213.753647 323.168518,213.752853 
	C332.875519,213.749954 332.875519,213.749771 333.395233,203.032730 
	C330.100708,203.032730 326.818512,203.032730 322.577087,203.032700 
M573.879517,181.269714 
	C570.601318,181.269714 567.323181,181.269714 563.596497,181.269714 
	C560.369385,199.544495 557.212341,217.422592 553.991028,235.664520 
	C564.608643,235.664520 574.664795,235.664520 585.039185,235.664520 
	C585.606506,232.288132 586.163757,228.971954 586.807312,225.142090 
	C580.772095,225.142090 575.665405,225.142090 570.027222,225.142090 
	C570.271240,223.099838 570.388245,221.478806 570.667542,219.886215 
	C572.674622,208.442169 574.716675,197.004257 576.742065,185.563416 
	C577.078674,183.662231 578.137207,181.400848 573.879517,181.269714 
M647.289978,272.779358 
	C645.751953,274.932251 643.787842,276.900909 642.761108,279.274933 
	C640.336426,284.881409 639.841003,290.680847 643.866882,295.842987 
	C647.752319,300.825165 653.295227,301.100769 658.905029,300.012451 
	C667.225891,298.398224 673.916931,289.829773 672.617981,282.326080 
	C667.893677,282.326080 663.086609,282.208191 658.294800,282.426697 
	C657.349121,282.469788 656.462463,283.808105 655.548584,284.549103 
	C656.488098,285.200684 657.381775,286.316193 658.375916,286.414246 
	C661.039612,286.676971 663.746338,286.503876 666.775818,286.503876 
	C664.202515,294.149200 657.301025,297.545349 651.416016,295.034882 
	C646.232666,292.823792 644.719910,286.281006 647.914001,279.888550 
	C652.130249,271.450592 660.683960,270.037872 667.373962,276.418945 
	C668.616089,277.603729 670.934570,277.660065 673.700928,278.536499 
	C672.421204,272.427246 669.549316,269.541992 665.056152,268.276062 
	C658.615906,266.461456 652.894104,268.113770 647.289978,272.779358 
M103.346573,276.381866 
	C103.724762,273.687012 104.102951,270.992126 104.459129,268.454132 
	C100.671371,267.082428 99.607491,268.447021 99.151749,271.388672 
	C98.229759,277.339905 96.999207,283.243347 95.895889,289.166473 
	C93.957863,287.924347 93.106804,286.589661 92.410957,285.178436 
	C89.980988,280.250366 87.735092,275.225037 85.114655,270.402130 
	C84.473602,269.222321 82.753609,268.274292 81.372810,267.994934 
	C80.642517,267.847137 78.932663,269.243866 78.758110,270.153137 
	C76.885132,279.909729 75.230553,289.708191 73.515678,299.497803 
	C78.353592,300.257751 78.421425,300.260010 79.182129,296.232635 
	C80.278008,290.430756 81.284225,284.611908 82.328705,278.800323 
	C82.774323,278.772644 83.219940,278.744965 83.665558,278.717255 
	C84.404549,280.136536 85.179329,281.538452 85.875977,282.978210 
	C88.196739,287.774445 90.333542,292.669800 92.893913,297.333374 
	C93.604271,298.627197 95.585350,300.014099 96.898621,299.935822 
	C97.947693,299.873230 99.443260,297.775116 99.746620,296.366394 
	C101.111420,290.028778 102.121628,283.614777 103.346573,276.381866 
M234.649338,286.513123 
	C236.367020,286.616211 238.084686,286.719299 239.949295,286.831207 
	C237.874298,293.413239 232.188919,296.850220 226.384674,295.541107 
	C221.447098,294.427490 218.914780,290.593842 219.629745,284.971619 
	C220.358322,279.242218 223.243149,275.000916 228.822891,272.996307 
	C233.809052,271.205017 237.769882,272.396088 241.036728,276.853027 
	C241.848663,277.960754 244.535309,277.694336 246.628189,278.113159 
	C245.885162,270.033508 236.923279,265.893951 228.662552,268.198730 
	C219.221252,270.832825 212.603989,280.893097 214.474945,289.990234 
	C216.081055,297.799652 222.155945,301.524719 231.127289,300.201263 
	C239.672134,298.940735 246.945618,290.529358 246.142242,282.330261 
	C241.229874,282.330261 236.261642,282.217407 231.308350,282.438965 
	C230.461685,282.476868 229.678970,283.943970 228.866714,284.750854 
	C229.683105,285.334595 230.431015,286.095215 231.337540,286.446075 
	C232.062317,286.726654 232.980026,286.508789 234.649338,286.513123 
M605.494690,279.838135 
	C604.114258,276.996002 602.996704,273.977539 601.253418,271.378754 
	C600.231201,269.854858 598.212585,268.999329 596.642151,267.843109 
	C595.728516,269.402008 594.577698,270.874268 593.967529,272.544098 
	C593.350769,274.232208 593.257324,276.114014 592.955627,277.914459 
	C591.737366,285.184723 590.527222,292.456360 589.330750,299.627960 
	C592.951355,300.735931 594.342163,299.941406 594.802063,296.767578 
	C595.678955,290.715576 596.975525,284.724335 598.097961,278.707886 
	C598.551697,278.714996 599.005493,278.722107 599.459290,278.729218 
	C602.427673,284.835114 605.256592,291.015930 608.467346,296.991638 
	C609.224121,298.400238 611.179504,299.654022 612.757935,299.912048 
	C613.476746,300.029541 614.821350,297.647339 615.507568,296.219086 
	C616.063477,295.061798 616.075439,293.638214 616.301147,292.328033 
	C617.669373,284.386169 619.029724,276.442932 620.374023,268.609039 
	C615.959595,266.732269 615.190369,269.070404 614.697571,272.054169 
	C613.747986,277.803528 612.673645,283.532257 611.651001,289.269501 
	C611.185425,289.278168 610.719849,289.286835 610.254272,289.295471 
	C608.775391,286.367035 607.296509,283.438599 605.494690,279.838135 
M168.874634,287.037811 
	C168.143890,291.231293 167.413147,295.424744 166.690201,299.573456 
	C170.374985,300.860016 172.013824,300.014374 172.200668,296.550934 
	C172.307327,294.573608 172.640396,292.544739 173.286148,290.682861 
	C173.713181,289.451569 174.766602,287.739929 175.740799,287.594910 
	C176.688675,287.453827 178.277802,288.814087 178.902863,289.905853 
	C180.133087,292.054749 181.042007,294.425262 181.809097,296.793091 
	C183.052780,300.632080 185.420990,300.804810 188.891968,299.405853 
	C187.198578,295.281128 185.635513,291.473785 184.031113,287.565765 
	C185.812744,286.345703 187.405014,285.451385 188.766312,284.286987 
	C193.156693,280.531677 194.191147,273.787598 190.564713,270.573608 
	C185.655670,266.222900 179.429092,267.783478 173.809189,268.306061 
	C172.602676,268.418243 171.609787,273.175140 170.919357,275.894196 
	C170.062210,279.269867 169.621933,282.751404 168.874634,287.037811 
M505.501831,281.828186 
	C503.089417,281.828186 500.677002,281.828186 497.740814,281.828186 
	C498.449768,276.779572 499.035828,272.606171 499.621857,268.432770 
	C499.222656,268.077484 498.823425,267.722198 498.424225,267.366943 
	C497.061951,268.429230 494.751831,269.297668 494.488617,270.584747 
	C492.528748,280.168182 490.974701,289.834595 489.294586,299.467957 
	C494.171600,300.374786 494.197144,300.366882 494.900574,296.343903 
	C495.330200,293.887024 495.491852,291.350708 496.233917,288.994965 
	C496.598175,287.838593 497.948883,286.250153 498.957489,286.169983 
	C503.020233,285.847107 507.123718,286.036255 511.576172,286.036255 
	C510.880524,291.125519 510.287994,295.460297 509.695465,299.795074 
	C510.077148,300.102081 510.458862,300.409058 510.840546,300.716034 
	C512.154114,299.920105 514.428955,299.316101 514.632202,298.298462 
	C516.605042,288.418488 518.230713,278.469177 519.958679,268.521271 
	C513.734192,266.466858 514.517578,271.157013 514.017700,273.938690 
	C512.609802,281.774078 512.736633,281.796875 505.501831,281.828186 
M444.593353,271.059998 
	C439.944153,274.260620 437.374115,278.810364 436.354614,284.233368 
	C434.931488,291.803223 439.036896,298.566467 445.790619,300.098938 
	C453.949615,301.950317 464.905182,297.203003 465.717499,289.114563 
	C462.729370,290.686859 460.318604,291.660767 458.241364,293.112122 
	C454.400848,295.795502 450.033905,297.337128 446.213287,294.585632 
	C443.789581,292.840149 441.756470,289.058167 441.556732,286.055817 
	C441.226105,281.086914 443.919891,276.796295 448.359070,274.055206 
	C453.285736,271.013092 458.069672,271.913300 462.230347,275.941498 
	C463.593140,277.260895 465.897034,277.608185 468.741699,278.810486 
	C467.799438,272.445221 464.840546,269.660553 460.431427,268.282440 
	C455.008911,266.587646 449.925873,267.630005 444.593353,271.059998 
M393.786560,290.189423 
	C391.419647,293.204315 389.052734,296.219177 386.158539,299.905701 
	C395.414337,301.255310 395.352417,292.025421 400.648804,289.952118 
	C407.592499,300.248840 407.592499,300.248840 411.084167,299.192413 
	C409.566498,295.683685 408.255463,292.110107 406.507111,288.765167 
	C404.802338,285.503632 405.222351,282.983398 407.648682,280.244293 
	C410.857574,276.621765 413.690460,272.666229 417.167053,268.240021 
	C407.985870,266.786194 407.901031,276.254059 402.468597,278.290466 
	C396.138489,267.774475 396.138489,267.774475 392.105438,268.828186 
	C393.363373,271.741577 394.267517,274.784821 395.887848,277.381104 
	C398.821198,282.081177 398.348419,286.021301 393.786560,290.189423 
M561.441895,274.901581 
	C561.319275,274.417145 561.295776,273.876007 561.056885,273.458069 
	C560.042358,271.683502 559.355713,269.062653 557.824890,268.383270 
	C554.899841,267.085205 553.612915,269.784149 552.401428,272.083954 
	C548.987000,278.565887 545.436707,284.976074 541.984253,291.438171 
	C540.550415,294.121918 539.229126,296.865814 537.856628,299.582336 
	C538.154419,299.918304 538.452148,300.254272 538.749939,300.590240 
	C540.316467,300.012054 542.955383,299.783112 543.275879,298.799103 
	C545.388733,292.312012 550.447754,293.122925 555.439880,293.151764 
	C558.120911,293.167267 559.880676,293.588959 560.164917,296.740723 
	C560.488831,300.330872 562.504700,301.068390 565.882874,299.280273 
	C564.459900,291.394684 563.045837,283.559143 561.441895,274.901581 
M131.003235,290.923553 
	C130.814529,285.976288 134.089005,286.066589 137.664413,286.054688 
	C139.984543,286.046906 143.734406,287.495514 143.330856,282.005615 
	C141.542862,282.005615 139.918137,282.044312 138.296112,281.994720 
	C136.689621,281.945587 135.085831,281.807404 133.554352,281.712830 
	C132.741013,273.071838 133.515121,272.160553 141.261368,272.138580 
	C142.261078,272.135773 143.422089,272.453064 144.223831,272.052521 
	C145.523682,271.403137 146.587860,270.282043 147.751541,269.360107 
	C147.460403,268.840363 147.169266,268.320587 146.878128,267.800812 
	C141.917770,267.800812 136.953995,267.707886 132.000275,267.889221 
	C131.140457,267.920715 129.725586,268.998596 129.576797,269.784393 
	C127.699409,279.698547 126.007431,289.647827 124.158562,300.214050 
	C129.830246,300.214050 134.796432,300.324921 139.748657,300.111511 
	C140.636505,300.073273 141.466644,298.695923 142.323410,297.936829 
	C141.502869,297.345276 140.734848,296.360413 139.851059,296.242371 
	C137.885971,295.979858 135.855637,296.040375 133.865051,296.170380 
	C130.401855,296.396637 129.846725,294.701691 131.003235,290.923553 
M35.595837,274.716675 
	C34.125706,283.002228 32.655575,291.287781 31.071661,300.214630 
	C33.493347,300.214630 35.121746,300.217438 36.750130,300.214081 
	C40.076527,300.207214 43.416615,300.360443 46.720524,300.083466 
	C47.647995,300.005676 48.469093,298.659027 49.338978,297.894409 
	C48.325878,297.319061 47.345493,296.330933 46.293404,296.247528 
	C43.400589,296.018219 40.477703,296.168335 37.586735,296.168335 
	C37.647053,286.410431 37.707878,286.343445 46.000065,286.120483 
	C46.664967,286.102631 47.505836,286.342590 47.958427,286.025391 
	C48.897274,285.367401 49.630005,284.415375 50.447487,283.584259 
	C49.555729,283.064026 48.694141,282.170013 47.766438,282.095093 
	C45.203655,281.888214 42.613247,282.023529 40.052101,282.023529 
	C40.000816,272.247925 40.081470,272.160706 48.477406,272.127106 
	C49.142704,272.124451 49.901878,272.332123 50.454659,272.082123 
	C51.792980,271.476929 53.035103,270.658966 54.315994,269.926758 
	C53.108101,269.212738 51.956802,268.037720 50.680485,267.881042 
	C48.058666,267.559113 45.307487,268.147064 42.721867,267.704437 
	C37.572685,266.822968 35.825813,269.327972 35.595837,274.716675 
M357.741699,267.775696 
	C355.415436,268.449982 351.304138,268.717468 351.043213,269.862366 
	C348.807251,279.674438 347.268097,289.645294 345.408478,300.206085 
	C350.969330,300.206085 355.912445,300.315948 360.842316,300.109650 
	C361.782013,300.070312 362.669495,298.781952 363.581085,298.069885 
	C362.628967,297.434570 361.716187,296.336334 360.717316,296.251465 
	C357.813141,296.004730 354.874481,296.163940 351.970978,296.163940 
	C351.838623,286.607880 351.983887,286.551178 360.695953,286.038239 
	C362.212494,285.948944 363.661438,284.710999 365.141632,284.003601 
	C364.937134,283.411407 364.732635,282.819214 364.528168,282.227020 
	C362.932800,282.154907 361.336853,282.094299 359.742249,282.007629 
	C358.004486,281.913147 356.268005,281.794556 354.588806,281.690063 
	C354.372162,272.487732 354.652740,272.192871 363.099518,272.131500 
	C364.095703,272.124268 365.246063,272.412109 366.048767,272.010742 
	C367.049622,271.510376 367.763855,270.436676 368.601868,269.610565 
	C367.772888,269.006317 366.987000,267.967987 366.106750,267.880646 
	C363.639465,267.635834 361.133209,267.783569 357.741699,267.775696 
M702.598877,296.116699 
	C701.862610,295.435028 700.553284,294.808899 700.480957,294.062836 
	C699.906799,288.140106 701.837463,286.256134 707.911865,286.092102 
	C710.208801,286.030029 713.607666,287.292542 713.462280,282.243256 
	C709.979919,282.081024 706.615479,281.924286 703.300110,281.769836 
	C703.014343,272.554047 703.359314,272.182220 711.743042,272.138550 
	C712.574402,272.134216 713.565430,272.418762 714.203552,272.065552 
	C715.485596,271.355865 716.575134,270.298431 717.744141,269.384491 
	C717.457214,268.855438 717.170349,268.326385 716.883484,267.797333 
	C711.936218,267.797333 706.985657,267.705688 702.044800,267.883301 
	C701.173096,267.914642 699.731262,268.954987 699.584656,269.725708 
	C697.701050,279.625610 696.005188,289.561218 694.136292,300.201996 
	C699.887390,300.201996 704.990723,300.289093 710.084595,300.108307 
	C710.850159,300.081116 711.571228,298.801453 712.312927,298.101166 
	C711.551025,297.457611 710.846619,296.364624 710.015991,296.258392 
	C707.888123,295.986237 705.704102,296.152863 702.598877,296.116699 
M292.596985,267.872681 
	C291.058533,269.220856 289.252747,270.365417 288.038116,271.960236 
	C285.615051,275.141632 283.516479,278.570160 280.665771,282.817596 
	C279.284515,278.485809 278.324097,275.661896 277.488037,272.801636 
	C276.559296,269.624268 275.743347,266.414673 270.617462,268.715607 
	C272.326141,273.665558 274.724792,278.523376 275.567383,283.637543 
	C276.426971,288.854950 275.757538,294.324310 275.757538,299.654205 
	C280.140930,300.134888 280.474854,300.162170 280.728333,297.060547 
	C281.267090,290.467926 284.072845,285.017700 288.119507,279.971832 
	C290.407257,277.119232 292.340851,273.984283 294.472229,271.003906 
	C295.711853,269.270508 296.138245,267.939148 292.596985,267.872681 
z"/>
<path fill="#F6F7F6" opacity="1.000000" stroke="none" 
	d="
M279.858459,194.104538 
	C274.157837,207.117416 268.564117,219.763412 263.130798,232.477982 
	C262.086914,234.920761 260.918457,236.207123 258.017548,236.009903 
	C253.879990,235.728592 249.709030,235.938339 245.094940,235.938339 
	C244.304535,225.653656 243.527786,215.546524 242.751022,205.439392 
	C242.269760,205.372742 241.788513,205.306091 241.307251,205.239441 
	C238.248505,212.376389 234.543045,219.317719 232.308899,226.704071 
	C229.971878,234.430496 225.731125,237.423935 217.932541,235.990753 
	C216.037918,235.642578 214.024872,235.938950 211.554993,235.938950 
	C210.170883,217.678040 208.817703,199.825378 207.436157,181.598221 
	C212.578506,181.598221 217.121002,181.598221 222.636673,181.598221 
	C222.636673,193.000397 222.636673,204.172379 222.636673,215.344360 
	C223.160873,215.433487 223.685074,215.522614 224.209274,215.611755 
	C225.438156,212.848633 226.703964,210.101227 227.888733,207.319336 
	C230.888077,200.276627 234.140839,193.322144 236.715881,186.126129 
	C238.173386,182.053116 240.431824,180.795837 244.464142,181.208023 
	C247.410919,181.509232 250.413254,181.266983 253.963287,181.266983 
	C254.672424,192.614624 255.360016,203.617676 256.047607,214.620728 
	C256.419495,214.732376 256.791351,214.844040 257.163208,214.955688 
	C257.761230,213.793289 258.475037,212.675110 258.938721,211.461395 
	C262.264832,202.755722 265.639221,194.066071 268.775269,185.291626 
	C269.809296,182.398483 271.158997,180.890961 274.471466,181.200592 
	C277.732483,181.505417 281.044250,181.267105 285.311127,181.267105 
	C283.321442,185.966553 281.671295,189.864044 279.858459,194.104538 
z"/>
<path fill="#48DF3F" opacity="1.000000" stroke="none" 
	d="
M900.263428,321.631348 
	C900.157776,322.243683 900.052124,322.855988 899.458984,323.846252 
	C898.738831,325.029053 898.506165,325.833954 898.273438,326.638855 
	C896.478088,331.565613 894.682678,336.492371 892.366760,341.853943 
	C891.612671,343.055511 891.379089,343.822235 891.145508,344.588959 
	C891.053284,345.229034 890.961121,345.869110 890.374023,346.894104 
	C889.636780,348.055664 889.394409,348.832306 889.152039,349.608948 
	C889.152039,349.608948 889.318176,349.793915 888.873657,349.889404 
	C887.689758,349.694489 886.765137,349.595215 886.238403,349.085175 
	C877.475586,340.600067 868.811462,332.012207 859.985107,323.594299 
	C858.674377,322.344177 856.651367,321.840942 854.709717,320.729736 
	C851.973572,320.645233 849.485535,320.823212 846.997437,320.603241 
	C847.193665,313.796967 841.452576,311.766357 838.044983,307.997742 
	C835.563049,305.252930 833.246826,302.358337 830.856689,299.530518 
	C841.728149,293.770813 852.601257,288.014252 863.470154,282.249756 
	C867.403320,280.163788 871.326416,278.058777 875.651794,276.250549 
	C877.139465,277.965240 878.090637,279.528900 879.342163,280.795837 
	C886.809814,288.354919 894.395630,295.797821 901.818054,303.400421 
	C903.263245,304.880676 904.163635,306.892792 905.315308,308.659637 
	C904.210083,311.892242 903.104858,315.124847 901.481873,318.790436 
	C900.730530,320.026093 900.497009,320.828705 900.263428,321.631348 
z"/>
<path fill="#2CA61C" opacity="1.000000" stroke="none" 
	d="
M1063.101318,204.018967 
	C1056.893921,212.517395 1050.686401,221.015823 1044.033203,229.336212 
	C1033.302979,218.253143 1023.085815,207.282913 1012.652771,196.522064 
	C1011.282959,195.109207 1008.807312,194.768402 1006.843872,193.931061 
	C1009.667725,191.624298 1012.620911,189.453659 1015.256531,186.948837 
	C1016.435608,185.828262 1016.977600,184.037338 1017.808716,182.550629 
	C1016.336060,182.044937 1014.886108,181.202148 1013.386230,181.101379 
	C1009.905334,180.867523 1006.400269,180.992020 1002.437622,180.545837 
	C1001.497070,179.102280 1001.266418,177.834167 1000.513794,177.104095 
	C991.645569,168.500534 982.699097,159.977600 973.773193,151.433426 
	C979.269287,146.691498 984.765320,141.949554 990.965515,137.096710 
	C994.254761,138.300293 997.161133,139.223053 999.350952,141.019394 
	C1002.792175,143.842178 1005.776489,147.228073 1008.908875,150.420151 
	C1025.373413,167.198608 1041.804321,184.010071 1058.314941,200.742920 
	C1059.647949,202.093887 1061.493774,202.938873 1063.101318,204.018967 
z"/>
<path fill="#35CA21" opacity="1.000000" stroke="none" 
	d="
M1016.040039,253.092133 
	C1004.924072,260.025269 993.808105,266.958405 982.188110,273.596924 
	C980.585327,271.164032 979.917908,268.607117 978.316467,266.956482 
	C969.000305,257.354034 959.512146,247.915924 949.947144,238.560333 
	C948.657288,237.298767 946.607422,236.814240 944.909485,235.969879 
	C951.928528,231.378693 958.939209,226.774643 965.970154,222.201660 
	C969.673889,219.792725 973.412903,217.438126 977.855103,215.021133 
	C980.701172,216.140961 983.218872,216.896927 984.891052,218.522598 
	C994.529663,227.893112 1004.044556,237.395630 1013.394226,247.053864 
	C1014.826782,248.533661 1015.184937,251.053391 1016.040039,253.092133 
z"/>
<path fill="#3FD632" opacity="1.000000" stroke="none" 
	d="
M905.614136,308.454834 
	C904.163635,306.892792 903.263245,304.880676 901.818054,303.400421 
	C894.395630,295.797821 886.809814,288.354919 879.342163,280.795837 
	C878.090637,279.528900 877.139465,277.965240 876.003601,276.182648 
	C888.886414,268.475372 901.815125,261.124115 915.432922,253.903320 
	C926.493347,264.302399 936.905151,274.531036 947.175781,284.899445 
	C948.244324,285.978180 948.475586,287.886322 949.095337,289.409637 
	C936.646301,294.305115 924.166321,299.124695 911.777466,304.168060 
	C909.625427,305.044128 907.858093,306.865387 905.614136,308.454834 
z"/>
<path fill="#2A9B1A" opacity="1.000000" stroke="none" 
	d="
M1063.362549,203.800995 
	C1061.493774,202.938873 1059.647949,202.093887 1058.314941,200.742920 
	C1041.804321,184.010071 1025.373413,167.198608 1008.908875,150.420151 
	C1005.776489,147.228073 1002.792175,143.842178 999.350952,141.019394 
	C997.161133,139.223053 994.254761,138.300293 991.273682,136.965485 
	C996.307068,132.319794 1001.736511,127.694405 1007.890503,123.020172 
	C1010.702026,124.105911 1013.190674,124.833870 1014.813965,126.437721 
	C1031.693970,143.115479 1048.401611,159.967804 1065.262573,176.665100 
	C1067.076416,178.461334 1069.557129,179.584213 1071.728394,181.019470 
	C1069.026855,188.540649 1066.325317,196.061844 1063.362549,203.800995 
z"/>
<path fill="#238117" opacity="1.000000" stroke="none" 
	d="
M879.941284,161.838760 
	C872.636841,168.980057 865.332397,176.121338 857.180481,184.091171 
	C851.779297,166.932571 845.092590,151.393433 832.288940,140.295700 
	C819.998779,129.643112 806.152405,120.785965 792.381714,110.694099 
	C805.014587,110.528839 817.528076,110.365143 830.523071,110.604187 
	C832.098145,112.599785 832.957275,114.436455 834.321350,115.747917 
	C848.485657,129.365250 862.767151,142.860779 876.898315,156.512039 
	C878.310242,157.876022 878.945557,160.043930 879.941284,161.838760 
z"/>
<path fill="#F5F6F5" opacity="1.000000" stroke="none" 
	d="
M166.540314,181.325470 
	C180.385788,186.279175 185.635254,196.442688 182.545944,211.641373 
	C178.981567,229.177170 161.154083,240.247421 143.831528,235.681702 
	C131.671326,232.476608 125.411621,220.181564 128.541428,205.649551 
	C132.087952,189.182571 145.755798,179.294556 162.659698,180.960281 
	C163.819183,181.074539 164.983185,181.143082 166.540314,181.325470 
M156.836166,223.008438 
	C166.130402,219.489380 170.897522,211.275558 169.023972,201.860901 
	C168.119019,197.313400 165.328293,194.594940 160.697357,193.922134 
	C151.938400,192.649567 144.659042,197.643982 142.351517,206.898453 
	C139.906952,216.702423 144.331924,224.993195 156.836166,223.008438 
z"/>
<path fill="#31B81E" opacity="1.000000" stroke="none" 
	d="
M1016.378967,253.023163 
	C1015.184937,251.053391 1014.826782,248.533661 1013.394226,247.053864 
	C1004.044556,237.395630 994.529663,227.893112 984.891052,218.522598 
	C983.218872,216.896927 980.701172,216.140961 978.187988,214.944595 
	C986.274475,208.857971 994.754028,202.819778 1003.210693,196.749710 
	C1004.279785,195.982330 1005.228577,195.047409 1006.538452,194.060577 
	C1008.807312,194.768402 1011.282959,195.109207 1012.652771,196.522064 
	C1023.085815,207.282913 1033.302979,218.253143 1043.724365,229.438324 
	C1034.813599,237.463715 1025.765747,245.208939 1016.378967,253.023163 
z"/>
<path fill="#F5F6F5" opacity="1.000000" stroke="none" 
	d="
M378.318787,228.931641 
	C376.477051,224.248138 374.754150,219.936478 373.031219,215.624817 
	C372.390656,215.703979 371.750092,215.783142 371.109497,215.862320 
	C370.154785,220.606461 368.631470,225.322815 368.397705,230.102203 
	C368.139557,235.380783 365.752991,236.568878 361.148468,235.991821 
	C358.873444,235.706696 356.533142,235.942291 353.757874,235.942291 
	C353.906555,234.363007 353.939911,233.107315 354.152954,231.882904 
	C356.864471,216.299713 359.634064,200.726532 362.298462,185.135376 
	C362.708221,182.737762 363.257324,181.129105 366.243530,181.210526 
	C373.070709,181.396698 379.917023,181.058670 386.734436,181.380646 
	C395.694183,181.803833 400.737518,185.434647 402.409821,192.010986 
	C404.112762,198.707932 400.490540,207.544769 394.263489,211.604065 
	C392.475433,212.769638 390.499725,213.647339 388.239655,214.854919 
	C390.916748,221.604095 393.592712,228.350388 396.284241,235.135910 
	C385.152802,237.867889 381.198059,236.529633 378.318787,228.931641 
M381.351196,192.930725 
	C374.114502,192.926483 372.319275,195.712128 373.571808,205.775909 
	C376.610016,205.565796 379.741150,205.618149 382.764313,205.072464 
	C386.582947,204.383179 388.307526,201.536087 388.328796,197.853867 
	C388.351685,193.889954 385.564758,192.981125 381.351196,192.930725 
z"/>
<path fill="#268F19" opacity="1.000000" stroke="none" 
	d="
M1071.886841,180.624283 
	C1069.557129,179.584213 1067.076416,178.461334 1065.262573,176.665100 
	C1048.401611,159.967804 1031.693970,143.115479 1014.813965,126.437721 
	C1013.190674,124.833870 1010.702026,124.105911 1008.217102,122.942047 
	C1011.032837,120.060806 1014.170349,117.114494 1017.509583,114.418060 
	C1018.433472,113.672005 1020.050232,113.181801 1021.191956,113.399239 
	C1035.045166,116.037804 1048.236450,120.304779 1058.752563,130.305511 
	C1068.326172,139.410110 1071.973389,151.182602 1072.787109,163.906219 
	C1073.132690,169.309265 1072.327515,174.785889 1071.886841,180.624283 
z"/>
<path fill="#3AD129" opacity="1.000000" stroke="none" 
	d="
M949.476929,289.376221 
	C948.475586,287.886322 948.244324,285.978180 947.175781,284.899445 
	C936.905151,274.531036 926.493347,264.302399 915.774353,253.855576 
	C925.035706,247.839417 934.644714,242.001450 944.581604,236.066681 
	C946.607422,236.814240 948.657288,237.298767 949.947144,238.560333 
	C959.512146,247.915924 969.000305,257.354034 978.316467,266.956482 
	C979.917908,268.607117 980.585327,271.164032 981.831543,273.628174 
	C971.272156,279.083618 960.565369,284.213196 949.476929,289.376221 
z"/>
<path fill="#F6F7F6" opacity="1.000000" stroke="none" 
	d="
M495.447388,204.244537 
	C498.949219,197.773758 502.409302,191.693130 505.507751,185.433487 
	C507.017761,182.382858 508.804535,181.099960 512.385986,181.167145 
	C523.592712,181.377411 523.563232,181.210587 525.638977,192.470581 
	C528.260498,206.691330 530.942200,220.901001 533.680054,235.555054 
	C528.746155,235.555054 524.184082,235.555054 519.209290,235.555054 
	C518.645081,232.967163 518.023315,230.115402 517.268799,226.654800 
	C511.409393,226.654800 505.471436,226.480148 499.560822,226.804321 
	C498.399506,226.868027 496.788330,228.669907 496.337921,229.994324 
	C494.603485,235.094269 491.273407,236.810654 486.105225,235.996918 
	C483.894196,235.648788 481.582733,235.938690 478.413696,235.938690 
	C484.300964,224.971008 489.778839,214.766006 495.447388,204.244537 
M507.139343,208.628708 
	C506.053864,210.812958 504.968384,212.997223 503.667145,215.615646 
	C508.074493,215.615646 511.771484,215.615646 515.931885,215.615646 
	C514.994141,209.972305 514.122314,204.725800 513.250549,199.479309 
	C512.875549,199.429184 512.500488,199.379074 512.125488,199.328949 
	C510.576263,202.205276 509.027008,205.081589 507.139343,208.628708 
z"/>
<path fill="#F6F7F6" opacity="1.000000" stroke="none" 
	d="
M612.316711,219.038086 
	C615.588013,219.037918 618.412903,219.037918 621.625671,219.037918 
	C622.645142,223.114182 624.862488,226.150177 629.553162,224.949142 
	C631.227112,224.520523 633.281311,223.101883 633.845825,221.630249 
	C634.266541,220.533432 632.973145,218.011902 631.736816,217.198563 
	C628.708801,215.206619 625.289062,213.800415 621.996277,212.222626 
	C613.070618,207.945786 610.228149,203.181244 611.560608,194.630234 
	C612.631653,187.757401 618.871704,181.927383 627.014648,181.279526 
	C631.887024,180.891876 637.050781,181.116089 641.751526,182.340439 
	C648.693787,184.148651 651.530945,189.139435 651.287598,197.461563 
	C647.250366,197.461563 643.160706,197.616119 639.099854,197.342560 
	C638.192383,197.281418 637.525085,195.468674 636.503723,194.899231 
	C634.510437,193.788025 632.384521,192.420380 630.236023,192.270462 
	C628.981750,192.182953 626.332886,194.483276 626.487366,195.295471 
	C626.864746,197.279785 628.106445,199.588120 629.728638,200.740753 
	C632.678101,202.836533 636.184753,204.135208 639.408447,205.860626 
	C646.908081,209.874573 649.893982,214.736328 648.933044,221.740616 
	C647.903625,229.244232 643.129272,233.474350 636.127197,235.371597 
	C629.724182,237.106552 623.262024,237.133057 617.027771,234.678055 
	C611.885132,232.652893 608.593994,229.003983 607.849182,223.234390 
	C607.415344,219.873489 608.521912,218.515793 612.316711,219.038086 
z"/>
<path fill="#299B1B" opacity="1.000000" stroke="none" 
	d="
M881.937927,227.838440 
	C862.897888,243.063324 843.857849,258.288208 824.817810,273.513092 
	C824.355591,273.135529 823.893311,272.757965 823.431091,272.380402 
	C823.557800,271.393951 823.486328,270.329254 823.840393,269.432617 
	C830.991455,251.325714 838.270996,233.268967 845.306885,215.117706 
	C846.544983,211.923538 848.221985,210.802567 851.569336,210.945633 
	C857.719421,211.208527 863.886902,211.065109 870.526489,211.492218 
	C873.374512,214.799530 875.906128,217.591080 878.057190,220.650208 
	C879.612549,222.862213 880.662537,225.429565 881.937927,227.838440 
z"/>
<path fill="#4DDE47" opacity="1.000000" stroke="none" 
	d="
M854.957825,320.992188 
	C856.651367,321.840942 858.674377,322.344177 859.985107,323.594299 
	C868.811462,332.012207 877.475586,340.600067 886.238403,349.085175 
	C886.765137,349.595215 887.689758,349.694489 888.803467,349.992004 
	C887.112671,355.580414 885.336487,361.298279 882.803040,366.658203 
	C882.061584,368.226685 879.184509,369.613312 877.254822,369.655823 
	C866.150024,369.900421 855.035767,369.716278 843.656616,369.203857 
	C849.488708,368.316895 855.589050,367.903564 862.925293,367.406525 
	C861.003479,365.042603 859.927368,363.496979 858.633240,362.162781 
	C849.432861,352.676910 840.187927,343.234222 831.144287,333.508789 
	C839.206848,329.157227 847.082336,325.074677 854.957825,320.992188 
z"/>
<path fill="#F4F5F4" opacity="1.000000" stroke="none" 
	d="
M64.917725,217.478867 
	C66.838074,206.586914 68.739609,196.128082 70.440681,185.636734 
	C70.943283,182.536987 71.983986,181.002838 75.507141,181.178589 
	C81.641953,181.484604 87.812408,181.062347 93.949059,181.349060 
	C100.289116,181.645294 106.558624,182.990051 109.052803,189.807236 
	C111.646118,196.895401 110.038155,203.595337 105.084427,209.293365 
	C99.709122,215.476379 92.334267,216.899796 84.717865,216.701752 
	C80.121040,216.582214 78.197350,217.925491 77.893562,222.614166 
	C77.617157,226.880341 76.430908,231.087570 75.590332,235.619446 
	C71.135811,235.619446 66.752792,235.619446 61.802498,235.619446 
	C62.834160,229.565781 63.828232,223.732666 64.917725,217.478867 
M87.873215,205.528351 
	C90.342247,203.928818 93.539566,202.807755 95.017929,200.557419 
	C95.964516,199.116531 94.898720,194.299133 93.822250,193.968674 
	C90.583725,192.974426 85.186096,191.991669 83.776749,193.660843 
	C81.506027,196.350159 81.750397,201.163086 80.814072,205.644791 
	C83.511314,205.644791 85.288750,205.644791 87.873215,205.528351 
z"/>
<path fill="#F4F5F4" opacity="1.000000" stroke="none" 
	d="
M444.730499,216.749115 
	C441.656281,216.787231 439.034851,216.787231 436.298248,216.787231 
	C435.065369,223.370071 433.940308,229.377106 432.766510,235.644394 
	C428.241852,235.644394 423.860016,235.644394 418.970856,235.644394 
	C420.802795,225.043335 422.555023,214.780762 424.355865,204.526718 
	C425.533722,197.819992 426.670471,191.101624 428.101349,184.447769 
	C428.360474,183.242813 429.953094,181.419403 430.933624,181.417160 
	C439.232330,181.398163 447.598480,181.164703 455.812775,182.123108 
	C464.392822,183.124191 468.571289,189.724228 467.284760,198.309952 
	C465.687805,208.967438 459.126434,214.430237 444.730499,216.749115 
M452.819275,199.926590 
	C452.132111,197.746964 451.949738,194.134186 450.655396,193.678238 
	C447.724823,192.645920 442.385620,191.874466 441.373230,193.328140 
	C439.193848,196.457382 439.126038,201.057220 438.184570,205.095749 
	C446.974121,206.354294 449.462555,205.494598 452.819275,199.926590 
z"/>
<path fill="#F5F6F5" opacity="1.000000" stroke="none" 
	d="
M323.056702,203.032715 
	C326.818512,203.032730 330.100708,203.032730 333.395233,203.032730 
	C332.875519,213.749771 332.875519,213.749954 323.168518,213.752853 
	C320.515259,213.753647 317.862000,213.752975 314.736450,213.752975 
	C314.285126,215.604248 313.785278,217.304764 313.471466,219.038971 
	C313.149933,220.816040 313.010529,222.626038 312.726471,224.953934 
	C319.228302,224.953934 325.458008,224.953934 331.500305,224.953934 
	C331.796051,225.756424 332.037537,226.075119 331.998474,226.354553 
	C330.657837,235.941650 330.654022,235.941147 321.043091,235.941193 
	C313.092133,235.941238 305.141174,235.941208 296.625671,235.941208 
	C298.836700,223.316086 300.950165,211.239319 303.067261,199.163193 
	C303.929596,194.244431 304.647064,189.291611 305.774017,184.434006 
	C306.055450,183.220901 307.648315,181.430618 308.672119,181.407669 
	C318.791962,181.180817 328.918915,181.270462 338.716919,181.270462 
	C339.211761,182.088333 339.542694,182.377319 339.523315,182.640503 
	C338.795776,192.516418 338.791382,192.516052 328.914520,192.515610 
	C328.247864,192.515579 327.581238,192.516586 326.914581,192.517136 
	C317.587646,192.524887 317.587646,192.524902 316.808533,203.032700 
	C318.755249,203.032700 320.666168,203.032700 323.056702,203.032715 
z"/>
<path fill="#207716" opacity="1.000000" stroke="none" 
	d="
M880.250305,161.726715 
	C878.945557,160.043930 878.310242,157.876022 876.898315,156.512039 
	C862.767151,142.860779 848.485657,129.365250 834.321350,115.747917 
	C832.957275,114.436455 832.098145,112.599785 830.982910,110.679955 
	C839.654175,110.294014 848.347107,110.235054 857.522217,110.572067 
	C858.502380,111.974335 858.773865,113.214279 859.533447,113.951035 
	C867.933716,122.098572 876.453735,130.122910 884.843079,138.281616 
	C888.039917,141.390594 890.984375,144.759201 894.043884,148.009476 
	C889.549011,152.544540 885.054138,157.079620 880.250305,161.726715 
z"/>
<path fill="#50E04A" opacity="1.000000" stroke="none" 
	d="
M830.492126,299.616821 
	C833.246826,302.358337 835.563049,305.252930 838.044983,307.997742 
	C841.452576,311.766357 847.193665,313.796967 846.607300,320.684204 
	C830.475525,323.797089 814.733765,326.430969 798.992065,329.064880 
	C789.160889,329.944427 779.329712,330.823975 769.498474,331.703491 
	C769.328674,331.143463 769.158875,330.583405 768.989075,330.023346 
	C789.368530,319.916595 809.748047,309.809845 830.492126,299.616821 
z"/>
<path fill="#2FB31D" opacity="1.000000" stroke="none" 
	d="
M973.435425,151.546280 
	C982.699097,159.977600 991.645569,168.500534 1000.513794,177.104095 
	C1001.266418,177.834167 1001.497070,179.102280 1001.975830,180.468750 
	C981.114563,180.817093 960.247620,180.817093 939.380737,180.817093 
	C939.114380,180.354111 938.847961,179.891129 938.581604,179.428146 
	C950.086975,170.171814 961.592346,160.915482 973.435425,151.546280 
z"/>
<path fill="#F6F7F6" opacity="1.000000" stroke="none" 
	d="
M574.294678,181.272873 
	C578.137207,181.400848 577.078674,183.662231 576.742065,185.563416 
	C574.716675,197.004257 572.674622,208.442169 570.667542,219.886215 
	C570.388245,221.478806 570.271240,223.099838 570.027222,225.142090 
	C575.665405,225.142090 580.772095,225.142090 586.807312,225.142090 
	C586.163757,228.971954 585.606506,232.288132 585.039185,235.664520 
	C574.664795,235.664520 564.608643,235.664520 553.991028,235.664520 
	C557.212341,217.422592 560.369385,199.544495 563.596497,181.269714 
	C567.323181,181.269714 570.601318,181.269714 574.294678,181.272873 
z"/>
<path fill="#54E450" opacity="1.000000" stroke="none" 
	d="
M830.957214,333.777832 
	C840.187927,343.234222 849.432861,352.676910 858.633240,362.162781 
	C859.927368,363.496979 861.003479,365.042603 862.925293,367.406525 
	C855.589050,367.903564 849.488708,368.316895 843.217407,369.046631 
	C839.647827,369.452881 836.249207,369.542725 832.332397,369.172974 
	C830.780701,366.880585 830.078796,364.723083 828.656677,363.270721 
	C822.203003,356.680176 815.546265,350.288391 809.198364,343.581116 
	C816.608521,340.150726 823.782898,336.964264 830.957214,333.777832 
z"/>
<path fill="#1E6D15" opacity="1.000000" stroke="none" 
	d="
M894.340210,147.863022 
	C890.984375,144.759201 888.039917,141.390594 884.843079,138.281616 
	C876.453735,130.122910 867.933716,122.098572 859.533447,113.951035 
	C858.773865,113.214279 858.502380,111.974335 857.983887,110.636551 
	C867.653076,110.248795 877.342712,110.192535 887.559082,110.504723 
	C890.732727,113.919502 893.300903,117.038933 896.044556,119.995445 
	C900.392761,124.681061 906.943176,127.589104 907.965210,134.928284 
	C903.522278,139.191040 899.079346,143.453796 894.340210,147.863022 
z"/>
<path fill="#58E555" opacity="1.000000" stroke="none" 
	d="
M808.962585,343.825104 
	C815.546265,350.288391 822.203003,356.680176 828.656677,363.270721 
	C830.078796,364.723083 830.780701,366.880585 831.900146,369.013306 
	C817.356750,369.447418 802.727539,369.637573 788.098022,369.665283 
	C785.395020,369.670410 784.246704,368.485199 785.688721,365.448425 
	C787.968689,360.647217 789.775574,355.621338 792.312134,350.314209 
	C798.215332,347.900299 803.588928,345.862701 808.962585,343.825104 
z"/>
<path fill="#2CA11E" opacity="1.000000" stroke="none" 
	d="
M809.198364,343.581177 
	C803.588928,345.862701 798.215332,347.900299 792.488647,349.999664 
	C794.453552,343.326141 796.771423,336.590881 799.040649,329.460236 
	C814.733765,326.430969 830.475525,323.797089 846.607422,321.082214 
	C849.485535,320.823212 851.973572,320.645233 854.709717,320.729706 
	C847.082336,325.074677 839.206848,329.157227 831.144287,333.508789 
	C823.782898,336.964264 816.608521,340.150726 809.198364,343.581177 
z"/>
<path fill="#1A5E13" opacity="1.000000" stroke="none" 
	d="
M908.270386,134.798508 
	C906.943176,127.589104 900.392761,124.681061 896.044556,119.995445 
	C893.300903,117.038933 890.732727,113.919502 888.023071,110.547974 
	C902.042419,110.256851 916.124573,110.279144 930.206360,110.374023 
	C930.697327,110.377342 931.183411,111.104027 932.130615,111.859467 
	C924.141418,119.595657 916.358459,127.132187 908.270386,134.798508 
z"/>
<path fill="#8BDB8E" opacity="1.000000" stroke="none" 
	d="
M647.545410,272.532776 
	C652.894104,268.113770 658.615906,266.461456 665.056152,268.276062 
	C669.549316,269.541992 672.421204,272.427246 673.700928,278.536499 
	C670.934570,277.660065 668.616089,277.603729 667.373962,276.418945 
	C660.683960,270.037872 652.130249,271.450592 647.914001,279.888550 
	C644.719910,286.281006 646.232666,292.823792 651.416016,295.034882 
	C657.301025,297.545349 664.202515,294.149200 666.775818,286.503876 
	C663.746338,286.503876 661.039612,286.676971 658.375916,286.414246 
	C657.381775,286.316193 656.488098,285.200684 655.548584,284.549133 
	C656.462463,283.808105 657.349121,282.469788 658.294800,282.426697 
	C663.086609,282.208191 667.893677,282.326080 672.617981,282.326080 
	C673.916931,289.829773 667.225891,298.398224 658.905029,300.012451 
	C653.295227,301.100769 647.752319,300.825165 643.866882,295.842987 
	C639.841003,290.680847 640.336426,284.881409 642.761108,279.274933 
	C643.787842,276.900909 645.751953,274.932251 647.545410,272.532776 
z"/>
<path fill="#8DDD90" opacity="1.000000" stroke="none" 
	d="
M103.303131,276.805115 
	C102.121628,283.614777 101.111420,290.028778 99.746620,296.366394 
	C99.443260,297.775116 97.947693,299.873230 96.898621,299.935822 
	C95.585350,300.014099 93.604271,298.627197 92.893913,297.333374 
	C90.333542,292.669800 88.196739,287.774445 85.875977,282.978210 
	C85.179329,281.538452 84.404549,280.136536 83.665558,278.717255 
	C83.219940,278.744965 82.774323,278.772644 82.328705,278.800323 
	C81.284225,284.611908 80.278008,290.430756 79.182129,296.232635 
	C78.421425,300.260010 78.353592,300.257751 73.515678,299.497803 
	C75.230553,289.708191 76.885132,279.909729 78.758110,270.153137 
	C78.932663,269.243866 80.642517,267.847137 81.372810,267.994934 
	C82.753609,268.274292 84.473602,269.222321 85.114655,270.402130 
	C87.735092,275.225037 89.980988,280.250366 92.410957,285.178436 
	C93.106804,286.589661 93.957863,287.924347 95.895889,289.166473 
	C96.999207,283.243347 98.229759,277.339905 99.151749,271.388672 
	C99.607491,268.447021 100.671371,267.082428 104.459129,268.454132 
	C104.102951,270.992126 103.724762,273.687012 103.303131,276.805115 
z"/>
<path fill="#8CDB8E" opacity="1.000000" stroke="none" 
	d="
M234.230728,286.512634 
	C232.980026,286.508789 232.062317,286.726654 231.337540,286.446075 
	C230.431015,286.095215 229.683105,285.334595 228.866699,284.750854 
	C229.678970,283.943970 230.461685,282.476868 231.308350,282.438965 
	C236.261642,282.217407 241.229874,282.330261 246.142242,282.330261 
	C246.945618,290.529358 239.672134,298.940735 231.127289,300.201263 
	C222.155945,301.524719 216.081055,297.799652 214.474945,289.990234 
	C212.603989,280.893097 219.221252,270.832825 228.662552,268.198730 
	C236.923279,265.893951 245.885162,270.033508 246.628189,278.113159 
	C244.535309,277.694336 241.848663,277.960754 241.036728,276.853027 
	C237.769882,272.396088 233.809052,271.205017 228.822891,272.996307 
	C223.243149,275.000916 220.358322,279.242218 219.629745,284.971619 
	C218.914780,290.593842 221.447098,294.427490 226.384674,295.541107 
	C232.188919,296.850220 237.874298,293.413239 239.949295,286.831207 
	C238.084686,286.719299 236.367020,286.616211 234.230728,286.512634 
z"/>
<path fill="#8EDE90" opacity="1.000000" stroke="none" 
	d="
M605.656189,280.174133 
	C607.296509,283.438599 608.775391,286.367035 610.254272,289.295471 
	C610.719849,289.286835 611.185425,289.278168 611.651001,289.269501 
	C612.673645,283.532257 613.747986,277.803528 614.697571,272.054169 
	C615.190369,269.070404 615.959595,266.732269 620.374023,268.609039 
	C619.029724,276.442932 617.669373,284.386169 616.301147,292.328033 
	C616.075439,293.638214 616.063477,295.061798 615.507568,296.219086 
	C614.821350,297.647339 613.476746,300.029541 612.757935,299.912048 
	C611.179504,299.654022 609.224121,298.400238 608.467346,296.991638 
	C605.256592,291.015930 602.427673,284.835114 599.459290,278.729218 
	C599.005493,278.722107 598.551697,278.714996 598.097961,278.707886 
	C596.975525,284.724335 595.678955,290.715576 594.802063,296.767578 
	C594.342163,299.941406 592.951355,300.735931 589.330750,299.627960 
	C590.527222,292.456360 591.737366,285.184723 592.955627,277.914459 
	C593.257324,276.114014 593.350769,274.232208 593.967529,272.544098 
	C594.577698,270.874268 595.728516,269.402008 596.642151,267.843109 
	C598.212585,268.999329 600.231201,269.854858 601.253418,271.378754 
	C602.996704,273.977539 604.114258,276.996002 605.656189,280.174133 
z"/>
<path fill="#8BDA8E" opacity="1.000000" stroke="none" 
	d="
M168.938110,286.612488 
	C169.621933,282.751404 170.062210,279.269867 170.919357,275.894196 
	C171.609787,273.175140 172.602676,268.418243 173.809189,268.306061 
	C179.429092,267.783478 185.655670,266.222900 190.564713,270.573608 
	C194.191147,273.787598 193.156693,280.531677 188.766312,284.286987 
	C187.405014,285.451385 185.812744,286.345703 184.031113,287.565765 
	C185.635513,291.473785 187.198578,295.281128 188.891968,299.405853 
	C185.420990,300.804810 183.052780,300.632080 181.809097,296.793091 
	C181.042007,294.425262 180.133087,292.054749 178.902863,289.905853 
	C178.277802,288.814087 176.688675,287.453827 175.740799,287.594910 
	C174.766602,287.739929 173.713181,289.451569 173.286148,290.682861 
	C172.640396,292.544739 172.307327,294.573608 172.200668,296.550934 
	C172.013824,300.014374 170.374985,300.860016 166.690201,299.573456 
	C167.413147,295.424744 168.143890,291.231293 168.938110,286.612488 
M176.671295,283.198883 
	C179.237778,282.798706 182.360046,283.148163 184.207626,281.778320 
	C185.907349,280.518127 186.847443,277.417480 186.882233,275.108917 
	C186.897217,274.115051 183.869705,272.406372 182.076584,272.176727 
	C176.152969,271.418274 173.769424,275.724640 176.671295,283.198883 
z"/>
<path fill="#8DDC8F" opacity="1.000000" stroke="none" 
	d="
M505.989746,281.829468 
	C512.736633,281.796875 512.609802,281.774078 514.017700,273.938690 
	C514.517578,271.157013 513.734192,266.466858 519.958679,268.521271 
	C518.230713,278.469177 516.605042,288.418488 514.632202,298.298462 
	C514.428955,299.316101 512.154114,299.920105 510.840546,300.716034 
	C510.458862,300.409058 510.077148,300.102081 509.695465,299.795074 
	C510.287994,295.460297 510.880524,291.125519 511.576172,286.036255 
	C507.123718,286.036255 503.020233,285.847107 498.957489,286.169983 
	C497.948883,286.250153 496.598175,287.838593 496.233917,288.994965 
	C495.491852,291.350708 495.330200,293.887024 494.900574,296.343903 
	C494.197144,300.366882 494.171600,300.374786 489.294586,299.467957 
	C490.974701,289.834595 492.528748,280.168182 494.488617,270.584747 
	C494.751831,269.297668 497.061951,268.429230 498.424225,267.366943 
	C498.823425,267.722198 499.222656,268.077484 499.621857,268.432770 
	C499.035828,272.606171 498.449768,276.779572 497.740814,281.828186 
	C500.677002,281.828186 503.089417,281.828186 505.989746,281.829468 
z"/>
<path fill="#8BDA8E" opacity="1.000000" stroke="none" 
	d="
M444.893555,270.856812 
	C449.925873,267.630005 455.008911,266.587646 460.431427,268.282440 
	C464.840546,269.660553 467.799438,272.445221 468.741699,278.810486 
	C465.897034,277.608185 463.593140,277.260895 462.230347,275.941498 
	C458.069672,271.913300 453.285736,271.013092 448.359070,274.055206 
	C443.919891,276.796295 441.226105,281.086914 441.556732,286.055817 
	C441.756470,289.058167 443.789581,292.840149 446.213287,294.585632 
	C450.033905,297.337128 454.400848,295.795502 458.241364,293.112122 
	C460.318604,291.660767 462.729370,290.686859 465.717499,289.114563 
	C464.905182,297.203003 453.949615,301.950317 445.790619,300.098938 
	C439.036896,298.566467 434.931488,291.803223 436.354614,284.233368 
	C437.374115,278.810364 439.944153,274.260620 444.893555,270.856812 
z"/>
<path fill="#8BDA8E" opacity="1.000000" stroke="none" 
	d="
M394.016602,289.908997 
	C398.348419,286.021301 398.821198,282.081177 395.887848,277.381104 
	C394.267517,274.784821 393.363373,271.741577 392.105438,268.828186 
	C396.138489,267.774475 396.138489,267.774475 402.468597,278.290466 
	C407.901031,276.254059 407.985870,266.786194 417.167053,268.240021 
	C413.690460,272.666229 410.857574,276.621765 407.648682,280.244293 
	C405.222351,282.983398 404.802338,285.503632 406.507111,288.765167 
	C408.255463,292.110107 409.566498,295.683685 411.084167,299.192413 
	C407.592499,300.248840 407.592499,300.248840 400.648804,289.952118 
	C395.352417,292.025421 395.414337,301.255310 386.158539,299.905701 
	C389.052734,296.219177 391.419647,293.204315 394.016602,289.908997 
z"/>
<path fill="#8EDE91" opacity="1.000000" stroke="none" 
	d="
M561.536865,275.312561 
	C563.045837,283.559143 564.459900,291.394684 565.882874,299.280273 
	C562.504700,301.068390 560.488831,300.330872 560.164917,296.740723 
	C559.880676,293.588959 558.120911,293.167267 555.439880,293.151764 
	C550.447754,293.122925 545.388733,292.312012 543.275879,298.799103 
	C542.955383,299.783112 540.316467,300.012054 538.749939,300.590240 
	C538.452148,300.254272 538.154419,299.918304 537.856628,299.582336 
	C539.229126,296.865814 540.550415,294.121918 541.984253,291.438171 
	C545.436707,284.976074 548.987000,278.565887 552.401428,272.083954 
	C553.612915,269.784149 554.899841,267.085205 557.824890,268.383270 
	C559.355713,269.062653 560.042358,271.683502 561.056885,273.458069 
	C561.295776,273.876007 561.319275,274.417145 561.536865,275.312561 
M557.973938,284.377655 
	C557.494995,281.727600 557.016113,279.077515 556.537231,276.427429 
	C556.198425,276.361481 555.859558,276.295532 555.520691,276.229584 
	C553.401794,280.282410 551.282898,284.335266 548.886902,288.918152 
	C552.758179,288.918152 555.621765,288.918152 558.758057,288.918152 
	C558.490173,287.414856 558.293213,286.309692 557.973938,284.377655 
z"/>
<path fill="#89D78C" opacity="1.000000" stroke="none" 
	d="
M130.900970,291.392700 
	C129.846725,294.701691 130.401855,296.396637 133.865051,296.170380 
	C135.855637,296.040375 137.885971,295.979858 139.851059,296.242371 
	C140.734848,296.360413 141.502869,297.345276 142.323425,297.936829 
	C141.466644,298.695923 140.636505,300.073273 139.748657,300.111511 
	C134.796432,300.324921 129.830246,300.214050 124.158562,300.214050 
	C126.007431,289.647827 127.699409,279.698547 129.576797,269.784393 
	C129.725586,268.998596 131.140457,267.920715 132.000275,267.889221 
	C136.953995,267.707886 141.917770,267.800812 146.878128,267.800812 
	C147.169266,268.320587 147.460403,268.840363 147.751541,269.360107 
	C146.587860,270.282043 145.523682,271.403137 144.223831,272.052521 
	C143.422089,272.453064 142.261078,272.135773 141.261368,272.138580 
	C133.515121,272.160553 132.741013,273.071838 133.554352,281.712830 
	C135.085831,281.807404 136.689621,281.945587 138.296112,281.994720 
	C139.918137,282.044312 141.542862,282.005615 143.330856,282.005615 
	C143.734406,287.495514 139.984543,286.046906 137.664413,286.054688 
	C134.089005,286.066589 130.814529,285.976288 130.900970,291.392700 
z"/>
<path fill="#8AD98D" opacity="1.000000" stroke="none" 
	d="
M35.635708,274.303528 
	C35.825813,269.327972 37.572685,266.822968 42.721867,267.704437 
	C45.307487,268.147064 48.058666,267.559113 50.680485,267.881042 
	C51.956802,268.037720 53.108101,269.212738 54.315998,269.926758 
	C53.035103,270.658966 51.792980,271.476929 50.454659,272.082123 
	C49.901878,272.332123 49.142704,272.124451 48.477406,272.127106 
	C40.081470,272.160706 40.000816,272.247925 40.052101,282.023529 
	C42.613247,282.023529 45.203655,281.888214 47.766438,282.095093 
	C48.694141,282.170013 49.555729,283.064026 50.447483,283.584259 
	C49.630005,284.415375 48.897274,285.367401 47.958427,286.025391 
	C47.505836,286.342590 46.664967,286.102631 46.000065,286.120483 
	C37.707878,286.343445 37.647053,286.410431 37.586735,296.168335 
	C40.477703,296.168335 43.400589,296.018219 46.293404,296.247528 
	C47.345493,296.330933 48.325878,297.319061 49.338982,297.894409 
	C48.469093,298.659027 47.647995,300.005676 46.720524,300.083466 
	C43.416615,300.360443 40.076527,300.207214 36.750130,300.214081 
	C35.121746,300.217438 33.493347,300.214630 31.071661,300.214630 
	C32.655575,291.287781 34.125706,283.002228 35.635708,274.303528 
z"/>
<path fill="#8AD88C" opacity="1.000000" stroke="none" 
	d="
M358.192017,267.776062 
	C361.133209,267.783569 363.639465,267.635834 366.106750,267.880646 
	C366.987000,267.967987 367.772888,269.006317 368.601868,269.610565 
	C367.763855,270.436676 367.049622,271.510376 366.048767,272.010742 
	C365.246063,272.412109 364.095703,272.124268 363.099518,272.131500 
	C354.652740,272.192871 354.372162,272.487732 354.588806,281.690063 
	C356.268005,281.794556 358.004486,281.913147 359.742249,282.007629 
	C361.336853,282.094299 362.932800,282.154907 364.528168,282.227020 
	C364.732635,282.819214 364.937134,283.411407 365.141632,284.003601 
	C363.661438,284.710999 362.212494,285.948944 360.695953,286.038239 
	C351.983887,286.551178 351.838623,286.607880 351.970978,296.163940 
	C354.874481,296.163940 357.813141,296.004730 360.717316,296.251465 
	C361.716187,296.336334 362.628967,297.434570 363.581085,298.069885 
	C362.669495,298.781952 361.782013,300.070312 360.842316,300.109650 
	C355.912445,300.315948 350.969330,300.206085 345.408478,300.206085 
	C347.268097,289.645294 348.807251,279.674438 351.043213,269.862366 
	C351.304138,268.717468 355.415436,268.449982 358.192017,267.776062 
z"/>
<path fill="#89D78C" opacity="1.000000" stroke="none" 
	d="
M703.070679,296.130371 
	C705.704102,296.152863 707.888123,295.986237 710.015991,296.258392 
	C710.846619,296.364624 711.551025,297.457611 712.312927,298.101166 
	C711.571228,298.801453 710.850159,300.081116 710.084595,300.108307 
	C704.990723,300.289093 699.887390,300.201996 694.136292,300.201996 
	C696.005188,289.561218 697.701050,279.625610 699.584656,269.725708 
	C699.731262,268.954987 701.173096,267.914642 702.044800,267.883301 
	C706.985657,267.705688 711.936218,267.797333 716.883484,267.797333 
	C717.170349,268.326385 717.457214,268.855438 717.744141,269.384491 
	C716.575134,270.298431 715.485596,271.355865 714.203552,272.065552 
	C713.565430,272.418762 712.574402,272.134216 711.743042,272.138550 
	C703.359314,272.182220 703.014343,272.554047 703.300110,281.769836 
	C706.615479,281.924286 709.979919,282.081024 713.462280,282.243256 
	C713.607666,287.292542 710.208801,286.030029 707.911865,286.092102 
	C701.837463,286.256134 699.906799,288.140106 700.480957,294.062836 
	C700.553284,294.808899 701.862610,295.435028 703.070679,296.130371 
z"/>
<path fill="#8DDC8F" opacity="1.000000" stroke="none" 
	d="
M292.918793,267.871948 
	C296.138245,267.939148 295.711853,269.270508 294.472229,271.003906 
	C292.340851,273.984283 290.407257,277.119232 288.119507,279.971832 
	C284.072845,285.017700 281.267090,290.467926 280.728333,297.060547 
	C280.474854,300.162170 280.140930,300.134888 275.757538,299.654205 
	C275.757538,294.324310 276.426971,288.854950 275.567383,283.637543 
	C274.724792,278.523376 272.326141,273.665558 270.617462,268.715607 
	C275.743347,266.414673 276.559296,269.624268 277.488037,272.801636 
	C278.324097,275.661896 279.284515,278.485809 280.665771,282.817596 
	C283.516479,278.570160 285.615051,275.141632 288.038116,271.960236 
	C289.252747,270.365417 291.058533,269.220856 292.918793,267.871948 
z"/>
<path fill="#268E19" opacity="1.000000" stroke="none" 
	d="
M882.252258,227.732849 
	C880.662537,225.429565 879.612549,222.862213 878.057190,220.650208 
	C875.906128,217.591080 873.374512,214.799530 870.990356,211.547562 
	C880.700012,211.201752 890.425110,211.201752 900.150208,211.201752 
	C900.365906,211.580704 900.581543,211.959656 900.797241,212.338593 
	C894.720337,217.434830 888.643494,222.531052 882.252258,227.732849 
z"/>
<path fill="#3FD632" opacity="1.000000" stroke="none" 
	d="
M900.531494,321.456909 
	C900.497009,320.828705 900.730530,320.026093 901.272400,319.105743 
	C901.320374,319.752838 901.059998,320.517639 900.531494,321.456909 
z"/>
<path fill="#3FD632" opacity="1.000000" stroke="none" 
	d="
M898.542053,326.464478 
	C898.506165,325.833954 898.738831,325.029053 899.281555,324.107147 
	C899.331299,324.756775 899.070984,325.523407 898.542053,326.464478 
z"/>
<path fill="#4DDE47" opacity="1.000000" stroke="none" 
	d="
M891.408691,344.420715 
	C891.379089,343.822235 891.612671,343.055511 892.125610,342.158875 
	C892.160583,342.770142 891.916199,343.511292 891.408691,344.420715 
z"/>
<path fill="#4DDE47" opacity="1.000000" stroke="none" 
	d="
M889.419067,349.441406 
	C889.394409,348.832306 889.636780,348.055664 890.167114,347.152283 
	C890.198730,347.774994 889.942383,348.524414 889.419067,349.441406 
z"/>
<path fill="#10220F" opacity="1.000000" stroke="none" 
	d="
M156.412628,223.053345 
	C144.331924,224.993195 139.906952,216.702423 142.351517,206.898453 
	C144.659042,197.643982 151.938400,192.649567 160.697357,193.922134 
	C165.328293,194.594940 168.119019,197.313400 169.023972,201.860901 
	C170.897522,211.275558 166.130402,219.489380 156.412628,223.053345 
z"/>
<path fill="#1A2C1A" opacity="1.000000" stroke="none" 
	d="
M381.796204,192.934708 
	C385.564758,192.981125 388.351685,193.889954 388.328796,197.853867 
	C388.307526,201.536087 386.582947,204.383179 382.764313,205.072464 
	C379.741150,205.618149 376.610016,205.565796 373.571808,205.775909 
	C372.319275,195.712128 374.114502,192.926483 381.796204,192.934708 
z"/>
<path fill="#243524" opacity="1.000000" stroke="none" 
	d="
M507.308533,208.293304 
	C509.027008,205.081589 510.576263,202.205276 512.125488,199.328949 
	C512.500488,199.379074 512.875549,199.429184 513.250549,199.479309 
	C514.122314,204.725800 514.994141,209.972305 515.931885,215.615646 
	C511.771484,215.615646 508.074493,215.615646 503.667145,215.615646 
	C504.968384,212.997223 506.053864,210.812958 507.308533,208.293304 
z"/>
<path fill="#1B2C1B" opacity="1.000000" stroke="none" 
	d="
M87.469696,205.586578 
	C85.288750,205.644791 83.511314,205.644791 80.814072,205.644791 
	C81.750397,201.163086 81.506027,196.350159 83.776749,193.660843 
	C85.186096,191.991669 90.583725,192.974426 93.822250,193.968674 
	C94.898720,194.299133 95.964516,199.116531 95.017929,200.557419 
	C93.539566,202.807755 90.342247,203.928818 87.469696,205.586578 
z"/>
<path fill="#1A2C1A" opacity="1.000000" stroke="none" 
	d="
M452.675049,200.300720 
	C449.462555,205.494598 446.974121,206.354294 438.184570,205.095749 
	C439.126038,201.057220 439.193848,196.457382 441.373230,193.328140 
	C442.385620,191.874466 447.724823,192.645920 450.655396,193.678238 
	C451.949738,194.134186 452.132111,197.746964 452.675049,200.300720 
z"/>
<path fill="#132A13" opacity="1.000000" stroke="none" 
	d="
M176.242554,283.091492 
	C173.769424,275.724640 176.152969,271.418274 182.076584,272.176727 
	C183.869705,272.406372 186.897217,274.115051 186.882233,275.108917 
	C186.847443,277.417480 185.907349,280.518127 184.207626,281.778320 
	C182.360046,283.148163 179.237778,282.798706 176.242554,283.091492 
z"/>
<path fill="#173017" opacity="1.000000" stroke="none" 
	d="
M558.035156,284.791107 
	C558.293213,286.309692 558.490173,287.414856 558.758057,288.918152 
	C555.621765,288.918152 552.758179,288.918152 548.886902,288.918152 
	C551.282898,284.335266 553.401794,280.282410 555.520691,276.229584 
	C555.859558,276.295532 556.198425,276.361481 556.537231,276.427429 
	C557.016113,279.077515 557.494995,281.727600 558.035156,284.791107 
z"/>
</svg>