<svg xmlns="http://www.w3.org/2000/svg" xmlns:xlink="http://www.w3.org/1999/xlink" width="162.566" height="60.09" viewBox="0 0 162.566 60.09">
  <defs>
    <clipPath id="clip-path">
      <rect id="Rectangle_113" data-name="Rectangle 113" width="162.566" height="60.09" fill="#7678ed"/>
    </clipPath>
  </defs>
  <g id="Group_226" data-name="Group 226" clip-path="url(#clip-path)">
    <path id="Path_81" data-name="Path 81" d="M162.412,32.2A24.973,24.973,0,0,0,134.87,10.156c-5.929.658-10.914,2.771-14.956,7.042a26.2,26.2,0,0,1,5.453,7.912l.023.376a15.463,15.463,0,1,1,13.934,24.832,15.668,15.668,0,0,1-11.718-3.363,15.1,15.1,0,0,1-5.327-8.241,12.808,12.808,0,0,1-.247-1.8c0-.056,0-.112,0-.168A22.135,22.135,0,0,0,99.936,15.32c-.679,0-1.351.042-2.013.1a26.268,26.268,0,0,1,16.369-5.943l.275,0L114.675,0a35.775,35.775,0,0,0-23.659,8.8,38.743,38.743,0,0,0-8.982,11.338A24.912,24.912,0,0,0,37.21,35.132H37.2A15.594,15.594,0,0,1,22.352,49.983H17.827l10.811-8.964.014.014c.086-.072.161-.156.247-.231l.529-.439.012-.068A17.449,17.449,0,1,0,0,27.631H9.472a7.988,7.988,0,1,1,13.351,5.9L2.064,50.746H2.053v.012l-.035.028.035.042V59.46h9.554v0h9.9l1.612-.03A25.071,25.071,0,0,0,46.683,35.146l.037-.585A15.455,15.455,0,1,1,62.154,50.608a15.859,15.859,0,0,1-10.6-4.469,26.774,26.774,0,0,1-4.082,9.15,24.852,24.852,0,0,0,34.472-5.02,22.054,22.054,0,0,0,35.881.135,24.2,24.2,0,0,0,3.8,3.9,25.332,25.332,0,0,0,15.933,5.586,25.866,25.866,0,0,0,2.813-.154A24.943,24.943,0,0,0,162.412,32.2M112.83,37.8l-.012,0,.009.054a12.49,12.49,0,1,1,.021-.413c0,.121-.016.238-.019.357" transform="translate(0 0)" fill="#7678ed"/>
  </g>
</svg>
